# 3ds Max Wavefront OBJ Exporter v0.97b - (c)2007 guruware
# File Created: 26.04.2021 20:44:36

mtllib conveyor belt.mtl

#
# object Box274
#

v  -0.8674 0.2370 0.1845
v  0.8674 0.2370 0.1845
v  0.8674 0.2370 -0.1845
v  -0.8674 0.2370 -0.1845
v  0.9174 0.0566 0.1845
v  0.9174 0.0566 -0.1845
v  0.9174 0.1870 -0.1845
v  0.9174 0.1870 0.1845
v  -0.9174 0.0566 -0.1845
v  -0.9174 0.0566 0.1845
v  -0.9174 0.1870 0.1845
v  -0.9174 0.1870 -0.1845
v  -0.8674 0.0066 0.1845
v  -0.8674 0.0066 -0.1845
v  0.8674 0.0066 -0.1845
v  0.8674 0.0066 0.1845
v  0.8467 0.0566 0.1845
v  -0.8467 0.0566 0.1845
v  0.8674 0.0773 0.1845
v  0.8674 0.1663 0.1845
v  0.8467 0.1870 0.1845
v  -0.8467 0.1870 0.1845
v  -0.8674 0.1663 0.1845
v  -0.8674 0.0773 0.1845
v  0.8467 0.0566 0.1445
v  -0.8467 0.0566 0.1445
v  0.8674 0.0773 0.1445
v  0.8674 0.1663 0.1445
v  0.8467 0.1870 0.1445
v  -0.8467 0.1870 0.1445
v  -0.8674 0.1663 0.1445
v  -0.8674 0.0773 0.1445
v  0.8467 0.1870 -0.1845
v  0.8674 0.1663 -0.1845
v  0.8674 0.1663 -0.1445
v  0.8467 0.1870 -0.1445
v  -0.0000 0.1218 0.1445
# 37 vertices

vn -0.0000 1.0000 -0.0000
vn 1.0000 0.0000 -0.0000
vn -1.0000 -0.0000 -0.0000
vn -0.7071 -0.7071 -0.0000
vn 0.7071 -0.7071 -0.0000
vn 0.7071 0.7071 -0.0000
vn -0.7071 0.7071 -0.0000
vn 0.0000 0.0000 1.0000
vn 0.0000 -1.0000 -0.0000
vn -0.0000 0.0000 1.0000
vn -0.0000 -0.0000 1.0000
vn 0.0000 -0.0000 1.0000
# 12 vertex normals

vt 0.1208 0.0020 0.0000
vt 0.8792 0.0020 0.0000
vt 0.8792 0.1633 0.0000
vt 0.1208 0.1633 0.0000
vt 0.9671 0.0020 0.0000
vt 0.9671 0.1633 0.0000
vt 0.9101 0.1633 0.0000
vt 0.9101 0.0020 0.0000
vt 0.0329 0.1633 0.0000
vt 0.0329 0.0020 0.0000
vt 0.0899 0.0020 0.0000
vt 0.0899 0.1633 0.0000
vt 0.0020 0.0020 0.0000
vt 0.0020 0.1633 0.0000
vt 0.9980 0.1633 0.0000
vt 0.9980 0.0020 0.0000
vt 0.2155 0.1660 0.0000
vt 0.9735 0.1812 0.0000
vt 0.9625 0.2022 0.0000
vt 0.2253 0.1866 0.0000
vt 0.9934 0.2071 0.0000
vt 0.9684 0.2127 0.0000
vt 0.9913 0.2665 0.0000
vt 0.9687 0.2572 0.0000
vt 0.9728 0.2896 0.0000
vt 0.9630 0.2691 0.0000
vt 0.2141 0.2744 0.0000
vt 0.2252 0.2534 0.0000
vt 0.1943 0.2484 0.0000
vt 0.2193 0.2429 0.0000
vt 0.1970 0.1889 0.0000
vt 0.2194 0.1984 0.0000
vt 0.9621 0.2197 0.0000
vt 0.2249 0.2040 0.0000
vt 0.9520 0.2157 0.0000
vt 0.9495 0.2064 0.0000
vt 0.9505 0.2526 0.0000
vt 0.9470 0.2643 0.0000
vt 0.2255 0.2360 0.0000
vt 0.9633 0.2516 0.0000
vt 0.2357 0.2400 0.0000
vt 0.2382 0.2493 0.0000
vt 0.2376 0.2032 0.0000
vt 0.2412 0.1915 0.0000
vt 0.9774 0.1660 0.0000
vt 0.9902 0.1660 0.0000
vt 0.9902 0.1835 0.0000
vt 0.9774 0.1835 0.0000
vt 0.2440 0.2791 0.0000
vt 0.9841 0.2968 0.0000
vt 0.6134 0.3164 0.0000
vt 0.9929 0.3060 0.0000
vt 0.9920 0.3449 0.0000
vt 0.9827 0.3538 0.0000
vt 0.2427 0.3361 0.0000
vt 0.2338 0.3268 0.0000
vt 0.2348 0.2879 0.0000
# 57 texture coords

o Box274
g Box274
usemtl wire_214229166
s off
f 1/1/1 2/2/1 3/3/1 4/4/1 
f 5/5/2 6/6/2 7/7/2 8/8/2 
f 9/9/3 10/10/3 11/11/3 12/12/3 
f 13/13/4 10/10/4 9/9/4 14/14/4 
f 15/15/5 6/6/5 5/5/5 16/16/5 
f 2/2/6 8/8/6 7/7/6 3/3/6 
f 4/4/7 12/12/7 11/11/7 1/1/7 
f 13/17/8 16/18/8 17/19/8 18/20/8 
f 16/18/8 5/21/8 19/22/8 17/19/8 
f 5/21/8 8/23/8 20/24/8 19/22/8 
f 8/23/8 2/25/8 21/26/8 20/24/8 
f 2/25/8 1/27/8 22/28/8 21/26/8 
f 1/27/8 11/29/8 23/30/8 22/28/8 
f 11/29/8 10/31/8 24/32/8 23/30/8 
f 10/31/8 13/17/8 18/20/8 24/32/8 
f 18/20/1 17/19/1 25/33/1 26/34/1 
f 17/19/7 19/22/7 27/35/7 25/36/7 
f 19/22/3 20/24/3 28/37/3 27/35/3 
f 20/24/4 21/26/4 29/38/4 28/37/4 
f 21/26/9 22/28/9 30/39/9 29/40/9 
f 22/28/5 23/30/5 31/41/5 30/42/5 
f 23/30/2 24/32/2 32/43/2 31/41/2 
f 24/32/6 18/20/6 26/44/6 32/43/6 
f 33/45/4 34/46/4 35/47/4 36/48/4 
f 26/49/10 25/50/10 37/51/10 
f 25/50/10 27/52/10 37/51/10 
f 27/52/11 28/53/11 37/51/11 
f 28/53/11 29/54/11 37/51/11 
f 29/54/12 30/55/12 37/51/12 
f 30/55/12 31/56/12 37/51/12 
f 31/56/8 32/57/8 37/51/8 
f 32/57/8 26/49/8 37/51/8 
# 24 polygons - 8 triangles

