# 3ds Max Wavefront OBJ Exporter v0.97b - (c)2007 guruware
# File Created: 26.04.2021 19:03:10

mtllib Extract door.mtl

#
# object Box278
#

v  -0.0195 -0.0000 0.1845
v  -0.0195 -0.0000 -0.1845
v  0.0195 0.0000 -0.1845
v  0.0195 0.0000 0.1845
v  -0.0195 0.2304 0.1845
v  0.0195 0.2304 0.1845
v  0.0195 0.2304 -0.1845
v  -0.0195 0.2304 -0.1845
v  0.0105 0.0098 -0.1645
v  0.0105 0.0098 0.1645
v  0.0105 0.2104 0.1645
v  0.0105 0.2104 -0.1645
v  -0.0195 0.0098 0.1645
v  -0.0195 0.0098 -0.1645
v  -0.0195 0.2104 0.1645
v  -0.0195 0.2104 -0.1645
# 16 vertices

vn -0.5773 -0.5774 0.5774
vn -0.7071 -0.7071 -0.0000
vn 0.0000 -1.0000 -0.0000
vn 0.0000 -0.7071 0.7071
vn -0.5774 0.5773 0.5774
vn -0.0000 0.7071 0.7071
vn -0.0000 1.0000 0.0000
vn -0.7071 0.7071 0.0000
vn -0.5774 0.5773 -0.5774
vn -0.5773 -0.5774 -0.5774
vn -0.9045 0.3015 -0.3015
vn -0.9045 0.3015 0.3015
vn -0.9045 -0.3015 -0.3015
vn -0.9045 -0.3015 0.3015
# 14 vertex normals

vt 0.6475 0.0681 0.0000
vt 0.0042 0.0681 0.0000
vt 0.0042 0.0000 0.0000
vt 0.6475 0.0000 0.0000
vt 0.6475 0.4697 0.0000
vt 0.6475 0.5379 0.0000
vt 0.0042 0.5379 0.0000
vt 0.0042 0.4697 0.0000
vt 0.7156 0.0681 0.0000
vt 0.7156 0.4697 0.0000
vt 0.6301 0.9429 0.0000
vt 0.0565 0.9429 0.0000
vt 0.0565 0.5933 0.0000
vt 0.6301 0.5933 0.0000
vt 0.6126 0.0852 0.0000
vt 0.0390 0.0852 0.0000
vt 0.6126 0.4349 0.0000
vt 0.0390 0.4349 0.0000
vt 0.6301 0.9952 0.0000
vt 0.0565 0.9952 0.0000
vt 0.0042 0.9429 0.0000
vt 0.0042 0.5933 0.0000
vt 0.0565 0.5410 0.0000
vt 0.6301 0.5410 0.0000
vt 0.6824 0.5933 0.0000
vt 0.6824 0.9429 0.0000
# 26 texture coords

o Box278
g Box278
usemtl wire_214229166
s 2
f 1/1/1 2/2/2 3/3/3 4/4/4 
s 4
f 5/5/5 6/6/6 7/7/7 8/8/8 
s 8
f 1/1/1 4/9/4 6/10/6 5/5/5 
s 64
f 9/11/5 10/12/9 11/13/10 12/14/1 
s off
f 2/2/2 1/1/1 13/15/11 14/16/12 
f 1/1/1 5/5/5 15/17/13 13/15/11 
f 5/5/5 8/8/8 16/18/14 15/17/13 
f 8/8/8 2/2/2 14/16/12 16/18/14 
f 14/19/12 13/20/11 10/12/9 9/11/5 
f 13/21/11 15/22/13 11/13/10 10/12/9 
f 15/23/13 16/24/14 12/14/1 11/13/10 
f 16/25/14 14/26/12 9/11/5 12/14/1 
# 12 polygons

