# 3ds Max Wavefront OBJ Exporter v0.97b - (c)2007 guruware
# File Created: 26.04.2021 19:16:41

mtllib FireFoundry.mtl

#
# object Box281
#

v  -0.3766 0.0094 0.2742
v  0.3766 0.0094 0.2742
v  0.3766 0.0094 -0.2742
v  -0.3766 0.0094 -0.2742
v  -0.4766 0.0000 0.3742
v  0.4766 -0.0000 0.3742
v  0.4766 0.1025 0.3742
v  -0.4766 0.1025 0.3742
v  0.4766 -0.0000 -0.3742
v  0.4766 0.1025 -0.3742
v  -0.4766 0.0000 -0.3742
v  -0.4766 0.1025 -0.3742
v  0.3766 0.1025 0.2742
v  -0.3766 0.1025 0.2742
v  0.3766 0.1025 -0.2742
v  -0.3766 0.1025 -0.2742
# 16 vertices

vn 0.5774 0.5774 -0.5774
vn -0.5774 0.5774 -0.5774
vn -0.5774 0.5774 0.5774
vn 0.5774 0.5774 0.5774
vn -0.7071 0.0000 0.7071
vn 0.7071 -0.0000 0.7071
vn 0.7071 -0.0000 -0.7071
vn -0.7071 0.0000 -0.7071
vn -0.3015 0.9045 -0.3015
vn 0.3015 0.9045 -0.3015
vn -0.3015 0.9045 0.3015
vn 0.3015 0.9045 0.3015
# 12 vertex normals

vt 0.7784 0.2120 0.0000
vt 0.4900 0.2120 0.0000
vt 0.4900 0.0020 0.0000
vt 0.7784 0.0020 0.0000
vt 0.0821 0.0020 0.0000
vt 0.4471 0.0020 0.0000
vt 0.4471 0.0413 0.0000
vt 0.0821 0.0413 0.0000
vt 0.4864 0.0413 0.0000
vt 0.4864 0.3278 0.0000
vt 0.4471 0.3278 0.0000
vt 0.4471 0.3671 0.0000
vt 0.0821 0.3671 0.0000
vt 0.0821 0.3278 0.0000
vt 0.0429 0.3278 0.0000
vt 0.0429 0.0413 0.0000
vt 0.4088 0.0795 0.0000
vt 0.1204 0.0795 0.0000
vt 0.4088 0.2895 0.0000
vt 0.1204 0.2895 0.0000
vt 0.0020 0.4745 0.0000
vt 0.0020 0.2195 0.0000
vt 0.0385 0.2195 0.0000
vt 0.0385 0.4745 0.0000
vt 0.0020 0.0046 0.0000
vt 0.0385 0.0046 0.0000
vt 0.0020 0.9980 0.0000
vt 0.0020 0.7296 0.0000
vt 0.0385 0.7296 0.0000
vt 0.0385 0.9980 0.0000
# 30 texture coords

o Box281
g Box281
usemtl wire_177027088
s 4
f 1/1/1 2/2/2 3/3/3 4/4/4 
s 8
f 5/5/5 6/6/6 7/7/4 8/8/3 
s 16
f 6/9/6 9/10/7 10/11/1 7/7/4 
s 32
f 9/12/7 11/13/8 12/14/2 10/11/1 
s 64
f 11/15/8 5/16/5 8/8/3 12/14/2 
s off
f 8/8/3 7/7/4 13/17/9 14/18/10 
f 7/7/4 10/11/1 15/19/11 13/17/9 
f 10/11/1 12/14/2 16/20/12 15/19/11 
f 12/14/2 8/8/3 14/18/10 16/20/12 
f 14/21/10 13/22/9 2/23/2 1/24/1 
f 13/22/9 15/25/11 3/26/3 2/23/2 
f 15/27/11 16/28/12 4/29/4 3/30/3 
f 16/28/12 14/21/10 1/24/1 4/29/4 
# 13 polygons

