# 3ds Max Wavefront OBJ Exporter v0.97b - (c)2007 guruware
# File Created: 26.04.2021 20:45:09

mtllib FireFoundry.mtl

#
# object Box281
#

v  -0.3766 0.0094 0.2742
v  0.3766 0.0094 0.2742
v  0.3766 0.0094 -0.2742
v  -0.3766 0.0094 -0.2742
v  -0.4766 0.0000 0.3742
v  0.4766 -0.0000 0.3742
v  0.4766 0.1025 0.3742
v  -0.4766 0.1025 0.3742
v  0.4766 -0.0000 -0.3742
v  0.4766 0.1025 -0.3742
v  -0.4766 0.0000 -0.3742
v  -0.4766 0.1025 -0.3742
v  0.3766 0.1025 0.2742
v  -0.3766 0.1025 0.2742
v  0.3766 0.1025 -0.2742
v  -0.3766 0.1025 -0.2742
# 16 vertices

vn 0.0000 1.0000 -0.0000
vn 0.0000 0.0000 1.0000
vn 1.0000 0.0000 -0.0000
vn 0.0000 0.0000 -1.0000
vn -1.0000 0.0000 -0.0000
# 5 vertex normals

vt 0.7784 0.2120 0.0000
vt 0.4900 0.2120 0.0000
vt 0.4900 0.0020 0.0000
vt 0.7784 0.0020 0.0000
vt 0.0821 0.0020 0.0000
vt 0.4471 0.0020 0.0000
vt 0.4471 0.0413 0.0000
vt 0.0821 0.0413 0.0000
vt 0.4864 0.0413 0.0000
vt 0.4864 0.3278 0.0000
vt 0.4471 0.3278 0.0000
vt 0.4471 0.3671 0.0000
vt 0.0821 0.3671 0.0000
vt 0.0821 0.3278 0.0000
vt 0.0429 0.3278 0.0000
vt 0.0429 0.0413 0.0000
vt 0.4088 0.0795 0.0000
vt 0.1204 0.0795 0.0000
vt 0.4088 0.2895 0.0000
vt 0.1204 0.2895 0.0000
vt 0.0020 0.4745 0.0000
vt 0.0020 0.2195 0.0000
vt 0.0385 0.2195 0.0000
vt 0.0385 0.4745 0.0000
vt 0.0020 0.0046 0.0000
vt 0.0385 0.0046 0.0000
vt 0.0020 0.9980 0.0000
vt 0.0020 0.7296 0.0000
vt 0.0385 0.7296 0.0000
vt 0.0385 0.9980 0.0000
# 30 texture coords

o Box281
g Box281
usemtl wire_177027088
s off
f 1/1/1 2/2/1 3/3/1 4/4/1 
f 5/5/2 6/6/2 7/7/2 8/8/2 
f 6/9/3 9/10/3 10/11/3 7/7/3 
f 9/12/4 11/13/4 12/14/4 10/11/4 
f 11/15/5 5/16/5 8/8/5 12/14/5 
f 8/8/1 7/7/1 13/17/1 14/18/1 
f 7/7/1 10/11/1 15/19/1 13/17/1 
f 10/11/1 12/14/1 16/20/1 15/19/1 
f 12/14/1 8/8/1 14/18/1 16/20/1 
f 14/21/4 13/22/4 2/23/4 1/24/4 
f 13/22/5 15/25/5 3/26/5 2/23/5 
f 15/27/2 16/28/2 4/29/2 3/30/2 
f 16/28/3 14/21/3 1/24/3 4/29/3 
# 13 polygons

