# 3ds Max Wavefront OBJ Exporter v0.97b - (c)2007 guruware
# File Created: 26.04.2021 19:03:58

mtllib Machine.mtl

#
# object Box275
#

v  -0.3213 0.5442 0.3072
v  0.3213 0.5442 0.3072
v  0.3213 0.5442 -0.3072
v  -0.3213 0.5442 -0.3072
v  -0.3213 -0.0000 0.3072
v  0.3213 0.0000 0.3072
v  0.3213 0.0000 -0.3072
v  0.3213 0.1945 -0.2104
v  0.3213 0.1945 0.2104
v  0.3213 0.4242 -0.1872
v  0.3213 0.4242 0.1872
v  -0.3213 -0.0000 -0.3072
v  -0.3213 0.1945 0.2104
v  -0.3213 0.1945 -0.2104
v  -0.3213 0.4242 0.1872
v  -0.3213 0.4242 -0.1872
# 16 vertices

vn -0.5774 0.5773 0.5774
vn 0.5773 0.5774 0.5774
vn 0.7071 0.7071 0.0000
vn -0.7071 0.7071 0.0000
vn -0.7071 -0.0000 0.7071
vn 0.7071 0.0000 0.7071
vn 1.0000 0.0000 -0.0000
vn 0.9161 0.2689 0.2975
vn 0.9161 0.2689 -0.2975
vn 0.8925 -0.3345 0.3025
vn 0.8925 -0.3345 -0.3025
vn -1.0000 -0.0000 -0.0000
vn -0.9161 0.2689 -0.2975
vn -0.9161 0.2689 0.2975
vn -0.8925 -0.3345 -0.3025
vn -0.8925 -0.3345 0.3025
# 16 vertex normals

vt 0.3293 0.2925 0.0000
vt 0.6712 0.2920 0.0000
vt 0.6717 0.6188 0.0000
vt 0.3298 0.6194 0.0000
vt 0.3288 0.0030 0.0000
vt 0.6707 0.0025 0.0000
vt 0.9975 0.0020 0.0000
vt 0.9462 0.1055 0.0000
vt 0.7223 0.1059 0.0000
vt 0.9980 0.2915 0.0000
vt 0.9341 0.2278 0.0000
vt 0.7349 0.2280 0.0000
vt 0.0020 0.0036 0.0000
vt 0.2775 0.1066 0.0000
vt 0.0537 0.1069 0.0000
vt 0.2654 0.2288 0.0000
vt 0.0025 0.2931 0.0000
vt 0.0662 0.2291 0.0000
vt 0.6706 0.9927 0.0000
vt 0.4715 0.9917 0.0000
vt 0.4731 0.6499 0.0000
vt 0.6722 0.6508 0.0000
vt 0.3487 0.9912 0.0000
vt 0.3502 0.6493 0.0000
vt 0.1248 0.9901 0.0000
vt 0.0020 0.9896 0.0000
vt 0.0036 0.6477 0.0000
vt 0.1264 0.6483 0.0000
# 28 texture coords

o Box275
g Box275
usemtl wire_153228214
s 4
f 1/1/1 2/2/2 3/3/3 4/4/4 
s 8
f 5/5/5 6/6/6 2/2/2 1/1/1 
s off
f 6/6/6 7/7/7 8/8/8 9/9/9 
f 7/7/7 3/10/3 10/11/10 8/8/8 
f 3/10/3 2/2/2 11/12/11 10/11/10 
f 2/2/2 6/6/6 9/9/9 11/12/11 
f 12/13/12 5/5/5 13/14/13 14/15/14 
f 5/5/5 1/1/1 15/16/15 13/14/13 
f 1/1/1 4/17/4 16/18/16 15/16/15 
f 4/17/4 12/13/12 14/15/14 16/18/16 
s 1
f 15/19/15 16/20/16 10/21/10 11/22/11 
s 2
f 16/20/16 14/23/14 8/24/8 10/21/10 
f 13/25/13 15/26/15 11/27/11 9/28/9 
s 1
f 14/23/14 13/25/13 9/28/9 8/24/8 
# 14 polygons

