# 3ds Max Wavefront OBJ Exporter v0.97b - (c)2007 guruware
# File Created: 26.04.2021 20:51:19

mtllib Magnet.mtl

#
# object Cylinder067
#

v  -0.0308 -0.0000 -0.0000
v  -0.0217 -0.0000 -0.0217
v  -0.0217 -0.2655 -0.0217
v  -0.0308 -0.2655 -0.0000
v  0.0000 0.0000 -0.0308
v  0.0000 -0.2655 -0.0308
v  0.0217 0.0000 -0.0217
v  0.0217 -0.2655 -0.0217
v  0.0308 0.0000 0.0000
v  0.0308 -0.2655 0.0000
v  0.0217 0.0000 0.0217
v  0.0217 -0.2655 0.0217
v  -0.0000 -0.0000 0.0308
v  0.0000 -0.2655 0.0308
v  -0.0217 -0.0000 0.0217
v  -0.0217 -0.2655 0.0217
v  -0.0908 -0.2825 -0.0908
v  -0.0837 -0.2985 -0.0837
v  -0.1184 -0.2985 -0.0000
v  -0.1284 -0.2825 -0.0000
v  0.0000 -0.2825 -0.1284
v  0.0000 -0.2985 -0.1184
v  0.0908 -0.2825 -0.0908
v  0.0837 -0.2985 -0.0837
v  0.1284 -0.2825 -0.0000
v  0.1184 -0.2985 -0.0000
v  0.0908 -0.2825 0.0908
v  0.0837 -0.2985 0.0837
v  0.0000 -0.2825 0.1284
v  0.0000 -0.2985 0.1184
v  -0.0908 -0.2825 0.0908
v  -0.0837 -0.2985 0.0837
v  0.0000 -0.2985 -0.0000
v  -0.0841 -0.2655 -0.0841
v  -0.1190 -0.2655 -0.0000
v  0.0000 -0.2655 -0.1190
v  0.0841 -0.2655 -0.0841
v  0.1190 -0.2655 0.0000
v  0.0841 -0.2655 0.0841
v  0.0000 -0.2655 0.1190
v  -0.0841 -0.2655 0.0841
v  -0.0869 -0.0074 0.0990
v  -0.0869 -0.0074 0.0519
v  0.0869 -0.0074 0.0519
v  0.0869 -0.0074 0.0990
v  -0.0869 0.0471 0.0990
v  0.0869 0.0471 0.0990
v  0.0869 0.0471 0.0519
v  -0.0869 0.0471 0.0519
v  0.0869 0.0167 0.0990
v  -0.0869 0.0167 0.0990
v  0.0869 0.0167 0.0519
v  0.0869 -0.0074 -0.0990
v  -0.0869 -0.0074 -0.0990
v  -0.0869 0.0167 -0.0990
v  0.0869 0.0167 -0.0990
v  -0.0869 -0.0074 -0.0606
v  -0.0869 0.0167 -0.0606
v  0.0869 -0.0074 -0.0606
v  0.0869 0.0167 -0.0606
v  -0.0869 0.0167 0.0519
v  0.0869 0.0471 -0.0606
v  0.0869 0.0471 -0.0990
v  -0.0869 0.0471 -0.0990
v  -0.0869 0.0471 -0.0606
# 65 vertices

vn -0.9239 -0.0000 -0.3827
vn -0.3827 -0.0000 -0.9239
vn 0.3827 0.0000 -0.9239
vn 0.9239 0.0000 -0.3827
vn 0.9239 0.0000 0.3827
vn 0.3827 0.0000 0.9239
vn -0.3827 -0.0000 0.9239
vn -0.9239 -0.0000 0.3827
vn -0.8000 -0.5002 -0.3314
vn -0.3314 -0.5002 -0.8000
vn 0.3314 -0.5002 -0.8000
vn 0.8000 -0.5002 -0.3314
vn 0.8000 -0.5002 0.3314
vn 0.3314 -0.5002 0.8000
vn -0.3314 -0.5002 0.8000
vn -0.8000 -0.5002 0.3314
vn 0.0000 -1.0000 -0.0000
vn 0.0000 -1.0000 0.0000
vn -0.0000 1.0000 0.0000
vn -0.0000 1.0000 -0.0000
vn -0.8224 0.4557 -0.3407
vn -0.3406 0.4557 -0.8224
vn 0.3406 0.4557 -0.8224
vn 0.8224 0.4557 -0.3406
vn 0.8224 0.4557 0.3406
vn 0.3406 0.4557 0.8224
vn -0.3406 0.4557 0.8224
vn -0.8224 0.4557 0.3407
vn 0.0000 0.0000 1.0000
vn 1.0000 0.0000 -0.0000
vn 0.0000 0.0000 -1.0000
vn -1.0000 -0.0000 -0.0000
# 32 vertex normals

vt 0.0669 0.9901 0.0000
vt 0.0363 0.9901 0.0000
vt 0.0363 0.6443 0.0000
vt 0.0669 0.6443 0.0000
vt 0.0056 0.9901 0.0000
vt 0.0056 0.6443 0.0000
vt 0.2505 0.9901 0.0000
vt 0.2199 0.9901 0.0000
vt 0.2199 0.6443 0.0000
vt 0.2505 0.6443 0.0000
vt 0.1893 0.9901 0.0000
vt 0.1893 0.6443 0.0000
vt 0.1587 0.9901 0.0000
vt 0.1587 0.6443 0.0000
vt 0.1281 0.9901 0.0000
vt 0.1281 0.6443 0.0000
vt 0.0975 0.9901 0.0000
vt 0.0975 0.6443 0.0000
vt 0.2551 0.0292 0.0000
vt 0.2555 0.0534 0.0000
vt 0.1324 0.0560 0.0000
vt 0.1316 0.0321 0.0000
vt 0.3785 0.0275 0.0000
vt 0.3787 0.0517 0.0000
vt 0.5018 0.0269 0.0000
vt 0.5018 0.0511 0.0000
vt 0.6252 0.0274 0.0000
vt 0.6250 0.0516 0.0000
vt 0.7486 0.0291 0.0000
vt 0.7481 0.0533 0.0000
vt 0.8720 0.0320 0.0000
vt 0.8713 0.0559 0.0000
vt 0.9980 0.0361 0.0000
vt 0.9920 0.0605 0.0000
vt 0.0116 0.0607 0.0000
vt 0.0056 0.0362 0.0000
vt 0.8455 0.2032 0.0000
vt 0.7027 0.1451 0.0000
vt 0.7856 0.0611 0.0000
vt 0.7034 0.2631 0.0000
vt 0.7873 0.3460 0.0000
vt 0.9053 0.3452 0.0000
vt 0.9882 0.2613 0.0000
vt 0.9875 0.1433 0.0000
vt 0.9036 0.0604 0.0000
vt 0.4124 0.8092 0.0000
vt 0.3818 0.8095 0.0000
vt 0.3369 0.7037 0.0000
vt 0.4555 0.7027 0.0000
vt 0.3604 0.8313 0.0000
vt 0.2538 0.7883 0.0000
vt 0.3606 0.8620 0.0000
vt 0.2548 0.9069 0.0000
vt 0.3825 0.8834 0.0000
vt 0.3394 0.9900 0.0000
vt 0.4131 0.8831 0.0000
vt 0.4580 0.9889 0.0000
vt 0.4345 0.8613 0.0000
vt 0.5411 0.9044 0.0000
vt 0.4343 0.8307 0.0000
vt 0.5401 0.7858 0.0000
vt 0.1310 0.0074 0.0000
vt 0.2546 0.0043 0.0000
vt 0.3782 0.0026 0.0000
vt 0.5018 0.0020 0.0000
vt 0.6254 0.0025 0.0000
vt 0.7490 0.0042 0.0000
vt 0.8727 0.0073 0.0000
vt 0.9940 0.0106 0.0000
vt 0.0097 0.0107 0.0000
vt 0.4202 0.3609 0.0000
vt 0.3589 0.3601 0.0000
vt 0.3617 0.1337 0.0000
vt 0.4230 0.1345 0.0000
vt 0.4912 0.3618 0.0000
vt 0.4940 0.1354 0.0000
vt 0.5553 0.1361 0.0000
vt 0.5525 0.3625 0.0000
vt 0.4544 0.1349 0.0000
vt 0.4516 0.3613 0.0000
vt 0.3621 0.1024 0.0000
vt 0.4234 0.1032 0.0000
vt 0.1653 0.1313 0.0000
vt 0.1625 0.3577 0.0000
vt 0.1312 0.3574 0.0000
vt 0.1340 0.1310 0.0000
vt 0.2125 0.3584 0.0000
vt 0.2121 0.3897 0.0000
vt 0.1621 0.3891 0.0000
vt 0.2153 0.1320 0.0000
vt 0.2156 0.1006 0.0000
vt 0.4199 0.3922 0.0000
vt 0.3586 0.3915 0.0000
vt 0.0444 0.1299 0.0000
vt 0.0943 0.1305 0.0000
vt 0.0916 0.3569 0.0000
vt 0.0416 0.3563 0.0000
vt 0.1657 0.1000 0.0000
vt 0.3626 0.0628 0.0000
vt 0.4239 0.0635 0.0000
vt 0.2116 0.4293 0.0000
vt 0.1617 0.4287 0.0000
vt 0.4194 0.4319 0.0000
vt 0.3581 0.4311 0.0000
vt 0.1662 0.0604 0.0000
vt 0.2161 0.0610 0.0000
vt 0.5949 0.1366 0.0000
vt 0.5921 0.3630 0.0000
vt 0.0020 0.3558 0.0000
vt 0.0048 0.1294 0.0000
# 110 texture coords

o Cylinder067
g Cylinder067
usemtl wire_177028149
s off
f 1/1/1 2/2/1 3/3/1 4/4/1 
f 2/2/2 5/5/2 6/6/2 3/3/2 
f 5/7/3 7/8/3 8/9/3 6/10/3 
f 7/8/4 9/11/4 10/12/4 8/9/4 
f 9/11/5 11/13/5 12/14/5 10/12/5 
f 11/13/6 13/15/6 14/16/6 12/14/6 
f 13/15/7 15/17/7 16/18/7 14/16/7 
f 15/17/8 1/1/8 4/4/8 16/18/8 
f 17/19/9 18/20/9 19/21/9 20/22/9 
f 21/23/10 22/24/10 18/20/10 17/19/10 
f 23/25/11 24/26/11 22/24/11 21/23/11 
f 25/27/12 26/28/12 24/26/12 23/25/12 
f 27/29/13 28/30/13 26/28/13 25/27/13 
f 29/31/14 30/32/14 28/30/14 27/29/14 
f 31/33/15 32/34/15 30/32/15 29/31/15 
f 20/22/16 19/21/16 32/35/16 31/36/16 
f 33/37/17 19/38/17 18/39/17 
f 33/37/18 32/40/18 19/38/18 
f 33/37/17 30/41/17 32/40/17 
f 33/37/17 28/42/17 30/41/17 
f 33/37/17 26/43/17 28/42/17 
f 33/37/18 24/44/18 26/43/18 
f 33/37/18 22/45/18 24/44/18 
f 33/37/18 18/39/18 22/45/18 
f 4/46/19 3/47/19 34/48/19 35/49/19 
f 3/47/20 6/50/20 36/51/20 34/48/20 
f 6/50/19 8/52/19 37/53/19 36/51/19 
f 8/52/20 10/54/20 38/55/20 37/53/20 
f 10/54/19 12/56/19 39/57/19 38/55/19 
f 12/56/20 14/58/20 40/59/20 39/57/20 
f 14/58/19 16/60/19 41/61/19 40/59/19 
f 16/60/20 4/46/20 35/49/20 41/61/20 
f 20/22/21 35/62/21 34/63/21 17/19/21 
f 17/19/22 34/63/22 36/64/22 21/23/22 
f 21/23/23 36/64/23 37/65/23 23/25/23 
f 23/25/24 37/65/24 38/66/24 25/27/24 
f 25/27/25 38/66/25 39/67/25 27/29/25 
f 27/29/26 39/67/26 40/68/26 29/31/26 
f 29/31/27 40/68/27 41/69/27 31/33/27 
f 31/36/28 41/70/28 35/62/28 20/22/28 
f 42/71/17 43/72/17 44/73/17 45/74/17 
f 46/75/20 47/76/20 48/77/20 49/78/20 
f 42/71/29 45/74/29 50/79/29 51/80/29 
f 45/74/30 44/73/30 52/81/30 50/82/30 
f 53/83/31 54/84/31 55/85/31 56/86/31 
f 54/84/32 57/87/32 58/88/32 55/89/32 
f 43/72/17 57/87/17 59/90/17 44/73/17 
f 44/73/30 59/90/30 60/91/30 52/81/30 
f 43/72/32 42/71/32 51/92/32 61/93/32 
f 57/87/32 43/72/32 61/93/32 58/88/32 
f 57/87/17 54/84/17 53/83/17 59/90/17 
f 62/94/20 63/95/20 64/96/20 65/97/20 
f 59/90/30 53/83/30 56/98/30 60/91/30 
f 50/79/29 47/76/29 46/75/29 51/80/29 
f 52/81/30 48/99/30 47/100/30 50/82/30 
f 55/85/31 64/96/31 63/95/31 56/86/31 
f 58/88/32 65/101/32 64/102/32 55/89/32 
f 51/92/32 46/103/32 49/104/32 61/93/32 
f 56/98/30 63/105/30 62/106/30 60/91/30 
f 52/107/31 61/108/31 49/78/31 48/77/31 
f 58/109/29 60/110/29 62/94/29 65/97/29 
# 53 polygons - 8 triangles

