# 3ds Max Wavefront OBJ Exporter v0.97b - (c)2007 guruware
# File Created: 26.04.2021 19:01:54

mtllib Mini conveyor belt.mtl

#
# object Box277
#

v  -0.1809 0.2329 0.1845
v  0.1809 0.2329 0.1845
v  0.1809 0.2329 -0.1845
v  -0.1809 0.2329 -0.1845
v  0.2309 0.0525 0.1845
v  0.2309 0.0525 -0.1845
v  0.2309 0.1829 -0.1845
v  0.2309 0.1829 0.1845
v  -0.2309 0.0525 -0.1845
v  -0.2309 0.0525 0.1845
v  -0.2309 0.1829 0.1845
v  -0.2309 0.1829 -0.1845
v  -0.1809 0.0025 0.1845
v  -0.1809 0.0025 -0.1845
v  0.1809 0.0025 -0.1845
v  0.1809 0.0025 0.1845
v  0.1602 0.0525 0.1845
v  -0.1602 0.0525 0.1845
v  0.1809 0.0732 0.1845
v  0.1809 0.1622 0.1845
v  0.1602 0.1829 0.1845
v  -0.1602 0.1829 0.1845
v  -0.1809 0.1622 0.1845
v  -0.1809 0.0732 0.1845
v  0.1602 0.0525 0.1445
v  -0.1602 0.0525 0.1445
v  0.1809 0.0732 0.1445
v  0.1809 0.1622 0.1445
v  0.1602 0.1829 0.1445
v  -0.1602 0.1829 0.1445
v  -0.1809 0.1622 0.1445
v  -0.1809 0.0732 0.1445
v  0.1118 0.1177 0.1445
# 33 vertices

vn -0.2971 0.7173 0.6303
vn 0.2971 0.7173 0.6303
vn 0.3827 0.9239 0.0000
vn -0.3827 0.9239 0.0000
vn 0.7173 -0.2971 0.6303
vn 0.9239 -0.3826 -0.0000
vn 0.9239 0.3827 0.0000
vn 0.7173 0.2971 0.6303
vn -0.9239 -0.3827 -0.0000
vn -0.7173 -0.2971 0.6303
vn -0.7173 0.2971 0.6303
vn -0.9239 0.3827 0.0000
vn -0.3922 -0.3922 0.8321
vn -0.7071 -0.7071 -0.0000
vn 0.7071 -0.7071 -0.0000
vn 0.3922 -0.3922 0.8321
vn -0.2274 0.5491 0.8042
vn 0.2275 0.5491 0.8042
vn -0.5491 0.2274 0.8042
vn -0.5491 -0.2275 0.8042
vn -0.2275 -0.5491 0.8042
vn 0.2275 -0.5491 0.8042
vn 0.5491 -0.2275 0.8042
vn 0.5491 0.2275 0.8042
vn -0.2971 -0.7173 0.6303
vn 0.2971 -0.7173 0.6303
vn -0.0000 0.0000 1.0000
# 27 vertex normals

vt 0.4079 0.3010 0.0000
vt 0.4079 0.6990 0.0000
vt 0.0020 0.6990 0.0000
vt 0.0020 0.3010 0.0000
vt 0.4079 0.9202 0.0000
vt 0.0020 0.9202 0.0000
vt 0.0020 0.7768 0.0000
vt 0.4079 0.7768 0.0000
vt 0.0020 0.0798 0.0000
vt 0.4080 0.0798 0.0000
vt 0.4079 0.2232 0.0000
vt 0.0020 0.2232 0.0000
vt 0.4080 0.0020 0.0000
vt 0.0020 0.0020 0.0000
vt 0.0020 0.9980 0.0000
vt 0.4079 0.9980 0.0000
vt 0.6718 0.0619 0.0000
vt 0.6610 0.4640 0.0000
vt 0.6085 0.4445 0.0000
vt 0.6148 0.0762 0.0000
vt 0.6192 0.5202 0.0000
vt 0.5933 0.4753 0.0000
vt 0.4791 0.5229 0.0000
vt 0.5003 0.4628 0.0000
vt 0.4206 0.4769 0.0000
vt 0.4738 0.4506 0.0000
vt 0.4146 0.0563 0.0000
vt 0.4709 0.0826 0.0000
vt 0.4791 0.0020 0.0000
vt 0.4972 0.0639 0.0000
vt 0.6240 0.0025 0.0000
vt 0.6000 0.0523 0.0000
vt 0.5655 0.4334 0.0000
vt 0.5757 0.0850 0.0000
vt 0.5574 0.4610 0.0000
vt 0.5173 0.4226 0.0000
vt 0.5997 0.4404 0.0000
vt 0.4887 0.4142 0.0000
vt 0.5168 0.0823 0.0000
vt 0.5197 0.4502 0.0000
vt 0.5107 0.1067 0.0000
vt 0.4864 0.1166 0.0000
vt 0.6053 0.0948 0.0000
vt 0.5692 0.0630 0.0000
vt 0.4295 0.9659 0.0000
vt 0.4146 0.6138 0.0000
vt 0.4885 0.6639 0.0000
vt 0.4364 0.5901 0.0000
vt 0.5342 0.5859 0.0000
vt 0.5579 0.6077 0.0000
vt 0.5728 0.9599 0.0000
vt 0.5510 0.9836 0.0000
vt 0.4533 0.9877 0.0000
# 53 texture coords

o Box277
g Box277
usemtl wire_214229166
s 1
f 1/1/1 2/2/2 3/3/3 4/4/4 
f 5/5/5 6/6/6 7/7/7 8/8/8 
f 9/9/9 10/10/10 11/11/11 12/12/12 
s 4
f 13/13/13 10/10/10 9/9/9 14/14/14 
f 15/15/15 6/6/6 5/5/5 16/16/16 
f 2/2/2 8/8/8 7/7/7 3/3/3 
f 4/4/4 12/12/12 11/11/11 1/1/1 
s off
f 13/17/13 16/18/16 17/19/17 18/20/18 
f 16/18/16 5/21/5 19/22/19 17/19/17 
f 5/21/5 8/23/8 20/24/20 19/22/19 
f 8/23/8 2/25/2 21/26/21 20/24/20 
f 2/25/2 1/27/1 22/28/22 21/26/21 
f 1/27/1 11/29/11 23/30/23 22/28/22 
f 11/29/11 10/31/10 24/32/24 23/30/23 
f 10/31/10 13/17/13 18/20/18 24/32/24 
f 18/20/18 17/19/17 25/33/1 26/34/2 
f 17/19/17 19/22/19 27/35/11 25/33/1 
f 19/22/19 20/24/20 28/36/10 27/37/11 
f 20/24/20 21/26/21 29/38/25 28/36/10 
f 21/26/21 22/28/22 30/39/26 29/40/25 
f 22/28/22 23/30/23 31/41/5 30/42/26 
f 23/30/23 24/32/24 32/43/8 31/41/5 
f 24/32/24 18/20/18 26/34/2 32/44/8 
f 26/45/2 25/46/1 33/47/27 
f 25/46/1 27/48/11 33/47/27 
f 27/48/11 28/49/10 33/47/27 
f 28/49/10 29/50/25 33/47/27 
f 29/50/25 30/51/26 33/47/27 
f 30/51/26 31/52/5 33/47/27 
f 31/52/5 32/53/8 33/47/27 
f 32/53/8 26/45/2 33/47/27 
# 23 polygons - 8 triangles

