# 3ds Max Wavefront OBJ Exporter v0.97b - (c)2007 guruware
# File Created: 26.04.2021 23:38:38

mtllib PlatformFactory.mtl

#
# object Box037
#

v  -0.8935 0.0039 -0.0000
v  -0.8935 0.1083 -0.0000
v  0.8935 0.1083 0.0000
v  0.8935 0.0039 0.0000
v  -0.8935 0.0039 0.6414
v  0.8935 0.0039 0.6414
v  0.8935 0.1083 0.6414
v  -0.8935 0.1083 0.6414
# 8 vertices

vn 0.0000 0.0000 -1.0000
vn -0.0000 0.0000 1.0000
vn 0.0000 -1.0000 -0.0000
vn 1.0000 -0.0000 0.0000
vn -0.0000 1.0000 0.0000
vn -1.0000 0.0000 -0.0000
# 6 vertex normals

vt 0.0211 0.5516 0.0000
vt 0.0200 0.5190 0.0000
vt 0.5783 0.4993 0.0000
vt 0.5795 0.5319 0.0000
vt 0.2202 0.2527 0.0000
vt 0.7779 0.2202 0.0000
vt 0.7798 0.2527 0.0000
vt 0.2221 0.2853 0.0000
vt 0.2085 0.0526 0.0000
vt 0.7662 0.0200 0.0000
vt 0.9781 0.2085 0.0000
vt 0.9800 0.2411 0.0000
vt 0.7915 0.4529 0.0000
vt 0.2338 0.4855 0.0000
vt 0.0219 0.2970 0.0000
vt 0.0200 0.2644 0.0000
# 16 texture coords

o Box037
g Box037
usemtl wire_135006006
s off
f 1/1/1 2/2/1 3/3/1 4/4/1 
f 5/5/2 6/6/2 7/7/2 8/8/2 
f 1/9/3 4/10/3 6/6/3 5/5/3 
f 4/11/4 3/12/4 7/7/4 6/6/4 
f 3/13/5 2/14/5 8/8/5 7/7/5 
f 2/15/6 1/16/6 5/5/6 8/8/6 
# 6 polygons

