# 3ds Max Wavefront OBJ Exporter v0.97b - (c)2007 guruware
# File Created: 26.04.2021 20:57:47

mtllib case_Medium.mtl

#
# object Box284
#

v  -0.1000 -0.0000 0.1000
v  -0.1000 0.0000 -0.1000
v  0.1000 0.0000 -0.1000
v  0.1000 -0.0000 0.1000
v  -0.1000 0.2000 0.1000
v  0.1000 0.2000 0.1000
v  0.1000 0.2000 -0.1000
v  -0.1000 0.2000 -0.1000
# 8 vertices

vn 0.0000 -1.0000 -0.0000
vn 0.0000 1.0000 -0.0000
vn 0.0000 0.0000 1.0000
vn 1.0000 0.0000 -0.0000
vn 0.0000 0.0000 -1.0000
vn -1.0000 0.0000 -0.0000
# 6 vertex normals

vt 0.4980 0.2533 0.0000
vt 0.7470 0.2533 0.0000
vt 0.7470 0.5023 0.0000
vt 0.4980 0.5023 0.0000
vt 0.2490 0.2533 0.0000
vt 0.2490 0.5023 0.0000
vt 0.0000 0.5023 0.0000
vt 0.0000 0.2533 0.0000
vt 0.4980 0.7513 0.0000
vt 0.2490 0.7513 0.0000
vt 0.4980 1.0003 0.0000
vt 0.2490 1.0003 0.0000
vt 0.4980 0.0043 0.0000
vt 0.2490 0.0043 0.0000
# 14 texture coords

o Box284
g Box284
usemtl wire_006135058
s off
f 1/1/1 2/2/1 3/3/1 4/4/1 
f 5/5/2 6/6/2 7/7/2 8/8/2 
f 1/1/3 4/4/3 6/6/3 5/5/3 
f 4/4/4 3/9/4 7/10/4 6/6/4 
f 3/9/5 2/11/5 8/12/5 7/10/5 
f 2/13/6 1/1/6 5/5/6 8/14/6 
# 6 polygons

