# 3ds Max Wavefront OBJ Exporter v0.97b - (c)2007 guruware
# File Created: 26.04.2021 19:17:42

mtllib case_Small.mtl

#
# object Box286
#

v  -0.0500 -0.0000 0.0500
v  -0.0500 0.0000 -0.0500
v  0.0500 0.0000 -0.0500
v  0.0500 -0.0000 0.0500
v  -0.0500 0.1000 0.0500
v  0.0500 0.1000 0.0500
v  0.0500 0.1000 -0.0500
v  -0.0500 0.1000 -0.0500
# 8 vertices

vn -0.5774 -0.5774 0.5774
vn -0.5774 -0.5774 -0.5774
vn 0.5774 -0.5774 -0.5774
vn 0.5774 -0.5774 0.5774
vn -0.5774 0.5774 0.5774
vn 0.5774 0.5774 0.5774
vn 0.5774 0.5774 -0.5774
vn -0.5774 0.5774 -0.5774
# 8 vertex normals

vt 0.2510 0.2510 0.0000
vt 0.2510 0.0020 0.0000
vt 0.5000 0.0020 0.0000
vt 0.5000 0.2510 0.0000
vt 0.2510 0.5000 0.0000
vt 0.5000 0.5000 0.0000
vt 0.5000 0.7490 0.0000
vt 0.2510 0.7490 0.0000
vt 0.7490 0.2510 0.0000
vt 0.7490 0.5000 0.0000
vt 0.9980 0.2510 0.0000
vt 0.9980 0.5000 0.0000
vt 0.0020 0.2510 0.0000
vt 0.0020 0.5000 0.0000
# 14 texture coords

o Box286
g Box286
usemtl wire_028089177
s 2
f 1/1/1 2/2/2 3/3/3 4/4/4 
s 4
f 5/5/5 6/6/6 7/7/7 8/8/8 
s 8
f 1/1/1 4/4/4 6/6/6 5/5/5 
s 16
f 4/4/4 3/9/3 7/10/7 6/6/6 
s 32
f 3/9/3 2/11/2 8/12/8 7/10/7 
s 64
f 2/13/2 1/1/1 5/5/5 8/14/8 
# 6 polygons

