# 3ds Max Wavefront OBJ Exporter v0.97b - (c)2007 guruware
# File Created: 26.04.2021 20:58:18

mtllib case_Small.mtl

#
# object Box286
#

v  -0.0500 -0.0000 0.0500
v  -0.0500 0.0000 -0.0500
v  0.0500 0.0000 -0.0500
v  0.0500 -0.0000 0.0500
v  -0.0500 0.1000 0.0500
v  0.0500 0.1000 0.0500
v  0.0500 0.1000 -0.0500
v  -0.0500 0.1000 -0.0500
# 8 vertices

vn 0.0000 -1.0000 -0.0000
vn 0.0000 1.0000 -0.0000
vn 0.0000 0.0000 1.0000
vn 1.0000 0.0000 -0.0000
vn 0.0000 0.0000 -1.0000
vn -1.0000 0.0000 -0.0000
# 6 vertex normals

vt 0.2510 0.2510 0.0000
vt 0.2510 0.0020 0.0000
vt 0.5000 0.0020 0.0000
vt 0.5000 0.2510 0.0000
vt 0.2510 0.5000 0.0000
vt 0.5000 0.5000 0.0000
vt 0.5000 0.7490 0.0000
vt 0.2510 0.7490 0.0000
vt 0.7490 0.2510 0.0000
vt 0.7490 0.5000 0.0000
vt 0.9980 0.2510 0.0000
vt 0.9980 0.5000 0.0000
vt 0.0020 0.2510 0.0000
vt 0.0020 0.5000 0.0000
# 14 texture coords

o Box286
g Box286
usemtl wire_028089177
s off
f 1/1/1 2/2/1 3/3/1 4/4/1 
f 5/5/2 6/6/2 7/7/2 8/8/2 
f 1/1/3 4/4/3 6/6/3 5/5/3 
f 4/4/4 3/9/4 7/10/4 6/6/4 
f 3/9/5 2/11/5 8/12/5 7/10/5 
f 2/13/6 1/1/6 5/5/6 8/14/6 
# 6 polygons

