# 3ds Max Wavefront OBJ Exporter v0.97b - (c)2007 guruware
# File Created: 26.04.2021 20:33:46

mtllib shelf_Big.mtl

#
# object Object019
#

v  0.0911 1.8368 0.3954
v  0.1411 1.8368 0.3954
v  0.1411 1.8368 0.3454
v  0.0911 1.8368 0.3454
v  0.0911 0.0008 0.3954
v  0.1411 0.0008 0.3954
v  0.1411 0.0008 0.3454
v  0.0911 0.0008 0.3454
v  0.0911 1.8368 -0.2795
v  0.1411 1.8368 -0.2795
v  0.1411 1.8368 -0.3295
v  0.0911 1.8368 -0.3295
v  0.0911 0.0008 -0.2795
v  0.1411 0.0008 -0.2795
v  0.1411 0.0008 -0.3295
v  0.0911 0.0008 -0.3295
v  -0.1411 1.8368 -0.2795
v  -0.0911 1.8368 -0.2795
v  -0.0911 1.8368 -0.3295
v  -0.1411 1.8368 -0.3295
v  -0.1411 0.0008 -0.2795
v  -0.0911 0.0008 -0.2795
v  -0.0911 0.0008 -0.3295
v  -0.1411 0.0008 -0.3295
v  -0.1411 1.8368 0.3954
v  -0.0911 1.8368 0.3954
v  -0.0911 1.8368 0.3454
v  -0.1411 1.8368 0.3454
v  -0.1411 0.0008 0.3954
v  -0.0911 0.0008 0.3954
v  -0.0911 0.0008 0.3454
v  -0.1411 0.0008 0.3454
v  -0.1006 1.5723 0.4400
v  -0.1006 1.5723 -0.4400
v  0.0994 1.5723 -0.4400
v  0.0994 1.5723 0.4400
v  -0.1006 1.6223 0.4400
v  0.0994 1.6223 0.4400
v  0.0994 1.6223 -0.4400
v  -0.1006 1.6223 -0.4400
v  -0.1006 1.3209 0.4400
v  -0.1006 1.3209 -0.4400
v  0.0994 1.3209 -0.4400
v  0.0994 1.3209 0.4400
v  -0.1006 1.3709 0.4400
v  0.0994 1.3709 0.4400
v  0.0994 1.3709 -0.4400
v  -0.1006 1.3709 -0.4400
v  -0.1006 1.0776 0.4400
v  -0.1006 1.0776 -0.4400
v  0.0994 1.0776 -0.4400
v  0.0994 1.0776 0.4400
v  -0.1006 1.1276 0.4400
v  0.0994 1.1276 0.4400
v  0.0994 1.1276 -0.4400
v  -0.1006 1.1276 -0.4400
v  -0.1006 0.8236 0.4400
v  -0.1006 0.8236 -0.4400
v  0.0994 0.8236 -0.4400
v  0.0994 0.8236 0.4400
v  -0.1006 0.8736 0.4400
v  0.0994 0.8736 0.4400
v  0.0994 0.8736 -0.4400
v  -0.1006 0.8736 -0.4400
v  -0.1006 0.5967 0.4400
v  -0.1006 0.5967 -0.4400
v  0.0994 0.5967 -0.4400
v  0.0994 0.5967 0.4400
v  -0.1006 0.6467 0.4400
v  0.0994 0.6467 0.4400
v  0.0994 0.6467 -0.4400
v  -0.1006 0.6467 -0.4400
v  -0.1006 0.3533 0.4400
v  -0.1006 0.3533 -0.4400
v  0.0994 0.3533 -0.4400
v  0.0994 0.3533 0.4400
v  -0.1006 0.4033 0.4400
v  0.0994 0.4033 0.4400
v  0.0994 0.4033 -0.4400
v  -0.1006 0.4033 -0.4400
v  -0.1006 0.0993 0.4400
v  -0.1006 0.0993 -0.4400
v  0.0994 0.0993 -0.4400
v  0.0994 0.0993 0.4400
v  -0.1006 0.1493 0.4400
v  0.0994 0.1493 0.4400
v  0.0994 0.1493 -0.4400
v  -0.1006 0.1493 -0.4400
# 88 vertices

vn -0.0000 1.0000 -0.0000
vn 0.0000 0.0000 1.0000
vn 1.0000 0.0000 -0.0000
vn 0.0000 0.0000 -1.0000
vn -1.0000 -0.0000 -0.0000
vn 0.0000 -1.0000 -0.0000
vn 0.0000 1.0000 -0.0000
# 7 vertex normals

vt 0.8754 0.0020 0.0000
vt 0.8754 0.0207 0.0000
vt 0.8567 0.0207 0.0000
vt 0.8567 0.0020 0.0000
vt 0.2848 0.0020 0.0000
vt 0.3035 0.0020 0.0000
vt 0.3035 0.6893 0.0000
vt 0.2848 0.6893 0.0000
vt 0.3222 0.0020 0.0000
vt 0.3222 0.6893 0.0000
vt 0.2474 0.0020 0.0000
vt 0.2661 0.0020 0.0000
vt 0.2661 0.6893 0.0000
vt 0.2474 0.6893 0.0000
vt 0.8468 0.0020 0.0000
vt 0.8468 0.0207 0.0000
vt 0.8281 0.0207 0.0000
vt 0.8281 0.0020 0.0000
vt 0.2030 0.0020 0.0000
vt 0.2217 0.0020 0.0000
vt 0.2217 0.6893 0.0000
vt 0.2030 0.6893 0.0000
vt 0.2404 0.0020 0.0000
vt 0.2404 0.6893 0.0000
vt 0.1656 0.0020 0.0000
vt 0.1843 0.0020 0.0000
vt 0.1843 0.6893 0.0000
vt 0.1656 0.6893 0.0000
vt 0.8468 0.0511 0.0000
vt 0.8468 0.0698 0.0000
vt 0.8281 0.0698 0.0000
vt 0.8281 0.0511 0.0000
vt 0.1212 0.0020 0.0000
vt 0.1399 0.0020 0.0000
vt 0.1399 0.6893 0.0000
vt 0.1212 0.6893 0.0000
vt 0.1587 0.0020 0.0000
vt 0.1587 0.6893 0.0000
vt 0.0838 0.0020 0.0000
vt 0.1025 0.0020 0.0000
vt 0.1025 0.6893 0.0000
vt 0.0838 0.6893 0.0000
vt 0.8468 0.0265 0.0000
vt 0.8468 0.0453 0.0000
vt 0.8281 0.0453 0.0000
vt 0.8281 0.0265 0.0000
vt 0.0394 0.0020 0.0000
vt 0.0582 0.0020 0.0000
vt 0.0582 0.6893 0.0000
vt 0.0394 0.6893 0.0000
vt 0.0769 0.0020 0.0000
vt 0.0769 0.6893 0.0000
vt 0.0020 0.0020 0.0000
vt 0.0207 0.0020 0.0000
vt 0.0207 0.6893 0.0000
vt 0.0020 0.6893 0.0000
vt 0.6627 0.4853 0.0000
vt 0.3333 0.4853 0.0000
vt 0.3333 0.4105 0.0000
vt 0.6627 0.4105 0.0000
vt 0.6627 0.3169 0.0000
vt 0.6627 0.3918 0.0000
vt 0.3333 0.3918 0.0000
vt 0.3333 0.3169 0.0000
vt 0.6567 0.1247 0.0000
vt 0.8184 0.1247 0.0000
vt 0.8184 0.1414 0.0000
vt 0.6567 0.1414 0.0000
vt 0.3333 0.1247 0.0000
vt 0.4760 0.1247 0.0000
vt 0.4760 0.1414 0.0000
vt 0.3333 0.1414 0.0000
vt 0.9980 0.3218 0.0000
vt 0.6686 0.3218 0.0000
vt 0.6686 0.2469 0.0000
vt 0.9980 0.2469 0.0000
vt 0.9980 0.1533 0.0000
vt 0.9980 0.2282 0.0000
vt 0.6686 0.2282 0.0000
vt 0.6686 0.1533 0.0000
vt 0.6567 0.1042 0.0000
vt 0.8184 0.1042 0.0000
vt 0.8184 0.1210 0.0000
vt 0.6567 0.1210 0.0000
vt 0.3333 0.1042 0.0000
vt 0.4760 0.1042 0.0000
vt 0.4760 0.1210 0.0000
vt 0.3333 0.1210 0.0000
vt 0.9980 0.5017 0.0000
vt 0.6686 0.5017 0.0000
vt 0.6686 0.4268 0.0000
vt 0.9980 0.4268 0.0000
vt 0.9980 0.3333 0.0000
vt 0.9980 0.4081 0.0000
vt 0.6686 0.4081 0.0000
vt 0.6686 0.3333 0.0000
vt 0.6567 0.0429 0.0000
vt 0.8184 0.0429 0.0000
vt 0.8184 0.0596 0.0000
vt 0.6567 0.0596 0.0000
vt 0.3333 0.0429 0.0000
vt 0.4760 0.0429 0.0000
vt 0.4760 0.0596 0.0000
vt 0.3333 0.0596 0.0000
vt 0.6627 0.6571 0.0000
vt 0.3333 0.6571 0.0000
vt 0.3333 0.5822 0.0000
vt 0.6627 0.5822 0.0000
vt 0.6627 0.4887 0.0000
vt 0.6627 0.5635 0.0000
vt 0.3333 0.5635 0.0000
vt 0.3333 0.4887 0.0000
vt 0.6567 0.0838 0.0000
vt 0.8184 0.0838 0.0000
vt 0.8184 0.1005 0.0000
vt 0.6567 0.1005 0.0000
vt 0.3333 0.0838 0.0000
vt 0.4760 0.0838 0.0000
vt 0.4760 0.1005 0.0000
vt 0.3333 0.1005 0.0000
vt 0.6667 0.8370 0.0000
vt 0.3373 0.8370 0.0000
vt 0.3373 0.7622 0.0000
vt 0.6667 0.7622 0.0000
vt 0.6667 0.6686 0.0000
vt 0.6667 0.7435 0.0000
vt 0.3373 0.7435 0.0000
vt 0.3373 0.6686 0.0000
vt 0.6567 0.0633 0.0000
vt 0.8184 0.0633 0.0000
vt 0.8184 0.0801 0.0000
vt 0.6567 0.0801 0.0000
vt 0.3333 0.0633 0.0000
vt 0.4760 0.0633 0.0000
vt 0.4760 0.0801 0.0000
vt 0.3333 0.0801 0.0000
vt 0.6627 0.3136 0.0000
vt 0.3333 0.3136 0.0000
vt 0.3333 0.2387 0.0000
vt 0.6627 0.2387 0.0000
vt 0.6627 0.1451 0.0000
vt 0.6627 0.2200 0.0000
vt 0.3333 0.2200 0.0000
vt 0.3333 0.1451 0.0000
vt 0.6567 0.0224 0.0000
vt 0.8184 0.0224 0.0000
vt 0.8184 0.0392 0.0000
vt 0.6567 0.0392 0.0000
vt 0.3333 0.0224 0.0000
vt 0.4760 0.0224 0.0000
vt 0.4760 0.0392 0.0000
vt 0.3333 0.0392 0.0000
vt 0.9988 0.6747 0.0000
vt 0.6693 0.6747 0.0000
vt 0.6693 0.5999 0.0000
vt 0.9988 0.5999 0.0000
vt 0.9988 0.5063 0.0000
vt 0.9988 0.5812 0.0000
vt 0.6693 0.5812 0.0000
vt 0.6693 0.5063 0.0000
vt 0.6526 0.0020 0.0000
vt 0.8143 0.0020 0.0000
vt 0.8143 0.0187 0.0000
vt 0.6526 0.0187 0.0000
vt 0.3292 0.0020 0.0000
vt 0.4719 0.0020 0.0000
vt 0.4719 0.0187 0.0000
vt 0.3292 0.0187 0.0000
# 168 texture coords

o Object019
g Object019
usemtl wire_166229229
s off
f 1/1/1 2/2/1 3/3/1 4/4/1 
f 5/5/2 6/6/2 2/7/2 1/8/2 
f 6/6/3 7/9/3 3/10/3 2/7/3 
f 7/11/4 8/12/4 4/13/4 3/14/4 
f 8/12/5 5/5/5 1/8/5 4/13/5 
f 9/15/1 10/16/1 11/17/1 12/18/1 
f 13/19/2 14/20/2 10/21/2 9/22/2 
f 14/20/3 15/23/3 11/24/3 10/21/3 
f 15/25/4 16/26/4 12/27/4 11/28/4 
f 16/26/5 13/19/5 9/22/5 12/27/5 
f 17/29/1 18/30/1 19/31/1 20/32/1 
f 21/33/2 22/34/2 18/35/2 17/36/2 
f 22/34/3 23/37/3 19/38/3 18/35/3 
f 23/39/4 24/40/4 20/41/4 19/42/4 
f 24/40/5 21/33/5 17/36/5 20/41/5 
f 25/43/1 26/44/1 27/45/1 28/46/1 
f 29/47/2 30/48/2 26/49/2 25/50/2 
f 30/48/3 31/51/3 27/52/3 26/49/3 
f 31/53/4 32/54/4 28/55/4 27/56/4 
f 32/54/5 29/47/5 25/50/5 28/55/5 
f 33/57/6 34/58/6 35/59/6 36/60/6 
f 37/61/1 38/62/1 39/63/1 40/64/1 
f 33/65/2 36/66/2 38/67/2 37/68/2 
f 36/60/3 35/59/3 39/63/3 38/62/3 
f 35/69/4 34/70/4 40/71/4 39/72/4 
f 34/70/5 33/65/5 37/68/5 40/71/5 
f 41/73/6 42/74/6 43/75/6 44/76/6 
f 45/77/1 46/78/1 47/79/1 48/80/1 
f 41/81/2 44/82/2 46/83/2 45/84/2 
f 44/76/3 43/75/3 47/79/3 46/78/3 
f 43/85/4 42/86/4 48/87/4 47/88/4 
f 42/86/5 41/81/5 45/84/5 48/87/5 
f 49/89/6 50/90/6 51/91/6 52/92/6 
f 53/93/1 54/94/1 55/95/1 56/96/1 
f 49/97/2 52/98/2 54/99/2 53/100/2 
f 52/92/3 51/91/3 55/95/3 54/94/3 
f 51/101/4 50/102/4 56/103/4 55/104/4 
f 50/102/5 49/97/5 53/100/5 56/103/5 
f 57/105/6 58/106/6 59/107/6 60/108/6 
f 61/109/1 62/110/1 63/111/1 64/112/1 
f 57/113/2 60/114/2 62/115/2 61/116/2 
f 60/108/3 59/107/3 63/111/3 62/110/3 
f 59/117/4 58/118/4 64/119/4 63/120/4 
f 58/118/5 57/113/5 61/116/5 64/119/5 
f 65/121/6 66/122/6 67/123/6 68/124/6 
f 69/125/1 70/126/1 71/127/1 72/128/1 
f 65/129/2 68/130/2 70/131/2 69/132/2 
f 68/124/3 67/123/3 71/127/3 70/126/3 
f 67/133/4 66/134/4 72/135/4 71/136/4 
f 66/134/5 65/129/5 69/132/5 72/135/5 
f 73/137/6 74/138/6 75/139/6 76/140/6 
f 77/141/7 78/142/7 79/143/7 80/144/7 
f 73/145/2 76/146/2 78/147/2 77/148/2 
f 76/140/3 75/139/3 79/143/3 78/142/3 
f 75/149/4 74/150/4 80/151/4 79/152/4 
f 74/150/5 73/145/5 77/148/5 80/151/5 
f 81/153/6 82/154/6 83/155/6 84/156/6 
f 85/157/7 86/158/7 87/159/7 88/160/7 
f 81/161/2 84/162/2 86/163/2 85/164/2 
f 84/156/3 83/155/3 87/159/3 86/158/3 
f 83/165/4 82/166/4 88/167/4 87/168/4 
f 82/166/5 81/161/5 85/164/5 88/167/5 
# 62 polygons

