# 3ds Max Wavefront OBJ Exporter v0.97b - (c)2007 guruware
# File Created: 26.04.2021 20:33:23

mtllib shelf.mtl

#
# object Object018
#

v  0.0155 0.5959 0.0696
v  0.0155 0.5959 -0.8104
v  0.2155 0.5959 -0.8104
v  0.2155 0.5959 0.0696
v  0.0155 0.6459 0.0696
v  0.2155 0.6459 0.0696
v  0.2155 0.6459 -0.8104
v  0.0155 0.6459 -0.8104
v  0.0155 0.3525 0.0696
v  0.0155 0.3525 -0.8104
v  0.2155 0.3525 -0.8104
v  0.2155 0.3525 0.0696
v  0.0155 0.4025 0.0696
v  0.2155 0.4025 0.0696
v  0.2155 0.4025 -0.8104
v  0.0155 0.4025 -0.8104
v  0.0155 0.0985 0.0696
v  0.0155 0.0985 -0.8104
v  0.2155 0.0985 -0.8104
v  0.2155 0.0985 0.0696
v  0.0155 0.1485 0.0696
v  0.2155 0.1485 0.0696
v  0.2155 0.1485 -0.8104
v  0.0155 0.1485 -0.8104
v  -0.0250 0.7439 0.0250
v  0.0250 0.7439 0.0250
v  0.0250 0.7439 -0.0250
v  -0.0250 0.7439 -0.0250
v  -0.0250 -0.0000 0.0250
v  0.0250 0.0000 0.0250
v  0.0250 0.0000 -0.0250
v  -0.0250 -0.0000 -0.0250
v  0.2072 0.7439 -0.6500
v  0.2572 0.7439 -0.6500
v  0.2572 0.7439 -0.7000
v  0.2072 0.7439 -0.7000
v  0.2072 0.0000 -0.6500
v  0.2572 0.0000 -0.6500
v  0.2572 0.0000 -0.7000
v  0.2072 0.0000 -0.7000
v  -0.0250 0.7439 -0.6500
v  0.0250 0.7439 -0.6500
v  0.0250 0.7439 -0.7000
v  -0.0250 0.7439 -0.7000
v  -0.0250 -0.0000 -0.6500
v  0.0250 0.0000 -0.6500
v  0.0250 0.0000 -0.7000
v  -0.0250 -0.0000 -0.7000
v  0.2072 0.7439 0.0250
v  0.2572 0.7439 0.0250
v  0.2572 0.7439 -0.0250
v  0.2072 0.7439 -0.0250
v  0.2072 0.0000 0.0250
v  0.2572 0.0000 0.0250
v  0.2572 0.0000 -0.0250
v  0.2072 0.0000 -0.0250
# 56 vertices

vn 0.0000 -1.0000 -0.0000
vn -0.0000 1.0000 -0.0000
vn 0.0000 0.0000 1.0000
vn 1.0000 0.0000 -0.0000
vn 0.0000 0.0000 -1.0000
vn -1.0000 -0.0000 -0.0000
vn 0.0000 1.0000 -0.0000
# 7 vertex normals

vt 0.1194 0.0020 0.0000
vt 0.6993 0.0020 0.0000
vt 0.6993 0.1338 0.0000
vt 0.1194 0.1338 0.0000
vt 0.1194 0.2985 0.0000
vt 0.1194 0.1667 0.0000
vt 0.6993 0.1667 0.0000
vt 0.6993 0.2985 0.0000
vt 0.0353 0.7184 0.0000
vt 0.0349 0.8502 0.0000
vt 0.0020 0.8501 0.0000
vt 0.0023 0.7184 0.0000
vt 0.0371 0.0068 0.0000
vt 0.0368 0.1386 0.0000
vt 0.0038 0.1385 0.0000
vt 0.0042 0.0067 0.0000
vt 0.1241 0.6032 0.0000
vt 0.7040 0.6032 0.0000
vt 0.7040 0.7350 0.0000
vt 0.1241 0.7350 0.0000
vt 0.1241 0.8997 0.0000
vt 0.1241 0.7679 0.0000
vt 0.7040 0.7679 0.0000
vt 0.7040 0.8997 0.0000
vt 0.0414 0.1385 0.0000
vt 0.0417 0.0067 0.0000
vt 0.0747 0.0068 0.0000
vt 0.0743 0.1386 0.0000
vt 0.0396 0.8501 0.0000
vt 0.0399 0.7184 0.0000
vt 0.0729 0.7184 0.0000
vt 0.0725 0.8502 0.0000
vt 0.7040 0.5991 0.0000
vt 0.1241 0.5991 0.0000
vt 0.1241 0.4673 0.0000
vt 0.7040 0.4673 0.0000
vt 0.7040 0.3026 0.0000
vt 0.7040 0.4344 0.0000
vt 0.1241 0.4344 0.0000
vt 0.1241 0.3026 0.0000
vt 0.1104 0.7184 0.0000
vt 0.1101 0.8502 0.0000
vt 0.0771 0.8501 0.0000
vt 0.0775 0.7183 0.0000
vt 0.1123 0.0068 0.0000
vt 0.1119 0.1386 0.0000
vt 0.0790 0.1385 0.0000
vt 0.0793 0.0067 0.0000
vt 0.0067 0.8991 0.0000
vt 0.0396 0.8991 0.0000
vt 0.0396 0.9320 0.0000
vt 0.0067 0.9320 0.0000
vt 0.7799 0.4970 0.0000
vt 0.8129 0.4970 0.0000
vt 0.8129 0.9872 0.0000
vt 0.7799 0.9872 0.0000
vt 0.8458 0.4970 0.0000
vt 0.8458 0.9872 0.0000
vt 0.7140 0.4970 0.0000
vt 0.7470 0.4970 0.0000
vt 0.7470 0.9872 0.0000
vt 0.7140 0.9872 0.0000
vt 0.0067 0.8615 0.0000
vt 0.0396 0.8615 0.0000
vt 0.0396 0.8945 0.0000
vt 0.0067 0.8945 0.0000
vt 0.7771 0.0020 0.0000
vt 0.8101 0.0020 0.0000
vt 0.8101 0.4922 0.0000
vt 0.7771 0.4922 0.0000
vt 0.8430 0.0020 0.0000
vt 0.8430 0.4922 0.0000
vt 0.7112 0.0020 0.0000
vt 0.7442 0.0020 0.0000
vt 0.7442 0.4922 0.0000
vt 0.7112 0.4922 0.0000
vt 0.0443 0.8615 0.0000
vt 0.0772 0.8615 0.0000
vt 0.0772 0.8945 0.0000
vt 0.0443 0.8945 0.0000
vt 0.9133 0.0020 0.0000
vt 0.9463 0.0020 0.0000
vt 0.9463 0.4922 0.0000
vt 0.9133 0.4922 0.0000
vt 0.9792 0.0020 0.0000
vt 0.9792 0.4922 0.0000
vt 0.8474 0.0020 0.0000
vt 0.8804 0.0020 0.0000
vt 0.8804 0.4922 0.0000
vt 0.8474 0.4922 0.0000
vt 0.0818 0.8615 0.0000
vt 0.1148 0.8615 0.0000
vt 0.1148 0.8945 0.0000
vt 0.0818 0.8945 0.0000
vt 0.9171 0.4961 0.0000
vt 0.9500 0.4961 0.0000
vt 0.9500 0.9863 0.0000
vt 0.9171 0.9863 0.0000
vt 0.9830 0.4961 0.0000
vt 0.9830 0.9863 0.0000
vt 0.8512 0.4961 0.0000
vt 0.8842 0.4961 0.0000
vt 0.8841 0.9863 0.0000
vt 0.8512 0.9863 0.0000
# 104 texture coords

o Object018
g Object018
usemtl wire_153228214
s off
f 1/1/1 2/2/1 3/3/1 4/4/1 
f 5/5/2 6/6/2 7/7/2 8/8/2 
f 1/9/3 4/10/3 6/11/3 5/12/3 
f 4/4/4 3/3/4 7/7/4 6/6/4 
f 3/13/5 2/14/5 8/15/5 7/16/5 
f 2/14/6 1/9/6 5/12/6 8/15/6 
f 9/17/1 10/18/1 11/19/1 12/20/1 
f 13/21/2 14/22/2 15/23/2 16/24/2 
f 9/25/3 12/26/3 14/27/3 13/28/3 
f 12/20/4 11/19/4 15/23/4 14/22/4 
f 11/29/5 10/30/5 16/31/5 15/32/5 
f 10/30/6 9/25/6 13/28/6 16/31/6 
f 17/33/1 18/34/1 19/35/1 20/36/1 
f 21/37/2 22/38/2 23/39/2 24/40/2 
f 17/41/3 20/42/3 22/43/3 21/44/3 
f 20/36/4 19/35/4 23/39/4 22/38/4 
f 19/45/5 18/46/5 24/47/5 23/48/5 
f 18/46/6 17/41/6 21/44/6 24/47/6 
f 25/49/7 26/50/7 27/51/7 28/52/7 
f 29/53/3 30/54/3 26/55/3 25/56/3 
f 30/54/4 31/57/4 27/58/4 26/55/4 
f 31/59/5 32/60/5 28/61/5 27/62/5 
f 32/60/6 29/53/6 25/56/6 28/61/6 
f 33/63/7 34/64/7 35/65/7 36/66/7 
f 37/67/3 38/68/3 34/69/3 33/70/3 
f 38/68/4 39/71/4 35/72/4 34/69/4 
f 39/73/5 40/74/5 36/75/5 35/76/5 
f 40/74/6 37/67/6 33/70/6 36/75/6 
f 41/77/7 42/78/7 43/79/7 44/80/7 
f 45/81/3 46/82/3 42/83/3 41/84/3 
f 46/82/4 47/85/4 43/86/4 42/83/4 
f 47/87/5 48/88/5 44/89/5 43/90/5 
f 48/88/6 45/81/6 41/84/6 44/89/6 
f 49/91/7 50/92/7 51/93/7 52/94/7 
f 53/95/3 54/96/3 50/97/3 49/98/3 
f 54/96/4 55/99/4 51/100/4 50/97/4 
f 55/101/5 56/102/5 52/103/5 51/104/5 
f 56/102/6 53/95/6 49/98/6 52/103/6 
# 38 polygons

