# 3ds Max Wavefront OBJ Exporter v0.97b - (c)2007 guruware
# File Created: 26.04.2021 19:32:33

mtllib shelf_Big.mtl

#
# object Object019
#

v  0.0911 1.8368 0.3954
v  0.1411 1.8368 0.3954
v  0.1411 1.8368 0.3454
v  0.0911 1.8368 0.3454
v  0.0911 0.0008 0.3954
v  0.1411 0.0008 0.3954
v  0.1411 0.0008 0.3454
v  0.0911 0.0008 0.3454
v  0.0911 1.8368 -0.2795
v  0.1411 1.8368 -0.2795
v  0.1411 1.8368 -0.3295
v  0.0911 1.8368 -0.3295
v  0.0911 0.0008 -0.2795
v  0.1411 0.0008 -0.2795
v  0.1411 0.0008 -0.3295
v  0.0911 0.0008 -0.3295
v  -0.1411 1.8368 -0.2795
v  -0.0911 1.8368 -0.2795
v  -0.0911 1.8368 -0.3295
v  -0.1411 1.8368 -0.3295
v  -0.1411 0.0008 -0.2795
v  -0.0911 0.0008 -0.2795
v  -0.0911 0.0008 -0.3295
v  -0.1411 0.0008 -0.3295
v  -0.1411 1.8368 0.3954
v  -0.0911 1.8368 0.3954
v  -0.0911 1.8368 0.3454
v  -0.1411 1.8368 0.3454
v  -0.1411 0.0008 0.3954
v  -0.0911 0.0008 0.3954
v  -0.0911 0.0008 0.3454
v  -0.1411 0.0008 0.3454
v  -0.1006 1.5723 0.4400
v  -0.1006 1.5723 -0.4400
v  0.0994 1.5723 -0.4400
v  0.0994 1.5723 0.4400
v  -0.1006 1.6223 0.4400
v  0.0994 1.6223 0.4400
v  0.0994 1.6223 -0.4400
v  -0.1006 1.6223 -0.4400
v  -0.1006 1.3209 0.4400
v  -0.1006 1.3209 -0.4400
v  0.0994 1.3209 -0.4400
v  0.0994 1.3209 0.4400
v  -0.1006 1.3709 0.4400
v  0.0994 1.3709 0.4400
v  0.0994 1.3709 -0.4400
v  -0.1006 1.3709 -0.4400
v  -0.1006 1.0776 0.4400
v  -0.1006 1.0776 -0.4400
v  0.0994 1.0776 -0.4400
v  0.0994 1.0776 0.4400
v  -0.1006 1.1276 0.4400
v  0.0994 1.1276 0.4400
v  0.0994 1.1276 -0.4400
v  -0.1006 1.1276 -0.4400
v  -0.1006 0.8236 0.4400
v  -0.1006 0.8236 -0.4400
v  0.0994 0.8236 -0.4400
v  0.0994 0.8236 0.4400
v  -0.1006 0.8736 0.4400
v  0.0994 0.8736 0.4400
v  0.0994 0.8736 -0.4400
v  -0.1006 0.8736 -0.4400
v  -0.1006 0.5967 0.4400
v  -0.1006 0.5967 -0.4400
v  0.0994 0.5967 -0.4400
v  0.0994 0.5967 0.4400
v  -0.1006 0.6467 0.4400
v  0.0994 0.6467 0.4400
v  0.0994 0.6467 -0.4400
v  -0.1006 0.6467 -0.4400
v  -0.1006 0.3533 0.4400
v  -0.1006 0.3533 -0.4400
v  0.0994 0.3533 -0.4400
v  0.0994 0.3533 0.4400
v  -0.1006 0.4033 0.4400
v  0.0994 0.4033 0.4400
v  0.0994 0.4033 -0.4400
v  -0.1006 0.4033 -0.4400
v  -0.1006 0.0993 0.4400
v  -0.1006 0.0993 -0.4400
v  0.0994 0.0993 -0.4400
v  0.0994 0.0993 0.4400
v  -0.1006 0.1493 0.4400
v  0.0994 0.1493 0.4400
v  0.0994 0.1493 -0.4400
v  -0.1006 0.1493 -0.4400
# 88 vertices

vn -0.5774 0.5773 0.5774
vn 0.5773 0.5774 0.5774
vn 0.5773 0.5774 -0.5774
vn -0.5774 0.5773 -0.5774
vn -0.7071 -0.0000 0.7071
vn 0.7071 0.0000 0.7071
vn 0.7071 0.0000 -0.7071
vn -0.7071 -0.0000 -0.7071
vn -0.5773 -0.5774 0.5774
vn -0.5773 -0.5774 -0.5774
vn 0.5774 -0.5773 -0.5774
vn 0.5774 -0.5773 0.5774
# 12 vertex normals

vt 0.8754 0.0020 0.0000
vt 0.8754 0.0207 0.0000
vt 0.8567 0.0207 0.0000
vt 0.8567 0.0020 0.0000
vt 0.2848 0.0020 0.0000
vt 0.3035 0.0020 0.0000
vt 0.3035 0.6893 0.0000
vt 0.2848 0.6893 0.0000
vt 0.3222 0.0020 0.0000
vt 0.3222 0.6893 0.0000
vt 0.2474 0.0020 0.0000
vt 0.2661 0.0020 0.0000
vt 0.2661 0.6893 0.0000
vt 0.2474 0.6893 0.0000
vt 0.8468 0.0020 0.0000
vt 0.8468 0.0207 0.0000
vt 0.8281 0.0207 0.0000
vt 0.8281 0.0020 0.0000
vt 0.2030 0.0020 0.0000
vt 0.2217 0.0020 0.0000
vt 0.2217 0.6893 0.0000
vt 0.2030 0.6893 0.0000
vt 0.2404 0.0020 0.0000
vt 0.2404 0.6893 0.0000
vt 0.1656 0.0020 0.0000
vt 0.1843 0.0020 0.0000
vt 0.1843 0.6893 0.0000
vt 0.1656 0.6893 0.0000
vt 0.8468 0.0511 0.0000
vt 0.8468 0.0698 0.0000
vt 0.8281 0.0698 0.0000
vt 0.8281 0.0511 0.0000
vt 0.1212 0.0020 0.0000
vt 0.1399 0.0020 0.0000
vt 0.1399 0.6893 0.0000
vt 0.1212 0.6893 0.0000
vt 0.1587 0.0020 0.0000
vt 0.1587 0.6893 0.0000
vt 0.0838 0.0020 0.0000
vt 0.1025 0.0020 0.0000
vt 0.1025 0.6893 0.0000
vt 0.0838 0.6893 0.0000
vt 0.8468 0.0265 0.0000
vt 0.8468 0.0453 0.0000
vt 0.8281 0.0453 0.0000
vt 0.8281 0.0265 0.0000
vt 0.0394 0.0020 0.0000
vt 0.0582 0.0020 0.0000
vt 0.0582 0.6893 0.0000
vt 0.0394 0.6893 0.0000
vt 0.0769 0.0020 0.0000
vt 0.0769 0.6893 0.0000
vt 0.0020 0.0020 0.0000
vt 0.0207 0.0020 0.0000
vt 0.0207 0.6893 0.0000
vt 0.0020 0.6893 0.0000
vt 0.6627 0.4853 0.0000
vt 0.3333 0.4853 0.0000
vt 0.3333 0.4105 0.0000
vt 0.6627 0.4105 0.0000
vt 0.6627 0.3169 0.0000
vt 0.6627 0.3918 0.0000
vt 0.3333 0.3918 0.0000
vt 0.3333 0.3169 0.0000
vt 0.6567 0.1247 0.0000
vt 0.8184 0.1247 0.0000
vt 0.8184 0.1414 0.0000
vt 0.6567 0.1414 0.0000
vt 0.3333 0.1247 0.0000
vt 0.4760 0.1247 0.0000
vt 0.4760 0.1414 0.0000
vt 0.3333 0.1414 0.0000
vt 0.9980 0.3218 0.0000
vt 0.6686 0.3218 0.0000
vt 0.6686 0.2469 0.0000
vt 0.9980 0.2469 0.0000
vt 0.9980 0.1533 0.0000
vt 0.9980 0.2282 0.0000
vt 0.6686 0.2282 0.0000
vt 0.6686 0.1533 0.0000
vt 0.6567 0.1042 0.0000
vt 0.8184 0.1042 0.0000
vt 0.8184 0.1210 0.0000
vt 0.6567 0.1210 0.0000
vt 0.3333 0.1042 0.0000
vt 0.4760 0.1042 0.0000
vt 0.4760 0.1210 0.0000
vt 0.3333 0.1210 0.0000
vt 0.9980 0.5017 0.0000
vt 0.6686 0.5017 0.0000
vt 0.6686 0.4268 0.0000
vt 0.9980 0.4268 0.0000
vt 0.9980 0.3333 0.0000
vt 0.9980 0.4081 0.0000
vt 0.6686 0.4081 0.0000
vt 0.6686 0.3333 0.0000
vt 0.6567 0.0429 0.0000
vt 0.8184 0.0429 0.0000
vt 0.8184 0.0596 0.0000
vt 0.6567 0.0596 0.0000
vt 0.3333 0.0429 0.0000
vt 0.4760 0.0429 0.0000
vt 0.4760 0.0596 0.0000
vt 0.3333 0.0596 0.0000
vt 0.6627 0.6571 0.0000
vt 0.3333 0.6571 0.0000
vt 0.3333 0.5822 0.0000
vt 0.6627 0.5822 0.0000
vt 0.6627 0.4887 0.0000
vt 0.6627 0.5635 0.0000
vt 0.3333 0.5635 0.0000
vt 0.3333 0.4887 0.0000
vt 0.6567 0.0838 0.0000
vt 0.8184 0.0838 0.0000
vt 0.8184 0.1005 0.0000
vt 0.6567 0.1005 0.0000
vt 0.3333 0.0838 0.0000
vt 0.4760 0.0838 0.0000
vt 0.4760 0.1005 0.0000
vt 0.3333 0.1005 0.0000
vt 0.6667 0.8370 0.0000
vt 0.3373 0.8370 0.0000
vt 0.3373 0.7622 0.0000
vt 0.6667 0.7622 0.0000
vt 0.6667 0.6686 0.0000
vt 0.6667 0.7435 0.0000
vt 0.3373 0.7435 0.0000
vt 0.3373 0.6686 0.0000
vt 0.6567 0.0633 0.0000
vt 0.8184 0.0633 0.0000
vt 0.8184 0.0801 0.0000
vt 0.6567 0.0801 0.0000
vt 0.3333 0.0633 0.0000
vt 0.4760 0.0633 0.0000
vt 0.4760 0.0801 0.0000
vt 0.3333 0.0801 0.0000
vt 0.6627 0.3136 0.0000
vt 0.3333 0.3136 0.0000
vt 0.3333 0.2387 0.0000
vt 0.6627 0.2387 0.0000
vt 0.6627 0.1451 0.0000
vt 0.6627 0.2200 0.0000
vt 0.3333 0.2200 0.0000
vt 0.3333 0.1451 0.0000
vt 0.6567 0.0224 0.0000
vt 0.8184 0.0224 0.0000
vt 0.8184 0.0392 0.0000
vt 0.6567 0.0392 0.0000
vt 0.3333 0.0224 0.0000
vt 0.4760 0.0224 0.0000
vt 0.4760 0.0392 0.0000
vt 0.3333 0.0392 0.0000
vt 0.9988 0.6747 0.0000
vt 0.6693 0.6747 0.0000
vt 0.6693 0.5999 0.0000
vt 0.9988 0.5999 0.0000
vt 0.9988 0.5063 0.0000
vt 0.9988 0.5812 0.0000
vt 0.6693 0.5812 0.0000
vt 0.6693 0.5063 0.0000
vt 0.6526 0.0020 0.0000
vt 0.8143 0.0020 0.0000
vt 0.8143 0.0187 0.0000
vt 0.6526 0.0187 0.0000
vt 0.3292 0.0020 0.0000
vt 0.4719 0.0020 0.0000
vt 0.4719 0.0187 0.0000
vt 0.3292 0.0187 0.0000
# 168 texture coords

o Object019
g Object019
usemtl wire_166229229
s 4
f 1/1/1 2/2/2 3/3/3 4/4/4 
s 8
f 5/5/5 6/6/6 2/7/2 1/8/1 
s 16
f 6/6/6 7/9/7 3/10/3 2/7/2 
s 32
f 7/11/7 8/12/8 4/13/4 3/14/3 
s 64
f 8/12/8 5/5/5 1/8/1 4/13/4 
s 4
f 9/15/1 10/16/2 11/17/3 12/18/4 
s 8
f 13/19/5 14/20/6 10/21/2 9/22/1 
s 16
f 14/20/6 15/23/7 11/24/3 10/21/2 
s 32
f 15/25/7 16/26/8 12/27/4 11/28/3 
s 64
f 16/26/8 13/19/5 9/22/1 12/27/4 
s 4
f 17/29/1 18/30/2 19/31/3 20/32/4 
s 8
f 21/33/5 22/34/6 18/35/2 17/36/1 
s 16
f 22/34/6 23/37/7 19/38/3 18/35/2 
s 32
f 23/39/7 24/40/8 20/41/4 19/42/3 
s 64
f 24/40/8 21/33/5 17/36/1 20/41/4 
s 4
f 25/43/1 26/44/2 27/45/3 28/46/4 
s 8
f 29/47/5 30/48/6 26/49/2 25/50/1 
s 16
f 30/48/6 31/51/7 27/52/3 26/49/2 
s 32
f 31/53/7 32/54/8 28/55/4 27/56/3 
s 64
f 32/54/8 29/47/5 25/50/1 28/55/4 
s 2
f 33/57/9 34/58/10 35/59/11 36/60/12 
s 4
f 37/61/1 38/62/2 39/63/3 40/64/4 
s 8
f 33/65/9 36/66/12 38/67/2 37/68/1 
s 16
f 36/60/12 35/59/11 39/63/3 38/62/2 
s 32
f 35/69/11 34/70/10 40/71/4 39/72/3 
s 64
f 34/70/10 33/65/9 37/68/1 40/71/4 
s 2
f 41/73/9 42/74/10 43/75/11 44/76/12 
s 4
f 45/77/1 46/78/2 47/79/3 48/80/4 
s 8
f 41/81/9 44/82/12 46/83/2 45/84/1 
s 16
f 44/76/12 43/75/11 47/79/3 46/78/2 
s 32
f 43/85/11 42/86/10 48/87/4 47/88/3 
s 64
f 42/86/10 41/81/9 45/84/1 48/87/4 
s 2
f 49/89/9 50/90/10 51/91/11 52/92/12 
s 4
f 53/93/1 54/94/2 55/95/3 56/96/4 
s 8
f 49/97/9 52/98/12 54/99/2 53/100/1 
s 16
f 52/92/12 51/91/11 55/95/3 54/94/2 
s 32
f 51/101/11 50/102/10 56/103/4 55/104/3 
s 64
f 50/102/10 49/97/9 53/100/1 56/103/4 
s 2
f 57/105/9 58/106/10 59/107/11 60/108/12 
s 4
f 61/109/1 62/110/2 63/111/3 64/112/4 
s 8
f 57/113/9 60/114/12 62/115/2 61/116/1 
s 16
f 60/108/12 59/107/11 63/111/3 62/110/2 
s 32
f 59/117/11 58/118/10 64/119/4 63/120/3 
s 64
f 58/118/10 57/113/9 61/116/1 64/119/4 
s 2
f 65/121/9 66/122/10 67/123/11 68/124/12 
s 4
f 69/125/1 70/126/2 71/127/3 72/128/4 
s 8
f 65/129/9 68/130/12 70/131/2 69/132/1 
s 16
f 68/124/12 67/123/11 71/127/3 70/126/2 
s 32
f 67/133/11 66/134/10 72/135/4 71/136/3 
s 64
f 66/134/10 65/129/9 69/132/1 72/135/4 
s 2
f 73/137/9 74/138/10 75/139/11 76/140/12 
s 4
f 77/141/1 78/142/2 79/143/3 80/144/4 
s 8
f 73/145/9 76/146/12 78/147/2 77/148/1 
s 16
f 76/140/12 75/139/11 79/143/3 78/142/2 
s 32
f 75/149/11 74/150/10 80/151/4 79/152/3 
s 64
f 74/150/10 73/145/9 77/148/1 80/151/4 
s 2
f 81/153/9 82/154/10 83/155/11 84/156/12 
s 4
f 85/157/1 86/158/2 87/159/3 88/160/4 
s 8
f 81/161/9 84/162/12 86/163/2 85/164/1 
s 16
f 84/156/12 83/155/11 87/159/3 86/158/2 
s 32
f 83/165/11 82/166/10 88/167/4 87/168/3 
s 64
f 82/166/10 81/161/9 85/164/1 88/167/4 
# 62 polygons

