# 3ds Max Wavefront OBJ Exporter v0.97b - (c)2007 guruware
# File Created: 26.04.2021 21:41:52

mtllib 2x1 Room.mtl

#
# object 2x1_Room
#

v  1.0000 0.1015 -1.0000
v  1.0000 0.9015 -1.0000
v  1.0000 0.9015 -0.9000
v  1.0000 0.1015 -0.9000
v  -1.0000 0.9015 -0.9000
v  -1.0000 0.1015 -0.9000
v  -1.0000 0.9015 -1.0000
v  -1.0000 0.1015 -1.0000
v  1.0000 1.0015 -1.0000
v  1.0000 1.0015 1.0000
v  1.0000 0.9015 1.0000
v  -1.0000 1.0015 1.0000
v  -1.0000 0.9015 1.0000
v  -1.0000 1.0015 -1.0000
v  0.9000 0.5594 1.0000
v  1.0000 0.5594 1.0000
v  0.9000 0.9015 1.0000
v  0.9000 0.9015 0.3446
v  0.9000 0.9015 -0.9000
v  0.9000 0.5594 -0.9000
v  0.9000 0.5594 0.3446
v  1.0000 0.9015 0.3446
v  1.0000 0.5594 0.3446
v  1.0000 0.5594 -0.9000
v  0.9000 0.9015 0.6196
v  0.9000 0.5594 0.6196
v  1.0000 0.5594 0.6196
v  1.0000 0.9015 0.6196
v  1.0000 0.1015 1.0000
v  0.9000 0.1015 1.0000
v  0.9000 0.1015 0.3446
v  0.9000 0.1015 -0.9000
v  1.0000 0.1015 0.3446
v  0.9000 0.1015 0.6196
v  1.0000 0.1015 0.6196
v  1.0000 0.0015 -1.0000
v  1.0000 0.0015 1.0000
v  -1.0000 0.1015 1.0000
v  -1.0000 0.0015 1.0000
v  -1.0000 0.0015 -1.0000
v  -1.0000 0.5594 1.0000
v  -0.9000 0.5594 1.0000
v  -0.9000 0.9015 1.0000
v  -1.0000 0.9015 0.3446
v  -1.0000 0.5594 -0.9000
v  -1.0000 0.5594 0.3446
v  -0.9000 0.9015 -0.9000
v  -0.9000 0.9015 0.3446
v  -0.9000 0.5594 0.3446
v  -0.9000 0.5594 -0.9000
v  -1.0000 0.9015 0.6196
v  -1.0000 0.5594 0.6196
v  -0.9000 0.5594 0.6196
v  -0.9000 0.9015 0.6196
v  -0.9000 0.1015 1.0000
v  -1.0000 0.1015 0.3446
v  -0.9000 0.1015 0.3446
v  -0.9000 0.1015 -0.9000
v  -1.0000 0.1015 0.6196
v  -0.9000 0.1015 0.6196
# 60 vertices

vn 1.0000 0.0000 0.0000
vn -0.0000 0.0000 1.0000
vn -1.0000 -0.0000 -0.0000
vn -0.0000 1.0000 -0.0000
vn -0.0000 -0.0000 1.0000
vn 0.0000 -1.0000 0.0000
vn 0.0000 1.0000 -0.0000
vn -1.0000 0.0000 -0.0000
vn 1.0000 -0.0000 0.0000
vn 0.0000 -1.0000 -0.0000
vn 0.0000 -0.0000 -1.0000
# 11 vertex normals

vt 0.6590 0.0182 0.0000
vt 0.4043 0.0182 0.0000
vt 0.4043 0.0000 0.0000
vt 0.6590 0.0000 0.0000
vt 0.8196 0.3889 0.0000
vt 0.9651 0.3889 0.0000
vt 0.9651 0.7527 0.0000
vt 0.8196 0.7527 0.0000
vt 0.0042 0.0000 0.0000
vt 0.1497 0.0000 0.0000
vt 0.1497 0.0182 0.0000
vt 0.0042 0.0182 0.0000
vt 0.0209 0.0318 0.0000
vt 0.0209 0.0209 0.0000
vt 0.2392 0.0209 0.0000
vt 0.2392 0.0318 0.0000
vt 0.4574 0.0209 0.0000
vt 0.4574 0.0318 0.0000
vt 0.6757 0.0209 0.0000
vt 0.6757 0.0318 0.0000
vt 0.9626 0.7569 0.0000
vt 0.9626 0.9752 0.0000
vt 0.7443 0.9752 0.0000
vt 0.7443 0.7569 0.0000
vt 0.7201 0.9626 0.0000
vt 0.5018 0.9626 0.0000
vt 0.5018 0.7443 0.0000
vt 0.7201 0.7443 0.0000
vt 0.1396 0.0636 0.0000
vt 0.1396 0.0376 0.0000
vt 0.2583 0.0376 0.0000
vt 0.2583 0.0636 0.0000
vt 0.3268 0.9643 0.0000
vt 0.0042 0.9643 0.0000
vt 0.0042 0.8756 0.0000
vt 0.3268 0.8756 0.0000
vt 0.0167 0.7485 0.0000
vt 0.0167 0.5515 0.0000
vt 0.1174 0.5515 0.0000
vt 0.1174 0.7485 0.0000
vt 0.6757 0.0376 0.0000
vt 0.6757 0.0636 0.0000
vt 0.4369 0.0636 0.0000
vt 0.4369 0.0376 0.0000
vt 0.4967 0.9643 0.0000
vt 0.3981 0.9643 0.0000
vt 0.3981 0.8756 0.0000
vt 0.4967 0.8756 0.0000
vt 0.1174 0.3680 0.0000
vt 0.1174 0.4666 0.0000
vt 0.0167 0.4666 0.0000
vt 0.0167 0.3680 0.0000
vt 0.3519 0.0636 0.0000
vt 0.3519 0.0376 0.0000
vt 0.0209 0.0376 0.0000
vt 0.0209 0.0636 0.0000
vt 0.3268 0.7569 0.0000
vt 0.0042 0.7569 0.0000
vt 0.2361 0.5515 0.0000
vt 0.2361 0.7485 0.0000
vt 0.4967 0.7569 0.0000
vt 0.3981 0.7569 0.0000
vt 0.2361 0.3680 0.0000
vt 0.2361 0.4666 0.0000
vt 0.8079 0.5076 0.0000
vt 0.7820 0.5076 0.0000
vt 0.7820 0.3889 0.0000
vt 0.8079 0.3889 0.0000
vt 0.8079 0.6026 0.0000
vt 0.7820 0.6026 0.0000
vt 0.8079 0.7212 0.0000
vt 0.7820 0.7212 0.0000
vt 0.0109 0.6757 0.0000
vt 0.0000 0.6757 0.0000
vt 0.0000 0.4574 0.0000
vt 0.0109 0.4574 0.0000
vt 0.0000 0.2392 0.0000
vt 0.0109 0.2392 0.0000
vt 0.0000 0.0209 0.0000
vt 0.0109 0.0209 0.0000
vt 0.4566 0.5144 0.0000
vt 0.4566 0.7326 0.0000
vt 0.2384 0.7326 0.0000
vt 0.2384 0.5144 0.0000
vt 0.6783 0.7326 0.0000
vt 0.4600 0.7326 0.0000
vt 0.4600 0.5144 0.0000
vt 0.6783 0.5144 0.0000
vt 0.5570 0.0669 0.0000
vt 0.5570 0.0928 0.0000
vt 0.4383 0.0928 0.0000
vt 0.4383 0.0669 0.0000
vt 0.1908 0.0962 0.0000
vt 0.5134 0.0962 0.0000
vt 0.5134 0.1849 0.0000
vt 0.1908 0.1849 0.0000
vt 0.9637 0.0042 0.0000
vt 0.9637 0.2011 0.0000
vt 0.8630 0.2011 0.0000
vt 0.8630 0.0042 0.0000
vt 0.0209 0.0928 0.0000
vt 0.0209 0.0669 0.0000
vt 0.2597 0.0669 0.0000
vt 0.2597 0.0928 0.0000
vt 0.0209 0.0962 0.0000
vt 0.1195 0.0962 0.0000
vt 0.1195 0.1849 0.0000
vt 0.0209 0.1849 0.0000
vt 0.8630 0.3847 0.0000
vt 0.8630 0.2861 0.0000
vt 0.9637 0.2861 0.0000
vt 0.9637 0.3847 0.0000
vt 0.3447 0.0669 0.0000
vt 0.3447 0.0928 0.0000
vt 0.6757 0.0928 0.0000
vt 0.6757 0.0669 0.0000
vt 0.1908 0.3035 0.0000
vt 0.5134 0.3035 0.0000
vt 0.7443 0.2011 0.0000
vt 0.7443 0.0042 0.0000
vt 0.0209 0.3035 0.0000
vt 0.1195 0.3035 0.0000
vt 0.7443 0.3847 0.0000
vt 0.7443 0.2861 0.0000
vt 0.7703 0.5076 0.0000
vt 0.7443 0.5076 0.0000
vt 0.7443 0.3889 0.0000
vt 0.7703 0.3889 0.0000
vt 0.7703 0.6026 0.0000
vt 0.7443 0.6026 0.0000
vt 0.7703 0.7212 0.0000
vt 0.7443 0.7212 0.0000
# 132 texture coords

o 2x1_Room
g 2x1_Room
usemtl Material__25
s off
f 1/1/1 2/2/1 3/3/1 4/4/1 
f 4/5/2 3/6/2 5/7/2 6/8/2 
f 6/9/3 5/10/3 7/11/3 8/12/3 
f 7/11/4 5/10/4 3/3/4 2/2/4 
f 2/13/1 9/14/1 10/15/1 11/16/1 
f 11/16/5 10/15/5 12/17/5 13/18/5 
f 13/18/3 12/17/3 14/19/3 7/20/3 
f 14/21/4 12/22/4 10/23/4 9/24/4 
f 13/25/6 7/26/6 2/27/6 11/28/6 
f 15/29/2 16/30/2 11/31/2 17/32/2 
f 18/33/3 19/34/3 20/35/3 21/36/3 
f 3/37/1 22/38/1 23/39/1 24/40/1 
f 3/41/7 19/42/7 18/43/7 22/44/7 
f 17/45/3 25/46/3 26/47/3 15/48/3 
f 25/46/3 18/33/3 21/36/3 26/47/3 
f 16/49/1 27/50/1 28/51/1 11/52/1 
f 27/50/1 23/39/1 22/38/1 28/51/1 
f 18/43/7 25/53/7 28/54/7 22/44/7 
f 25/53/7 17/32/7 11/31/7 28/54/7 
f 29/55/5 16/30/5 15/29/5 30/56/5 
f 31/57/8 21/36/8 20/35/8 32/58/8 
f 23/39/9 33/59/9 4/60/9 24/40/9 
f 30/61/8 15/48/8 26/47/8 34/62/8 
f 16/49/9 29/63/9 35/64/9 27/50/9 
f 23/65/2 21/66/2 31/67/2 33/68/2 
f 27/69/10 26/70/10 21/66/10 23/65/10 
f 35/71/11 34/72/11 26/70/11 27/69/11 
f 36/73/1 1/74/1 29/75/1 37/76/1 
f 37/76/2 29/75/2 38/77/2 39/78/2 
f 39/78/8 38/77/8 8/79/8 40/80/8 
f 8/81/4 38/82/4 29/83/4 1/84/4 
f 39/85/6 40/86/6 36/87/6 37/88/6 
f 41/89/5 42/90/5 43/91/5 13/92/5 
f 44/93/3 5/94/3 45/95/3 46/96/3 
f 47/97/1 48/98/1 49/99/1 50/100/1 
f 47/101/7 5/102/7 44/103/7 48/104/7 
f 13/105/3 51/106/3 52/107/3 41/108/3 
f 51/106/3 44/93/3 46/96/3 52/107/3 
f 42/109/1 53/110/1 54/111/1 43/112/1 
f 53/110/1 49/99/1 48/98/1 54/111/1 
f 44/103/7 51/113/7 54/114/7 48/104/7 
f 51/113/7 13/92/7 43/91/7 54/114/7 
f 55/115/2 42/90/2 41/89/2 38/116/2 
f 56/117/3 46/96/3 45/95/3 6/118/3 
f 49/99/1 57/119/1 58/120/1 50/100/1 
f 38/121/3 41/108/3 52/107/3 59/122/3 
f 42/109/9 55/123/9 60/124/9 53/110/9 
f 49/125/2 46/126/2 56/127/2 57/128/2 
f 53/129/10 52/130/10 46/126/10 49/125/10 
f 60/131/11 59/132/11 52/130/11 53/129/11 
# 50 polygons

