# 3ds Max Wavefront OBJ Exporter v0.97b - (c)2007 guruware
# File Created: 26.04.2021 21:43:53

mtllib 2x2 Room.mtl

#
# object 2x2_Room
#

v  0.9910 0.1035 -1.0000
v  0.9910 1.9035 -1.0000
v  0.9910 1.9035 -0.9000
v  0.9910 0.1035 -0.9000
v  -1.0090 1.9035 -0.9000
v  -1.0090 0.1035 -0.9000
v  -1.0090 1.9035 -1.0000
v  -1.0090 0.1035 -1.0000
v  0.9910 2.0035 -1.0000
v  0.9910 2.0035 1.0000
v  0.9910 1.9035 1.0000
v  -1.0090 2.0035 1.0000
v  -1.0090 1.9035 1.0000
v  -1.0090 2.0035 -1.0000
v  0.9910 0.0035 -1.0000
v  0.9910 0.1035 1.0000
v  0.9910 0.0035 1.0000
v  -1.0090 0.1035 1.0000
v  -1.0090 0.0035 1.0000
v  -1.0090 0.0035 -1.0000
v  0.8910 0.5614 1.0000
v  0.9910 0.5614 1.0000
v  0.8910 1.9035 1.0000
v  0.8910 1.9035 0.3446
v  0.8910 1.9035 -0.9000
v  0.8910 0.5614 -0.9000
v  0.8910 0.5614 0.3446
v  0.9910 1.9035 0.3446
v  0.9910 0.5614 0.3446
v  0.9910 0.5614 -0.9000
v  0.8910 1.9035 0.6196
v  0.8910 0.5614 0.6196
v  0.9910 0.5614 0.6196
v  0.9910 1.9035 0.6196
v  0.8910 0.1035 1.0000
v  0.8910 0.1035 0.3446
v  0.8910 0.1035 -0.9000
v  0.9910 0.1035 0.3446
v  0.8910 0.1035 0.6196
v  0.9910 0.1035 0.6196
v  -1.0090 0.5614 1.0000
v  -0.9090 0.5614 1.0000
v  -0.9090 1.9035 1.0000
v  -1.0090 1.9035 0.3446
v  -1.0090 0.5614 -0.9000
v  -1.0090 0.5614 0.3446
v  -0.9090 1.9035 -0.9000
v  -0.9090 1.9035 0.3446
v  -0.9090 0.5614 0.3446
v  -0.9090 0.5614 -0.9000
v  -1.0090 1.9035 0.6196
v  -1.0090 0.5614 0.6196
v  -0.9090 0.5614 0.6196
v  -0.9090 1.9035 0.6196
v  -0.9090 0.1035 1.0000
v  -1.0090 0.1035 0.3446
v  -0.9090 0.1035 0.3446
v  -0.9090 0.1035 -0.9000
v  -1.0090 0.1035 0.6196
v  -0.9090 0.1035 0.6196
# 60 vertices

vn 1.0000 0.0000 -0.0000
vn 0.0000 0.0000 1.0000
vn -1.0000 -0.0000 -0.0000
vn -1.0000 -0.0000 0.0000
vn 0.0000 1.0000 -0.0000
vn 0.0000 -1.0000 0.0000
vn -1.0000 0.0000 0.0000
vn -0.0000 1.0000 -0.0000
vn -0.0000 -0.0000 1.0000
vn 1.0000 0.0000 0.0000
vn -1.0000 0.0000 -0.0000
vn 1.0000 -0.0000 0.0000
vn 0.0000 -1.0000 -0.0000
vn 0.0000 0.0000 -1.0000
vn -0.0000 0.0000 1.0000
vn -0.0000 -1.0000 0.0000
# 16 vertex normals

vt 0.6861 0.6521 0.0000
vt 0.4055 0.6521 0.0000
vt 0.4055 0.6365 0.0000
vt 0.6861 0.6365 0.0000
vt 0.6531 0.6325 0.0000
vt 0.3725 0.6325 0.0000
vt 0.3725 0.3206 0.0000
vt 0.6531 0.3206 0.0000
vt 0.9785 0.6521 0.0000
vt 0.6978 0.6521 0.0000
vt 0.6978 0.6365 0.0000
vt 0.9785 0.6365 0.0000
vt 0.0156 0.9402 0.0000
vt 0.0000 0.9402 0.0000
vt 0.0000 0.6284 0.0000
vt 0.0156 0.6284 0.0000
vt 0.0000 0.3165 0.0000
vt 0.0156 0.3165 0.0000
vt 0.0000 0.0047 0.0000
vt 0.0156 0.0047 0.0000
vt 0.6648 0.3206 0.0000
vt 0.9767 0.3206 0.0000
vt 0.9767 0.6325 0.0000
vt 0.6648 0.6325 0.0000
vt 0.9625 0.9767 0.0000
vt 0.6507 0.9767 0.0000
vt 0.6507 0.6648 0.0000
vt 0.9625 0.6648 0.0000
vt 0.9544 0.0000 0.0000
vt 0.9544 0.0156 0.0000
vt 0.6425 0.0156 0.0000
vt 0.6425 0.0000 0.0000
vt 0.3307 0.0156 0.0000
vt 0.3307 0.0000 0.0000
vt 0.0189 0.0156 0.0000
vt 0.0189 0.0000 0.0000
vt 0.0189 0.6648 0.0000
vt 0.3307 0.6648 0.0000
vt 0.3307 0.9767 0.0000
vt 0.0189 0.9767 0.0000
vt 0.3348 0.6648 0.0000
vt 0.6466 0.6648 0.0000
vt 0.6466 0.9767 0.0000
vt 0.3348 0.9767 0.0000
vt 0.7490 0.2266 0.0000
vt 0.7335 0.2266 0.0000
vt 0.7335 0.0189 0.0000
vt 0.7490 0.0189 0.0000
vt 0.8369 0.0189 0.0000
vt 0.9795 0.0189 0.0000
vt 0.9795 0.2266 0.0000
vt 0.8369 0.2266 0.0000
vt 0.3725 0.0189 0.0000
vt 0.5651 0.0189 0.0000
vt 0.5651 0.2266 0.0000
vt 0.3725 0.2266 0.0000
vt 0.7861 0.0189 0.0000
vt 0.7861 0.2266 0.0000
vt 0.6828 0.2266 0.0000
vt 0.6828 0.0189 0.0000
vt 0.7335 0.3170 0.0000
vt 0.7490 0.3170 0.0000
vt 0.8369 0.3170 0.0000
vt 0.9795 0.3170 0.0000
vt 0.5651 0.3170 0.0000
vt 0.3725 0.3170 0.0000
vt 0.7861 0.3170 0.0000
vt 0.6828 0.3170 0.0000
vt 0.0956 0.6412 0.0000
vt 0.0956 0.6559 0.0000
vt 0.0283 0.6559 0.0000
vt 0.0283 0.6412 0.0000
vt 0.1494 0.6412 0.0000
vt 0.1494 0.6559 0.0000
vt 0.2166 0.6412 0.0000
vt 0.2166 0.6559 0.0000
vt 0.2266 0.2588 0.0000
vt 0.2266 0.2743 0.0000
vt 0.0189 0.2743 0.0000
vt 0.0189 0.2588 0.0000
vt 0.0189 0.1709 0.0000
vt 0.0189 0.0283 0.0000
vt 0.2266 0.0283 0.0000
vt 0.2266 0.1709 0.0000
vt 0.0189 0.6353 0.0000
vt 0.0189 0.4427 0.0000
vt 0.2266 0.4427 0.0000
vt 0.2266 0.6353 0.0000
vt 0.0189 0.2216 0.0000
vt 0.2266 0.2216 0.0000
vt 0.2266 0.3250 0.0000
vt 0.0189 0.3250 0.0000
vt 0.3170 0.2743 0.0000
vt 0.3170 0.2588 0.0000
vt 0.3170 0.1709 0.0000
vt 0.3170 0.0283 0.0000
vt 0.3170 0.4427 0.0000
vt 0.3170 0.6353 0.0000
vt 0.3170 0.2216 0.0000
vt 0.3170 0.3250 0.0000
vt 0.9813 0.8594 0.0000
vt 0.9666 0.8594 0.0000
vt 0.9666 0.7921 0.0000
vt 0.9813 0.7921 0.0000
vt 0.9813 0.9132 0.0000
vt 0.9666 0.9132 0.0000
vt 0.9813 0.9805 0.0000
vt 0.9666 0.9805 0.0000
# 108 texture coords

o 2x2_Room
g 2x2_Room
usemtl Material__25
s off
f 1/1/1 2/2/1 3/3/1 4/4/1 
f 4/5/2 3/6/2 5/7/2 6/8/2 
f 6/9/3 5/10/3 7/11/3 8/12/3 
f 2/13/1 9/14/1 10/15/1 11/16/1 
f 11/16/2 10/15/2 12/17/2 13/18/2 
f 13/18/4 12/17/4 14/19/4 7/20/4 
f 14/21/5 12/22/5 10/23/5 9/24/5 
f 13/25/6 7/26/6 2/27/6 11/28/6 
f 15/29/1 1/30/1 16/31/1 17/32/1 
f 17/32/2 16/31/2 18/33/2 19/34/2 
f 19/34/7 18/33/7 8/35/7 20/36/7 
f 8/37/8 18/38/8 16/39/8 1/40/8 
f 19/41/6 20/42/6 15/43/6 17/44/6 
f 21/45/9 22/46/9 11/47/9 23/48/9 
f 24/49/3 25/50/3 26/51/3 27/52/3 
f 3/53/10 28/54/10 29/55/10 30/56/10 
f 23/48/3 31/57/3 32/58/3 21/45/3 
f 31/57/3 24/49/3 27/52/3 32/58/3 
f 22/46/10 33/59/10 34/60/10 11/47/10 
f 33/59/10 29/55/10 28/54/10 34/60/10 
f 16/61/9 22/46/9 21/45/9 35/62/9 
f 36/63/3 27/52/3 26/51/3 37/64/3 
f 29/55/10 38/65/10 4/66/10 30/56/10 
f 35/62/11 21/45/11 32/58/11 39/67/11 
f 22/46/12 16/61/12 40/68/12 33/59/12 
f 29/69/9 27/70/9 36/71/9 38/72/9 
f 33/73/13 32/74/13 27/70/13 29/69/13 
f 40/75/14 39/76/14 32/74/14 33/73/14 
f 41/77/9 42/78/9 43/79/9 13/80/9 
f 44/81/3 5/82/3 45/83/3 46/84/3 
f 47/85/10 48/86/10 49/87/10 50/88/10 
f 13/80/3 51/89/3 52/90/3 41/77/3 
f 51/89/3 44/81/3 46/84/3 52/90/3 
f 42/78/10 53/91/10 54/92/10 43/79/10 
f 53/91/10 49/87/10 48/86/10 54/92/10 
f 55/93/15 42/78/15 41/77/15 18/94/15 
f 56/95/3 46/84/3 45/83/3 6/96/3 
f 49/87/10 57/97/10 58/98/10 50/88/10 
f 18/94/3 41/77/3 52/90/3 59/99/3 
f 42/78/12 55/93/12 60/100/12 53/91/12 
f 49/101/9 46/102/9 56/103/9 57/104/9 
f 53/105/16 52/106/16 46/102/16 49/101/16 
f 60/107/14 59/108/14 52/106/14 53/105/14 
# 43 polygons

