# 3ds Max Wavefront OBJ Exporter v0.97b - (c)2007 guruware
# File Created: 26.04.2021 22:26:10

mtllib 2x1 Mining Room.mtl

#
# object Object031
#

v  0.4979 0.1042 -1.0000
v  0.4979 0.9042 -1.0000
v  0.4979 0.9042 -0.9000
v  0.4979 0.1042 -0.9000
v  -0.4980 0.9042 -0.9000
v  -0.4980 0.1042 -0.9000
v  -0.4980 0.9042 -1.0000
v  -0.4980 0.1042 -1.0000
v  0.4979 1.0042 -1.0000
v  0.4979 1.0042 1.0000
v  0.4979 0.9042 1.0000
v  -0.4973 1.0042 1.0000
v  -0.4973 0.9042 1.0000
v  -0.4973 1.0042 -1.0000
v  -0.4973 0.9042 -1.0000
v  0.3979 0.5621 1.0000
v  0.4979 0.5621 1.0000
v  0.3979 0.9042 1.0000
v  0.3979 0.9042 0.3446
v  0.3979 0.9042 -0.9000
v  0.3979 0.5621 -0.9000
v  0.3980 0.5621 0.3446
v  0.4979 0.9042 0.3446
v  0.4980 0.5621 0.3446
v  0.4979 0.5621 -0.9000
v  0.3979 0.9042 0.6196
v  0.3979 0.5621 0.6196
v  0.4979 0.5621 0.6196
v  0.4979 0.9042 0.6196
v  0.4979 0.1042 1.0000
v  0.3979 0.1042 1.0000
v  0.3980 0.1042 0.3446
v  0.3979 0.1042 -0.9000
v  0.4980 0.1042 0.3446
v  0.3979 0.1042 0.6196
v  0.4979 0.1042 0.6196
v  0.4979 0.0042 -1.0000
v  0.4979 0.0042 1.0000
v  -0.4973 0.1042 1.0000
v  -0.4973 0.0042 1.0000
v  -0.4973 0.1042 -1.0000
v  -0.4973 0.0042 -1.0000
v  -0.4973 0.9042 0.6196
v  -0.4973 0.9042 0.3446
v  -0.4973 0.1042 0.3446
v  -0.4973 0.1042 0.6196
v  -0.3973 0.1042 1.0000
v  -0.3973 0.9042 1.0000
v  -0.4973 0.9042 -0.9000
v  -0.4973 0.1042 -0.9000
v  -0.3973 0.1042 -0.9000
v  -0.3973 0.9042 -0.9000
# 52 vertices

vn 1.0000 0.0000 -0.0000
vn 0.0000 0.0000 1.0000
vn -1.0000 -0.0000 0.0000
vn -0.0000 1.0000 -0.0000
vn 0.0000 -1.0000 0.0000
vn -0.0000 0.0000 1.0000
vn -1.0000 -0.0000 -0.0000
vn 1.0000 0.0000 0.0000
vn -0.0000 -0.0000 1.0000
vn 1.0000 -0.0000 -0.0000
vn 1.0000 -0.0000 0.0000
vn 0.0000 -1.0000 -0.0000
vn 0.0000 -0.0000 -1.0000
# 13 vertex normals

vt 0.2387 0.8043 0.0000
vt 0.2383 0.9637 0.0000
vt 0.2184 0.9637 0.0000
vt 0.2187 0.8042 0.0000
vt 0.0199 0.9633 0.0000
vt 0.0202 0.8039 0.0000
vt 0.0000 0.9633 0.0000
vt 0.0003 0.8038 0.0000
vt 0.0034 0.0199 0.0000
vt 0.0034 0.0000 0.0000
vt 0.4020 0.0000 0.0000
vt 0.4020 0.0199 0.0000
vt 0.6004 0.0000 0.0000
vt 0.6004 0.0199 0.0000
vt 0.9990 0.0000 0.0000
vt 0.9990 0.0199 0.0000
vt 0.1614 0.7902 0.0000
vt 0.1614 0.3916 0.0000
vt 0.3598 0.3916 0.0000
vt 0.3598 0.7902 0.0000
vt 0.1683 0.1855 0.0000
vt 0.5669 0.1855 0.0000
vt 0.5669 0.3839 0.0000
vt 0.1683 0.3839 0.0000
vt 0.0682 0.4027 0.0000
vt 0.0682 0.4226 0.0000
vt 0.0000 0.4226 0.0000
vt 0.0000 0.4027 0.0000
vt 0.0000 0.2721 0.0000
vt 0.0000 0.0240 0.0000
vt 0.0682 0.0240 0.0000
vt 0.0682 0.2721 0.0000
vt 0.0000 0.8013 0.0000
vt 0.0000 0.5533 0.0000
vt 0.0682 0.5533 0.0000
vt 0.0682 0.8013 0.0000
vt 0.0000 0.3269 0.0000
vt 0.0682 0.3269 0.0000
vt 0.0682 0.4985 0.0000
vt 0.0000 0.4985 0.0000
vt 0.1595 0.4226 0.0000
vt 0.1595 0.4027 0.0000
vt 0.1594 0.2721 0.0000
vt 0.1594 0.0240 0.0000
vt 0.1595 0.5533 0.0000
vt 0.1595 0.8013 0.0000
vt 0.1594 0.3269 0.0000
vt 0.1595 0.4985 0.0000
vt 0.1461 0.9852 0.0000
vt 0.1461 0.9653 0.0000
vt 0.2373 0.9653 0.0000
vt 0.2373 0.9852 0.0000
vt 0.0912 0.9852 0.0000
vt 0.0912 0.9653 0.0000
vt 0.0000 0.9852 0.0000
vt 0.0000 0.9653 0.0000
vt 0.3954 0.2448 0.0000
vt 0.3284 0.2449 0.0000
vt 0.3281 0.0501 0.0000
vt 0.3951 0.0500 0.0000
vt 0.5120 0.0498 0.0000
vt 0.5123 0.2446 0.0000
vt 0.4880 0.2446 0.0000
vt 0.4877 0.0498 0.0000
vt 0.0254 0.2453 0.0000
vt 0.0251 0.0505 0.0000
vt 0.9746 0.0491 0.0000
vt 0.9749 0.2439 0.0000
# 68 texture coords

o Object031
g Object031
usemtl Material__25
s off
f 1/1/1 2/2/1 3/3/1 4/4/1 
f 4/4/2 3/3/2 5/5/2 6/6/2 
f 6/6/3 5/5/3 7/7/3 8/8/3 
f 2/9/1 9/10/1 10/11/1 11/12/1 
f 11/12/2 10/11/2 12/13/2 13/14/2 
f 13/14/3 12/13/3 14/15/3 15/16/3 
f 14/17/4 12/18/4 10/19/4 9/20/4 
f 13/21/5 15/22/5 2/23/5 11/24/5 
f 16/25/6 17/26/6 11/27/6 18/28/6 
f 19/29/3 20/30/3 21/31/3 22/32/3 
f 3/33/1 23/34/1 24/35/1 25/36/1 
f 18/28/7 26/37/7 27/38/7 16/25/7 
f 26/37/7 19/29/7 22/32/7 27/38/7 
f 17/26/8 28/39/8 29/40/8 11/27/8 
f 28/39/8 24/35/8 23/34/8 29/40/8 
f 30/41/9 17/26/9 16/25/9 31/42/9 
f 32/43/3 22/32/3 21/31/3 33/44/3 
f 24/35/10 34/45/10 4/46/10 25/36/10 
f 31/42/7 16/25/7 27/38/7 35/47/7 
f 17/26/11 30/41/11 36/48/11 28/39/11 
f 24/49/6 22/50/6 32/51/6 34/52/6 
f 28/53/12 27/54/12 22/50/12 24/49/12 
f 36/55/13 35/56/13 27/54/13 28/53/13 
f 37/9/1 1/10/1 30/11/1 38/12/1 
f 38/12/2 30/11/2 39/13/2 40/14/2 
f 40/14/3 39/13/3 41/15/3 42/16/3 
f 41/17/4 39/18/4 30/19/4 1/20/4 
f 40/21/5 42/22/5 37/23/5 38/24/5 
s 1
f 43/57/7 44/58/7 45/59/7 46/60/7 
s off
f 47/61/6 48/62/6 13/63/6 39/64/6 
f 45/59/3 44/58/3 49/65/3 50/66/3 
s 1
f 47/61/1 51/67/1 52/68/1 48/62/1 
s off
f 39/64/7 13/63/7 43/57/7 46/60/7 
# 33 polygons

