# 3ds Max Wavefront OBJ Exporter v0.97b - (c)2007 guruware
# File Created: 26.04.2021 22:09:19

mtllib 2x2 Mining Room.mtl

#
# object Object026
#

v  0.5000 0.1054 -1.0000
v  0.5000 1.9054 -1.0000
v  0.5000 1.9054 -0.9000
v  0.5000 0.1054 -0.9000
v  -0.5000 1.9054 -0.9000
v  -0.5000 0.1054 -0.9000
v  -0.5000 1.9054 -1.0000
v  -0.5000 0.1054 -1.0000
v  0.5000 2.0054 -1.0000
v  0.5000 2.0054 1.0000
v  0.5000 1.9054 1.0000
v  -0.5000 2.0054 1.0000
v  -0.5000 1.9054 1.0000
v  -0.5000 2.0054 -1.0000
v  0.4000 0.5633 1.0000
v  0.5000 0.5633 1.0000
v  0.4000 1.9054 1.0000
v  0.4000 1.9054 0.3446
v  0.4000 1.9054 -0.9000
v  0.4000 0.5633 -0.9000
v  0.4000 0.5633 0.3446
v  0.5000 1.9054 0.3446
v  0.5000 0.5633 0.3446
v  0.5000 0.5633 -0.9000
v  0.4000 1.9054 0.6196
v  0.4000 0.5633 0.6196
v  0.5000 0.5633 0.6196
v  0.5000 1.9054 0.6196
v  0.5000 0.1054 1.0000
v  0.4000 0.1054 1.0000
v  0.4000 0.1054 0.3446
v  0.4000 0.1054 -0.9000
v  0.5000 0.1054 0.3446
v  0.4000 0.1054 0.6196
v  0.5000 0.1054 0.6196
v  0.5000 0.0054 -1.0000
v  0.5000 0.0054 1.0000
v  -0.5000 0.1054 1.0000
v  -0.5000 0.0054 1.0000
v  -0.5000 0.0054 -1.0000
v  -0.4000 0.1054 1.0000
v  -0.4000 1.9054 1.0000
v  -0.4000 0.1054 -0.9000
v  -0.4000 1.9054 -0.9000
# 44 vertices

vn 1.0000 0.0000 0.0000
vn -0.0000 0.0000 1.0000
vn -1.0000 0.0000 -0.0000
vn 0.0000 1.0000 -0.0000
vn -0.0000 -1.0000 0.0000
vn -0.0000 -0.0000 1.0000
vn -1.0000 -0.0000 0.0000
vn 1.0000 0.0000 -0.0000
vn -1.0000 -0.0000 -0.0000
vn 1.0000 -0.0000 0.0000
vn 0.0000 -1.0000 -0.0000
vn 0.0000 -0.0000 -1.0000
# 12 vertex normals

vt 0.7077 0.6850 0.0000
vt 0.7077 0.3766 0.0000
vt 0.7248 0.3766 0.0000
vt 0.7248 0.6850 0.0000
vt 0.8961 0.3766 0.0000
vt 0.8961 0.6850 0.0000
vt 0.9132 0.3766 0.0000
vt 0.9132 0.6850 0.0000
vt 0.8645 0.0020 0.0000
vt 0.8645 0.0186 0.0000
vt 0.5323 0.0186 0.0000
vt 0.5323 0.0020 0.0000
vt 0.2832 0.0186 0.0000
vt 0.2832 0.0020 0.0000
vt 0.1994 0.9980 0.0000
vt 0.0281 0.9980 0.0000
vt 0.0281 0.6554 0.0000
vt 0.1994 0.6554 0.0000
vt 0.8746 0.3708 0.0000
vt 0.7033 0.3708 0.0000
vt 0.7033 0.0281 0.0000
vt 0.8746 0.0281 0.0000
vt 0.0064 0.0020 0.0000
vt 0.0064 0.0186 0.0000
vt 0.3709 0.5724 0.0000
vt 0.3538 0.5724 0.0000
vt 0.3543 0.3424 0.0000
vt 0.3714 0.3425 0.0000
vt 0.4837 0.3427 0.0000
vt 0.6969 0.3431 0.0000
vt 0.6964 0.5731 0.0000
vt 0.4832 0.5726 0.0000
vt 0.0288 0.3418 0.0000
vt 0.2420 0.3422 0.0000
vt 0.2415 0.5721 0.0000
vt 0.0283 0.5717 0.0000
vt 0.4365 0.3426 0.0000
vt 0.4361 0.5725 0.0000
vt 0.2886 0.5722 0.0000
vt 0.2891 0.3423 0.0000
vt 0.3536 0.6508 0.0000
vt 0.3708 0.6508 0.0000
vt 0.4830 0.6510 0.0000
vt 0.6962 0.6515 0.0000
vt 0.2413 0.6506 0.0000
vt 0.0281 0.6501 0.0000
vt 0.4359 0.6510 0.0000
vt 0.2885 0.6506 0.0000
vt 0.9024 0.0803 0.0000
vt 0.8862 0.0803 0.0000
vt 0.8862 0.0064 0.0000
vt 0.9024 0.0064 0.0000
vt 0.9024 0.1394 0.0000
vt 0.8862 0.1394 0.0000
vt 0.9024 0.2133 0.0000
vt 0.8862 0.2133 0.0000
vt 0.5131 0.0444 0.0000
vt 0.5110 0.4776 0.0000
vt 0.4869 0.4775 0.0000
vt 0.4890 0.0443 0.0000
vt 0.0297 0.4753 0.0000
vt 0.0318 0.0421 0.0000
vt 0.9703 0.0466 0.0000
vt 0.9682 0.4798 0.0000
# 64 texture coords

o Object026
g Object026
usemtl Material__25
s off
f 1/1/1 2/2/1 3/3/1 4/4/1 
f 4/4/2 3/3/2 5/5/2 6/6/2 
f 6/6/3 5/5/3 7/7/3 8/8/3 
f 2/9/1 9/10/1 10/11/1 11/12/1 
f 11/12/2 10/11/2 12/13/2 13/14/2 
f 12/15/4 10/16/4 9/17/4 14/18/4 
f 7/19/5 2/20/5 11/21/5 13/22/5 
f 7/23/3 13/14/3 12/13/3 14/24/3 
f 15/25/6 16/26/6 11/27/6 17/28/6 
f 18/29/7 19/30/7 20/31/7 21/32/7 
f 3/33/8 22/34/8 23/35/8 24/36/8 
f 17/28/9 25/37/9 26/38/9 15/25/9 
f 25/37/9 18/29/9 21/32/9 26/38/9 
f 16/26/1 27/39/1 28/40/1 11/27/1 
f 27/39/1 23/35/1 22/34/1 28/40/1 
f 29/41/2 16/26/2 15/25/2 30/42/2 
f 31/43/7 21/32/7 20/31/7 32/44/7 
f 23/35/8 33/45/8 4/46/8 24/36/8 
f 30/42/9 15/25/9 26/38/9 34/47/9 
f 16/26/10 29/41/10 35/48/10 27/39/10 
f 23/49/2 21/50/2 31/51/2 33/52/2 
f 27/53/11 26/54/11 21/50/11 23/49/11 
f 35/55/12 34/56/12 26/54/12 27/53/12 
f 36/9/1 1/10/1 29/11/1 37/12/1 
f 37/12/2 29/11/2 38/13/2 39/14/2 
f 38/15/4 29/16/4 1/17/4 8/18/4 
f 40/19/5 36/20/5 37/21/5 39/22/5 
f 40/23/3 39/14/3 38/13/3 8/24/3 
f 41/57/6 42/58/6 13/59/6 38/60/6 
f 38/60/9 13/59/9 5/61/9 6/62/9 
f 41/57/1 43/63/1 44/64/1 42/58/1 
# 31 polygons

