# 3ds Max Wavefront OBJ Exporter v0.97b - (c)2007 guruware
# File Created: 26.04.2021 22:01:15

mtllib 3x2 Mining Room.mtl

#
# object Object024
#

v  0.9972 0.1031 -1.0000
v  0.9972 1.9031 -1.0000
v  0.9972 1.9031 -0.9000
v  0.9972 0.1031 -0.9000
v  -1.0028 1.9031 -0.9000
v  -1.0028 0.1031 -0.9000
v  -1.0028 1.9031 -1.0000
v  -1.0028 0.1031 -1.0000
v  0.8972 0.5609 1.0000
v  0.9972 0.5609 1.0000
v  0.9972 1.9031 1.0000
v  0.8972 1.9031 1.0000
v  0.8972 1.9031 0.3446
v  0.8972 1.9031 -0.9000
v  0.8972 0.5609 -0.9000
v  0.8972 0.5609 0.3446
v  0.9972 1.9031 0.3446
v  0.9972 0.5609 0.3446
v  0.9972 0.5609 -0.9000
v  0.8972 1.9031 0.6196
v  0.8972 0.5609 0.6196
v  0.9972 0.5609 0.6196
v  0.9972 1.9031 0.6196
v  0.9972 0.1031 1.0000
v  0.8972 0.1031 1.0000
v  0.8972 0.1031 0.3446
v  0.8972 0.1031 -0.9000
v  0.9972 0.1031 0.3446
v  0.8972 0.1031 0.6196
v  0.9972 0.1031 0.6196
v  0.9972 0.0031 -1.0000
v  0.9972 0.0031 1.0000
v  -1.0028 0.1031 1.0000
v  -1.0028 0.0031 1.0000
v  -1.0028 0.0031 -1.0000
v  -0.9972 0.1031 1.0000
v  -0.8972 0.1031 1.0000
v  -0.8972 1.9031 1.0000
v  -0.9972 1.9031 1.0000
v  -0.9972 1.9031 0.3446
v  -0.9972 1.9031 -0.9000
v  -0.9972 0.1031 -0.9000
v  -0.8972 1.9031 -0.9000
v  -0.8972 1.9031 0.3446
v  -0.8972 0.1031 -0.9000
v  1.0028 1.9031 -1.0000
v  1.0028 2.0031 -1.0000
v  1.0028 2.0031 1.0000
v  1.0028 1.9031 1.0000
v  -0.9972 2.0031 1.0000
v  -0.9972 2.0031 -1.0000
v  -0.9972 1.9031 -1.0000
# 52 vertices

vn 1.0000 0.0000 0.0000
vn -0.0000 0.0000 1.0000
vn -1.0000 0.0000 -0.0000
vn -0.0000 -0.0000 1.0000
vn -1.0000 -0.0000 -0.0000
vn 1.0000 -0.0000 0.0000
vn 0.0000 -1.0000 -0.0000
vn 0.0000 -0.0000 -1.0000
vn -0.0000 1.0000 -0.0000
vn -0.0000 -1.0000 0.0000
vn 0.0000 1.0000 -0.0000
vn -0.0000 -1.0000 -0.0000
# 12 vertex normals

vt 0.6522 0.3150 0.0000
vt 0.6509 0.0321 0.0000
vt 0.6666 0.0320 0.0000
vt 0.6680 0.3149 0.0000
vt 0.9809 0.0305 0.0000
vt 0.9823 0.3134 0.0000
vt 0.9966 0.0304 0.0000
vt 0.9980 0.3133 0.0000
vt 0.4099 0.5240 0.0000
vt 0.3943 0.5240 0.0000
vt 0.3943 0.3146 0.0000
vt 0.4099 0.3146 0.0000
vt 0.4985 0.3146 0.0000
vt 0.6423 0.3146 0.0000
vt 0.6423 0.5240 0.0000
vt 0.4985 0.5240 0.0000
vt 0.0304 0.3146 0.0000
vt 0.2246 0.3146 0.0000
vt 0.2246 0.5240 0.0000
vt 0.0304 0.5240 0.0000
vt 0.4474 0.3146 0.0000
vt 0.4474 0.5240 0.0000
vt 0.3432 0.5240 0.0000
vt 0.3432 0.3146 0.0000
vt 0.3943 0.6152 0.0000
vt 0.4099 0.6152 0.0000
vt 0.4985 0.6152 0.0000
vt 0.6423 0.6152 0.0000
vt 0.2246 0.6152 0.0000
vt 0.0304 0.6152 0.0000
vt 0.4474 0.6152 0.0000
vt 0.3432 0.6152 0.0000
vt 0.6461 0.4440 0.0000
vt 0.6618 0.4440 0.0000
vt 0.6618 0.5159 0.0000
vt 0.6461 0.5159 0.0000
vt 0.6461 0.4008 0.0000
vt 0.6618 0.4008 0.0000
vt 0.6461 0.3288 0.0000
vt 0.6618 0.3288 0.0000
vt 0.0020 0.0067 0.0000
vt 0.0177 0.0067 0.0000
vt 0.0177 0.3211 0.0000
vt 0.0020 0.3211 0.0000
vt 0.0177 0.6354 0.0000
vt 0.0020 0.6354 0.0000
vt 0.6745 0.9557 0.0000
vt 0.6745 0.6414 0.0000
vt 0.9889 0.6414 0.0000
vt 0.9889 0.9557 0.0000
vt 0.6621 0.9889 0.0000
vt 0.3477 0.9889 0.0000
vt 0.3477 0.6745 0.0000
vt 0.6621 0.6745 0.0000
vt 0.0177 0.9497 0.0000
vt 0.0020 0.9497 0.0000
vt 0.3290 0.0257 0.0000
vt 0.3447 0.0257 0.0000
vt 0.3448 0.3086 0.0000
vt 0.3291 0.3086 0.0000
vt 0.2261 0.3086 0.0000
vt 0.0305 0.3087 0.0000
vt 0.0304 0.0258 0.0000
vt 0.6434 0.3086 0.0000
vt 0.4478 0.3086 0.0000
vt 0.6434 0.0257 0.0000
vt 0.9687 0.0020 0.0000
vt 0.9687 0.0177 0.0000
vt 0.6543 0.0177 0.0000
vt 0.6543 0.0020 0.0000
vt 0.3400 0.0177 0.0000
vt 0.3400 0.0020 0.0000
vt 0.0257 0.6745 0.0000
vt 0.3400 0.6745 0.0000
vt 0.3400 0.9889 0.0000
vt 0.0257 0.9889 0.0000
vt 0.9889 0.3193 0.0000
vt 0.9889 0.6337 0.0000
vt 0.6745 0.6337 0.0000
vt 0.6745 0.3193 0.0000
vt 0.0257 0.0177 0.0000
vt 0.0257 0.0020 0.0000
# 82 texture coords

o Object024
g Object024
usemtl Material__26
s off
f 1/1/1 2/2/1 3/3/1 4/4/1 
f 5/5/2 6/6/2 4/4/2 3/3/2 
f 6/6/3 5/5/3 7/7/3 8/8/3 
f 9/9/4 10/10/4 11/11/4 12/12/4 
f 13/13/5 14/14/5 15/15/5 16/16/5 
f 3/17/1 17/18/1 18/19/1 19/20/1 
f 12/12/5 20/21/5 21/22/5 9/9/5 
f 20/21/5 13/13/5 16/16/5 21/22/5 
f 10/10/1 22/23/1 23/24/1 11/11/1 
f 22/23/1 18/19/1 17/18/1 23/24/1 
f 24/25/4 10/10/4 9/9/4 25/26/4 
f 26/27/5 16/16/5 15/15/5 27/28/5 
f 18/19/1 28/29/1 4/30/1 19/20/1 
f 25/26/5 9/9/5 21/22/5 29/31/5 
f 10/10/6 24/25/6 30/32/6 22/23/6 
f 18/33/2 16/34/2 26/35/2 28/36/2 
f 22/37/7 21/38/7 16/34/7 18/33/7 
f 30/39/8 29/40/8 21/38/8 22/37/8 
f 31/41/1 1/42/1 24/43/1 32/44/1 
f 33/45/2 34/46/2 32/44/2 24/43/2 
f 33/47/9 24/48/9 1/49/9 8/50/9 
f 35/51/10 31/52/10 32/53/10 34/54/10 
f 34/46/3 33/45/3 8/55/3 35/56/3 
f 36/57/4 37/58/4 38/59/4 39/60/4 
f 40/61/5 41/62/5 42/63/5 36/57/5 39/60/5 
f 43/64/1 44/65/1 38/59/1 37/58/1 45/66/1 
f 46/67/1 47/68/1 48/69/1 49/70/1 
f 50/71/2 39/72/2 49/70/2 48/69/2 
f 50/73/11 48/74/11 47/75/11 51/76/11 
f 52/77/12 46/78/12 49/79/12 39/80/12 
f 39/72/3 50/71/3 51/81/3 52/82/3 
# 31 polygons

