# 3ds Max Wavefront OBJ Exporter v0.97b - (c)2007 guruware
# File Created: 26.04.2021 18:55:25

mtllib control panel.mtl

#
# object Box268
#

v  -0.2047 0.5145 0.0297
v  0.2047 0.5145 0.0297
v  0.2047 0.5145 -0.0297
v  -0.2047 0.5145 -0.0297
v  -0.2047 -0.0000 0.2497
v  0.2047 0.0000 0.2497
v  0.2047 0.1922 0.2497
v  -0.2047 0.1922 0.2497
v  0.2047 0.0000 0.0297
v  0.2047 0.0000 -0.0297
v  0.2047 0.2937 -0.0297
v  0.2047 0.2937 0.0297
v  -0.2047 -0.0000 -0.0297
v  -0.2047 0.2937 -0.0297
v  -0.2047 -0.0000 0.0297
v  -0.2047 0.2937 0.0297
# 16 vertices

vn -0.5774 0.5773 0.5774
vn 0.5773 0.5774 0.5774
vn 0.5773 0.5774 -0.5774
vn -0.5774 0.5773 -0.5774
vn -0.7071 -0.0000 0.7071
vn 0.7071 0.0000 0.7071
vn 0.6036 0.4298 0.6716
vn -0.6036 0.4298 0.6716
vn 1.0000 0.0000 -0.0000
vn 0.7071 0.0000 -0.7071
vn 0.8506 0.2834 0.4429
vn -0.7071 -0.0000 -0.7071
vn -1.0000 -0.0000 -0.0000
vn -0.8506 0.2834 0.4429
# 14 vertex normals

vt 0.0666 0.5280 0.0000
vt 0.0606 0.9319 0.0000
vt 0.0020 0.9310 0.0000
vt 0.0079 0.5271 0.0000
vt 0.6691 0.4307 0.0000
vt 0.2652 0.4307 0.0000
vt 0.2652 0.2411 0.0000
vt 0.6691 0.2411 0.0000
vt 0.5683 0.9394 0.0000
vt 0.5674 0.9980 0.0000
vt 0.2776 0.9937 0.0000
vt 0.2785 0.9351 0.0000
vt 0.5790 0.5123 0.0000
vt 0.9943 0.5123 0.0000
vt 0.9943 0.7732 0.0000
vt 0.5790 0.7732 0.0000
vt 0.5751 0.4768 0.0000
vt 0.5742 0.5354 0.0000
vt 0.2844 0.5312 0.0000
vt 0.2853 0.4725 0.0000
vt 0.0598 0.9906 0.0000
vt 0.9943 0.9972 0.0000
vt 0.5790 0.9972 0.0000
vt 0.0674 0.4693 0.0000
vt 0.0020 0.1234 0.0000
vt 0.2652 0.0020 0.0000
vt 0.0929 0.3205 0.0000
vt 0.6691 0.0020 0.0000
vt 0.9323 0.1234 0.0000
vt 0.8414 0.3205 0.0000
# 30 texture coords

o Box268
g Box268
usemtl wire_135110008
s 4
f 1/1/1 2/2/2 3/3/3 4/4/4 
s 8
f 5/5/5 6/6/6 7/7/7 8/8/8 
s 16
f 9/9/9 10/10/10 11/11/10 12/12/11 
s 32
f 10/13/10 13/14/12 14/15/12 11/16/10 
s 64
f 13/17/12 15/18/13 16/19/14 14/20/12 
s 8
f 12/12/11 2/2/2 1/1/1 16/19/14 
s 16
f 11/11/10 3/21/3 2/2/2 12/12/11 
s 32
f 14/15/12 4/22/4 3/23/3 11/16/10 
s 64
f 16/19/14 1/1/1 4/24/4 14/20/12 
s off
f 9/25/9 12/26/11 7/7/7 6/27/6 
f 12/26/11 16/28/14 8/8/8 7/7/7 
f 16/28/14 15/29/13 5/30/5 8/8/8 
# 12 polygons

