# 3ds Max Wavefront OBJ Exporter v0.97b - (c)2007 guruware
# File Created: 26.04.2021 19:29:21

mtllib Decoration.mtl

#
# object Cylinder070
#

v  -0.0000 0.1237 -0.2271
v  0.0741 0.2520 -0.2271
v  0.1482 0.1237 -0.2271
v  -0.0741 0.2520 -0.2271
v  -0.1482 0.1237 -0.2271
v  -0.0741 -0.0046 -0.2271
v  0.0741 -0.0046 -0.2271
v  0.0741 0.2520 0.2807
v  0.1482 0.1237 0.2807
v  -0.0741 0.2520 0.2807
v  -0.1482 0.1237 0.2807
v  -0.0741 -0.0046 0.2807
v  0.0741 -0.0046 0.2807
v  -0.0000 0.1237 0.2807
# 14 vertices

vn 0.0000 0.0000 -1.0000
vn 0.3962 0.6862 -0.6100
vn 0.7924 0.0000 -0.6100
vn -0.3962 0.6862 -0.6100
vn -0.7924 -0.0000 -0.6100
vn -0.3962 -0.6862 -0.6100
vn 0.3962 -0.6862 -0.6100
vn 0.3962 0.6862 0.6100
vn 0.7924 -0.0000 0.6100
vn -0.3962 0.6862 0.6100
vn -0.7924 -0.0000 0.6100
vn -0.3962 -0.6862 0.6100
vn 0.3962 -0.6862 0.6100
vn -0.0000 -0.0000 1.0000
# 14 vertex normals

vt 0.8487 0.7443 0.0000
vt 0.7049 0.6613 0.0000
vt 0.8487 0.5783 0.0000
vt 0.7049 0.8273 0.0000
vt 0.8487 0.9103 0.0000
vt 0.9925 0.8273 0.0000
vt 0.9925 0.6613 0.0000
vt 0.0020 0.0020 0.0000
vt 0.1680 0.0020 0.0000
vt 0.1680 0.5710 0.0000
vt 0.0020 0.5710 0.0000
vt 0.3340 0.0020 0.0000
vt 0.3340 0.5710 0.0000
vt 0.5000 0.0020 0.0000
vt 0.5000 0.5710 0.0000
vt 0.6660 0.0020 0.0000
vt 0.6660 0.5710 0.0000
vt 0.8320 0.0020 0.0000
vt 0.8320 0.5710 0.0000
vt 0.9980 0.0020 0.0000
vt 0.9980 0.5710 0.0000
vt 0.1458 0.9103 0.0000
vt 0.0020 0.8273 0.0000
vt 0.1458 0.7443 0.0000
vt 0.0020 0.6613 0.0000
vt 0.1458 0.5783 0.0000
vt 0.2895 0.6613 0.0000
vt 0.2895 0.8273 0.0000
# 28 texture coords

o Cylinder070
g Cylinder070
usemtl wire_225087143
s off
f 1/1/1 2/2/2 3/3/3 
f 1/1/1 4/4/4 2/2/2 
f 1/1/1 5/5/5 4/4/4 
f 1/1/1 6/6/6 5/5/5 
f 1/1/1 7/7/7 6/6/6 
f 1/1/1 3/3/3 7/7/7 
s 2
f 3/8/3 2/9/2 8/10/8 9/11/9 
f 2/9/2 4/12/4 10/13/10 8/10/8 
f 4/12/4 5/14/5 11/15/11 10/13/10 
f 5/14/5 6/16/6 12/17/12 11/15/11 
f 6/16/6 7/18/7 13/19/13 12/17/12 
f 7/18/7 3/20/3 9/21/9 13/19/13 
s off
f 9/22/9 8/23/8 14/24/14 
f 8/23/8 10/25/10 14/24/14 
f 10/25/10 11/26/11 14/24/14 
f 11/26/11 12/27/12 14/24/14 
f 12/27/12 13/28/13 14/24/14 
f 13/28/13 9/22/9 14/24/14 
# 6 polygons - 12 triangles

