# 3ds Max Wavefront OBJ Exporter v0.97b - (c)2007 guruware
# File Created: 26.04.2021 20:55:16

mtllib Decoration.mtl

#
# object Cylinder070
#

v  -0.0000 0.1237 -0.2271
v  0.0741 0.2520 -0.2271
v  0.1482 0.1237 -0.2271
v  -0.0741 0.2520 -0.2271
v  -0.1482 0.1237 -0.2271
v  -0.0741 -0.0046 -0.2271
v  0.0741 -0.0046 -0.2271
v  0.0741 0.2520 0.2807
v  0.1482 0.1237 0.2807
v  -0.0741 0.2520 0.2807
v  -0.1482 0.1237 0.2807
v  -0.0741 -0.0046 0.2807
v  0.0741 -0.0046 0.2807
v  -0.0000 0.1237 0.2807
# 14 vertices

vn 0.0000 0.0000 -1.0000
vn -0.0000 0.0000 -1.0000
vn 0.8660 0.5000 0.0000
vn 0.0000 1.0000 0.0000
vn -0.8660 0.5000 0.0000
vn -0.8660 -0.5000 -0.0000
vn 0.0000 -1.0000 -0.0000
vn 0.8660 -0.5000 -0.0000
vn 0.0000 0.0000 1.0000
# 9 vertex normals

vt 0.8487 0.7443 0.0000
vt 0.7049 0.6613 0.0000
vt 0.8487 0.5783 0.0000
vt 0.7049 0.8273 0.0000
vt 0.8487 0.9103 0.0000
vt 0.9925 0.8273 0.0000
vt 0.9925 0.6613 0.0000
vt 0.0020 0.0020 0.0000
vt 0.1680 0.0020 0.0000
vt 0.1680 0.5710 0.0000
vt 0.0020 0.5710 0.0000
vt 0.3340 0.0020 0.0000
vt 0.3340 0.5710 0.0000
vt 0.5000 0.0020 0.0000
vt 0.5000 0.5710 0.0000
vt 0.6660 0.0020 0.0000
vt 0.6660 0.5710 0.0000
vt 0.8320 0.0020 0.0000
vt 0.8320 0.5710 0.0000
vt 0.9980 0.0020 0.0000
vt 0.9980 0.5710 0.0000
vt 0.1458 0.9103 0.0000
vt 0.0020 0.8273 0.0000
vt 0.1458 0.7443 0.0000
vt 0.0020 0.6613 0.0000
vt 0.1458 0.5783 0.0000
vt 0.2895 0.6613 0.0000
vt 0.2895 0.8273 0.0000
# 28 texture coords

o Cylinder070
g Cylinder070
usemtl wire_225087143
s off
f 1/1/1 2/2/1 3/3/1 
f 1/1/1 4/4/1 2/2/1 
f 1/1/2 5/5/2 4/4/2 
f 1/1/2 6/6/2 5/5/2 
f 1/1/1 7/7/1 6/6/1 
f 1/1/1 3/3/1 7/7/1 
f 3/8/3 2/9/3 8/10/3 9/11/3 
f 2/9/4 4/12/4 10/13/4 8/10/4 
f 4/12/5 5/14/5 11/15/5 10/13/5 
f 5/14/6 6/16/6 12/17/6 11/15/6 
f 6/16/7 7/18/7 13/19/7 12/17/7 
f 7/18/8 3/20/8 9/21/8 13/19/8 
f 9/22/9 8/23/9 14/24/9 
f 8/23/9 10/25/9 14/24/9 
f 10/25/9 11/26/9 14/24/9 
f 11/26/9 12/27/9 14/24/9 
f 12/27/9 13/28/9 14/24/9 
f 13/28/9 9/22/9 14/24/9 
# 6 polygons - 12 triangles

