# 3ds Max Wavefront OBJ Exporter v0.97b - (c)2007 guruware
# File Created: 26.04.2021 19:06:42

mtllib Handle.mtl

#
# object Object017
#

v  0.0293 -0.0000 -0.0000
v  0.0207 -0.0000 -0.0207
v  0.0207 0.2247 -0.0207
v  0.0293 0.2247 0.0000
v  -0.0000 0.0000 -0.0293
v  0.0000 0.2247 -0.0293
v  -0.0207 0.0000 -0.0207
v  -0.0207 0.2247 -0.0207
v  -0.0293 0.0000 0.0000
v  -0.0293 0.2247 0.0000
v  -0.0207 0.0000 0.0207
v  -0.0207 0.2247 0.0207
v  0.0000 -0.0000 0.0293
v  0.0000 0.2247 0.0293
v  0.0207 -0.0000 0.0207
v  0.0207 0.2247 0.0207
v  0.0000 0.2247 0.0000
v  0.0000 0.2008 0.0784
v  -0.0072 0.2038 0.0784
v  -0.0072 0.2038 -0.0784
v  0.0000 0.2008 -0.0784
v  -0.0102 0.2110 0.0784
v  -0.0102 0.2110 -0.0784
v  -0.0072 0.2182 0.0784
v  -0.0072 0.2182 -0.0784
v  0.0000 0.2212 0.0784
v  0.0000 0.2212 -0.0784
v  0.0072 0.2182 0.0784
v  0.0072 0.2182 -0.0784
v  0.0102 0.2110 0.0784
v  0.0102 0.2110 -0.0784
v  0.0072 0.2038 0.0784
v  0.0072 0.2038 -0.0784
v  -0.0784 0.2008 0.0000
v  -0.0784 0.2038 -0.0072
v  0.0784 0.2038 -0.0072
v  0.0784 0.2008 0.0000
v  -0.0784 0.2110 -0.0102
v  0.0784 0.2110 -0.0102
v  -0.0784 0.2182 -0.0072
v  0.0784 0.2182 -0.0072
v  -0.0784 0.2212 0.0000
v  0.0784 0.2212 0.0000
v  -0.0784 0.2182 0.0072
v  0.0784 0.2182 0.0072
v  -0.0784 0.2110 0.0102
v  0.0784 0.2110 0.0102
v  -0.0784 0.2038 0.0072
v  0.0784 0.2038 0.0072
v  -0.0009 0.2059 -0.0945
v  -0.0009 0.2161 -0.0902
v  0.0623 0.2161 -0.0641
v  0.0653 0.2059 -0.0671
v  -0.0009 0.2204 -0.0800
v  0.0551 0.2204 -0.0568
v  -0.0009 0.2161 -0.0697
v  0.0478 0.2161 -0.0495
v  -0.0009 0.2059 -0.0654
v  0.0448 0.2059 -0.0465
v  -0.0009 0.1956 -0.0697
v  0.0478 0.1956 -0.0495
v  -0.0009 0.1913 -0.0800
v  0.0551 0.1913 -0.0568
v  -0.0009 0.1956 -0.0902
v  0.0623 0.1956 -0.0641
v  0.0885 0.2161 -0.0009
v  0.0928 0.2059 -0.0009
v  0.0782 0.2204 -0.0009
v  0.0679 0.2161 -0.0009
v  0.0637 0.2059 -0.0009
v  0.0679 0.1956 -0.0009
v  0.0782 0.1913 -0.0009
v  0.0885 0.1956 -0.0009
v  0.0623 0.2161 0.0623
v  0.0653 0.2059 0.0653
v  0.0551 0.2204 0.0551
v  0.0478 0.2161 0.0478
v  0.0448 0.2059 0.0448
v  0.0478 0.1956 0.0478
v  0.0551 0.1913 0.0551
v  0.0623 0.1956 0.0623
v  -0.0009 0.2161 0.0885
v  -0.0009 0.2059 0.0927
v  -0.0009 0.2204 0.0782
v  -0.0009 0.2161 0.0679
v  -0.0009 0.2059 0.0637
v  -0.0009 0.1956 0.0679
v  -0.0009 0.1913 0.0782
v  -0.0009 0.1956 0.0885
v  -0.0641 0.2161 0.0623
v  -0.0671 0.2059 0.0653
v  -0.0568 0.2204 0.0551
v  -0.0495 0.2161 0.0478
v  -0.0465 0.2059 0.0448
v  -0.0495 0.1956 0.0478
v  -0.0568 0.1913 0.0551
v  -0.0641 0.1956 0.0623
v  -0.0902 0.2161 -0.0009
v  -0.0945 0.2059 -0.0009
v  -0.0800 0.2204 -0.0009
v  -0.0697 0.2161 -0.0009
v  -0.0654 0.2059 -0.0009
v  -0.0697 0.1956 -0.0009
v  -0.0800 0.1913 -0.0009
v  -0.0902 0.1956 -0.0009
v  -0.0641 0.2161 -0.0641
v  -0.0671 0.2059 -0.0671
v  -0.0568 0.2204 -0.0568
v  -0.0495 0.2161 -0.0495
v  -0.0465 0.2059 -0.0465
v  -0.0495 0.1956 -0.0495
v  -0.0568 0.1913 -0.0568
v  -0.0641 0.1956 -0.0641
v  -0.0736 0.0254 0.1097
v  0.0736 0.0254 0.1097
v  0.0736 0.0254 -0.1097
v  -0.0736 0.0254 -0.1097
v  -0.0736 0.0000 0.1097
v  0.0736 -0.0000 0.1097
v  0.0736 -0.0000 -0.1097
v  -0.0736 0.0000 -0.1097
# 121 vertices

vn 1.0000 -0.0000 -0.0000
vn 0.7071 -0.0000 -0.7071
vn 0.5490 0.6303 -0.5490
vn 0.7764 0.6303 0.0000
vn -0.0000 0.0000 -1.0000
vn 0.0000 0.6303 -0.7764
vn -0.7071 0.0000 -0.7071
vn -0.5490 0.6303 -0.5490
vn -1.0000 0.0000 0.0000
vn -0.7764 0.6303 0.0000
vn -0.7071 0.0000 0.7071
vn -0.5490 0.6303 0.5490
vn -0.0000 -0.0000 1.0000
vn 0.0000 0.6303 0.7764
vn 0.7071 -0.0000 0.7071
vn 0.5490 0.6303 0.5490
vn 0.0000 1.0000 0.0000
vn -0.0000 -1.0000 -0.0000
vn -0.7071 -0.7071 -0.0000
vn -1.0000 -0.0000 0.0000
vn -0.7071 0.7071 0.0000
vn -0.0000 1.0000 0.0000
vn 0.7071 0.7071 0.0000
vn 0.7071 -0.7071 -0.0000
vn -0.0000 -0.7071 -0.7071
vn -0.0000 -1.0000 0.0000
vn 0.0000 0.0000 -1.0000
vn 0.0000 0.7071 -0.7071
vn 0.0000 0.7071 0.7071
vn -0.0000 -0.7071 0.7071
vn 0.0000 0.6630 -0.7486
vn 0.5294 0.6630 -0.5294
vn 0.0000 0.9955 -0.0949
vn 0.0671 0.9955 -0.0671
vn 0.0000 0.7574 0.6530
vn -0.4617 0.7574 0.4617
vn -0.0000 -0.7574 0.6530
vn -0.4617 -0.7574 0.4617
vn -0.0000 -0.9955 -0.0949
vn 0.0671 -0.9955 -0.0671
vn -0.0000 -0.6630 -0.7486
vn 0.5294 -0.6630 -0.5294
vn 0.7486 0.6630 -0.0000
vn 0.0949 0.9955 0.0000
vn -0.6530 0.7574 0.0000
vn -1.0000 0.0000 -0.0000
vn -0.6530 -0.7574 -0.0000
vn 0.0949 -0.9955 -0.0000
vn 0.7486 -0.6630 -0.0000
vn 0.5294 0.6630 0.5294
vn 0.0671 0.9955 0.0671
vn -0.4617 0.7574 -0.4617
vn -0.4617 -0.7574 -0.4617
vn 0.0671 -0.9955 0.0671
vn 0.5294 -0.6630 0.5294
vn 0.0000 0.6630 0.7486
vn 0.0000 0.9955 0.0949
vn 0.0000 0.7574 -0.6530
vn -0.0000 -0.7574 -0.6530
vn -0.0000 -0.9955 0.0949
vn -0.0000 -0.6630 0.7486
vn -0.5294 0.6630 0.5294
vn -0.0671 0.9955 0.0671
vn 0.4617 0.7574 -0.4617
vn 0.4617 -0.7574 -0.4617
vn -0.0671 -0.9955 0.0671
vn -0.5294 -0.6630 0.5294
vn -0.7486 0.6630 -0.0000
vn -0.0949 0.9955 -0.0000
vn 0.6530 0.7574 0.0000
vn 1.0000 -0.0000 0.0000
vn 0.6530 -0.7574 0.0000
vn -0.0949 -0.9955 -0.0000
vn -0.7486 -0.6630 -0.0000
vn -0.5294 0.6630 -0.5294
vn -0.0671 0.9955 -0.0671
vn 0.4617 0.7574 0.4617
vn 0.4617 -0.7574 0.4617
vn -0.0671 -0.9955 -0.0671
vn -0.5294 -0.6630 -0.5294
vn -0.5774 0.5774 0.5774
vn 0.5774 0.5774 0.5774
vn 0.5774 0.5774 -0.5774
vn -0.5774 0.5774 -0.5774
# 84 vertex normals

vt 0.2797 0.9910 0.0000
vt 0.2321 0.9910 0.0000
vt 0.2321 0.5142 0.0000
vt 0.2797 0.5142 0.0000
vt 0.6132 0.9910 0.0000
vt 0.5655 0.9910 0.0000
vt 0.5655 0.5142 0.0000
vt 0.6132 0.5142 0.0000
vt 0.5179 0.9910 0.0000
vt 0.5179 0.5142 0.0000
vt 0.4702 0.9910 0.0000
vt 0.4702 0.5142 0.0000
vt 0.4226 0.9910 0.0000
vt 0.4226 0.5142 0.0000
vt 0.3750 0.9910 0.0000
vt 0.3750 0.5142 0.0000
vt 0.3273 0.9910 0.0000
vt 0.3273 0.5142 0.0000
vt 0.6184 0.5660 0.0000
vt 0.6518 0.5320 0.0000
vt 0.6761 0.5893 0.0000
vt 0.6994 0.5316 0.0000
vt 0.7334 0.5650 0.0000
vt 0.7338 0.6126 0.0000
vt 0.7004 0.6466 0.0000
vt 0.6528 0.6470 0.0000
vt 0.6188 0.6136 0.0000
vt 0.8893 0.9900 0.0000
vt 0.8728 0.9900 0.0000
vt 0.8728 0.6575 0.0000
vt 0.8893 0.6575 0.0000
vt 0.8563 0.9900 0.0000
vt 0.8563 0.6575 0.0000
vt 0.8398 0.9900 0.0000
vt 0.8398 0.6575 0.0000
vt 0.8233 0.9900 0.0000
vt 0.8233 0.6575 0.0000
vt 0.8068 0.9900 0.0000
vt 0.8068 0.6575 0.0000
vt 0.7903 0.9900 0.0000
vt 0.7903 0.6575 0.0000
vt 0.7738 0.9900 0.0000
vt 0.7738 0.6575 0.0000
vt 0.7573 0.9900 0.0000
vt 0.7573 0.6575 0.0000
vt 0.6184 0.6575 0.0000
vt 0.6349 0.6575 0.0000
vt 0.6349 0.9900 0.0000
vt 0.6184 0.9900 0.0000
vt 0.6514 0.6575 0.0000
vt 0.6514 0.9900 0.0000
vt 0.6679 0.6575 0.0000
vt 0.6679 0.9900 0.0000
vt 0.6844 0.6575 0.0000
vt 0.6844 0.9900 0.0000
vt 0.7009 0.6575 0.0000
vt 0.7009 0.9900 0.0000
vt 0.7174 0.6575 0.0000
vt 0.7174 0.9900 0.0000
vt 0.7339 0.6575 0.0000
vt 0.7339 0.9900 0.0000
vt 0.7504 0.6575 0.0000
vt 0.7504 0.9900 0.0000
vt 0.1156 0.0063 0.0000
vt 0.1443 0.0063 0.0000
vt 0.1443 0.1305 0.0000
vt 0.1156 0.1305 0.0000
vt 0.1721 0.0063 0.0000
vt 0.1721 0.1305 0.0000
vt 0.2001 0.0063 0.0000
vt 0.2001 0.1305 0.0000
vt 0.2266 0.0063 0.0000
vt 0.2266 0.1305 0.0000
vt 0.0020 0.0063 0.0000
vt 0.0295 0.0063 0.0000
vt 0.0295 0.1305 0.0000
vt 0.0020 0.1305 0.0000
vt 0.0573 0.0063 0.0000
vt 0.0573 0.1305 0.0000
vt 0.0860 0.0063 0.0000
vt 0.0860 0.1305 0.0000
vt 0.1443 0.2541 0.0000
vt 0.1156 0.2541 0.0000
vt 0.1721 0.2541 0.0000
vt 0.2001 0.2541 0.0000
vt 0.2266 0.2541 0.0000
vt 0.0295 0.2541 0.0000
vt 0.0020 0.2541 0.0000
vt 0.0573 0.2541 0.0000
vt 0.0860 0.2541 0.0000
vt 0.1443 0.3780 0.0000
vt 0.1156 0.3780 0.0000
vt 0.1721 0.3780 0.0000
vt 0.2001 0.3780 0.0000
vt 0.2266 0.3780 0.0000
vt 0.0295 0.3780 0.0000
vt 0.0020 0.3780 0.0000
vt 0.0573 0.3780 0.0000
vt 0.0860 0.3780 0.0000
vt 0.1443 0.5019 0.0000
vt 0.1156 0.5019 0.0000
vt 0.1721 0.5019 0.0000
vt 0.2001 0.5019 0.0000
vt 0.2266 0.5019 0.0000
vt 0.0295 0.5019 0.0000
vt 0.0020 0.5019 0.0000
vt 0.0573 0.5019 0.0000
vt 0.0860 0.5019 0.0000
vt 0.1443 0.6258 0.0000
vt 0.1156 0.6258 0.0000
vt 0.1721 0.6258 0.0000
vt 0.2001 0.6258 0.0000
vt 0.2266 0.6258 0.0000
vt 0.0295 0.6258 0.0000
vt 0.0020 0.6258 0.0000
vt 0.0573 0.6258 0.0000
vt 0.0860 0.6258 0.0000
vt 0.1443 0.7495 0.0000
vt 0.1156 0.7495 0.0000
vt 0.1721 0.7495 0.0000
vt 0.2001 0.7495 0.0000
vt 0.2266 0.7495 0.0000
vt 0.0295 0.7495 0.0000
vt 0.0020 0.7495 0.0000
vt 0.0573 0.7495 0.0000
vt 0.0860 0.7495 0.0000
vt 0.1443 0.8736 0.0000
vt 0.1156 0.8736 0.0000
vt 0.1721 0.8736 0.0000
vt 0.2001 0.8736 0.0000
vt 0.2266 0.8736 0.0000
vt 0.0295 0.8736 0.0000
vt 0.0020 0.8736 0.0000
vt 0.0573 0.8736 0.0000
vt 0.0860 0.8736 0.0000
vt 0.1443 0.9980 0.0000
vt 0.1156 0.9980 0.0000
vt 0.1721 0.9980 0.0000
vt 0.2001 0.9980 0.0000
vt 0.2266 0.9980 0.0000
vt 0.0295 0.9980 0.0000
vt 0.0020 0.9980 0.0000
vt 0.0573 0.9980 0.0000
vt 0.0860 0.9980 0.0000
vt 0.2861 0.3682 0.0000
vt 0.2860 0.0561 0.0000
vt 0.7513 0.0560 0.0000
vt 0.7514 0.3681 0.0000
vt 0.2321 0.3682 0.0000
vt 0.2321 0.0561 0.0000
vt 0.2860 0.0021 0.0000
vt 0.7513 0.0020 0.0000
vt 0.8053 0.0559 0.0000
vt 0.8054 0.3681 0.0000
vt 0.7514 0.4221 0.0000
vt 0.2861 0.4222 0.0000
# 156 texture coords

o Object017
g Object017
usemtl wire_184155229
s 8
f 1/1/1 2/2/2 3/3/3 4/4/4 
f 2/5/2 5/6/5 6/7/6 3/8/3 
f 5/6/5 7/9/7 8/10/8 6/7/6 
f 7/9/7 9/11/9 10/12/10 8/10/8 
f 9/11/9 11/13/11 12/14/12 10/12/10 
f 11/13/11 13/15/13 14/16/14 12/14/12 
f 13/15/13 15/17/15 16/18/16 14/16/14 
f 15/17/15 1/1/1 4/4/4 16/18/16 
s off
f 4/19/4 3/20/3 17/21/17 
f 3/20/3 6/22/6 17/21/17 
f 6/22/6 8/23/8 17/21/17 
f 8/23/8 10/24/10 17/21/17 
f 10/24/10 12/25/12 17/21/17 
f 12/25/12 14/26/14 17/21/17 
f 14/26/14 16/27/16 17/21/17 
f 16/27/16 4/19/4 17/21/17 
s 8
f 18/28/18 19/29/19 20/30/19 21/31/18 
f 19/29/19 22/32/20 23/33/9 20/30/19 
f 22/32/20 24/34/21 25/35/21 23/33/9 
f 24/34/21 26/36/17 27/37/22 25/35/21 
f 26/36/17 28/38/23 29/39/23 27/37/22 
f 28/38/23 30/40/1 31/41/1 29/39/23 
f 30/40/1 32/42/24 33/43/24 31/41/1 
f 32/42/24 18/44/18 21/45/18 33/43/24 
f 34/46/18 35/47/25 36/48/25 37/49/26 
f 35/47/25 38/50/27 39/51/27 36/48/25 
f 38/50/27 40/52/28 41/53/28 39/51/27 
f 40/52/28 42/54/17 43/55/17 41/53/28 
f 42/54/17 44/56/29 45/57/29 43/55/17 
f 44/56/29 46/58/13 47/59/13 45/57/29 
f 46/58/13 48/60/30 49/61/30 47/59/13 
f 48/60/30 34/62/18 37/63/26 49/61/30 
s 1
f 50/64/27 51/65/31 52/66/32 53/67/2 
f 51/65/31 54/68/33 55/69/34 52/66/32 
f 54/68/33 56/70/35 57/71/36 55/69/34 
f 56/70/35 58/72/13 59/73/11 57/71/36 
f 58/74/13 60/75/37 61/76/38 59/77/11 
f 60/75/37 62/78/39 63/79/40 61/76/38 
f 62/78/39 64/80/41 65/81/42 63/79/40 
f 64/80/41 50/64/27 53/67/2 65/81/42 
f 53/67/2 52/66/32 66/82/43 67/83/1 
f 52/66/32 55/69/34 68/84/44 66/82/43 
f 55/69/34 57/71/36 69/85/45 68/84/44 
f 57/71/36 59/73/11 70/86/46 69/85/45 
f 59/77/11 61/76/38 71/87/47 70/88/46 
f 61/76/38 63/79/40 72/89/48 71/87/47 
f 63/79/40 65/81/42 73/90/49 72/89/48 
f 65/81/42 53/67/2 67/83/1 73/90/49 
f 67/83/1 66/82/43 74/91/50 75/92/15 
f 66/82/43 68/84/44 76/93/51 74/91/50 
f 68/84/44 69/85/45 77/94/52 76/93/51 
f 69/85/45 70/86/46 78/95/7 77/94/52 
f 70/88/46 71/87/47 79/96/53 78/97/7 
f 71/87/47 72/89/48 80/98/54 79/96/53 
f 72/89/48 73/90/49 81/99/55 80/98/54 
f 73/90/49 67/83/1 75/92/15 81/99/55 
f 75/92/15 74/91/50 82/100/56 83/101/13 
f 74/91/50 76/93/51 84/102/57 82/100/56 
f 76/93/51 77/94/52 85/103/58 84/102/57 
f 77/94/52 78/95/7 86/104/27 85/103/58 
f 78/97/7 79/96/53 87/105/59 86/106/27 
f 79/96/53 80/98/54 88/107/60 87/105/59 
f 80/98/54 81/99/55 89/108/61 88/107/60 
f 81/99/55 75/92/15 83/101/13 89/108/61 
f 83/101/13 82/100/56 90/109/62 91/110/11 
f 82/100/56 84/102/57 92/111/63 90/109/62 
f 84/102/57 85/103/58 93/112/64 92/111/63 
f 85/103/58 86/104/27 94/113/2 93/112/64 
f 86/106/27 87/105/59 95/114/65 94/115/2 
f 87/105/59 88/107/60 96/116/66 95/114/65 
f 88/107/60 89/108/61 97/117/67 96/116/66 
f 89/108/61 83/101/13 91/110/11 97/117/67 
f 91/110/11 90/109/62 98/118/68 99/119/46 
f 90/109/62 92/111/63 100/120/69 98/118/68 
f 92/111/63 93/112/64 101/121/70 100/120/69 
f 93/112/64 94/113/2 102/122/71 101/121/70 
f 94/115/2 95/114/65 103/123/72 102/124/71 
f 95/114/65 96/116/66 104/125/73 103/123/72 
f 96/116/66 97/117/67 105/126/74 104/125/73 
f 97/117/67 91/110/11 99/119/46 105/126/74 
f 99/119/46 98/118/68 106/127/75 107/128/7 
f 98/118/68 100/120/69 108/129/76 106/127/75 
f 100/120/69 101/121/70 109/130/77 108/129/76 
f 101/121/70 102/122/71 110/131/15 109/130/77 
f 102/124/71 103/123/72 111/132/78 110/133/15 
f 103/123/72 104/125/73 112/134/79 111/132/78 
f 104/125/73 105/126/74 113/135/80 112/134/79 
f 105/126/74 99/119/46 107/128/7 113/135/80 
f 107/128/7 106/127/75 51/136/31 50/137/27 
f 106/127/75 108/129/76 54/138/33 51/136/31 
f 108/129/76 109/130/77 56/139/35 54/138/33 
f 109/130/77 110/131/15 58/140/13 56/139/35 
f 110/133/15 111/132/78 60/141/37 58/142/13 
f 111/132/78 112/134/79 62/143/39 60/141/37 
f 112/134/79 113/135/80 64/144/41 62/143/39 
f 113/135/80 107/128/7 50/137/27 64/144/41 
s 4
f 114/145/81 115/146/82 116/147/83 117/148/84 
s 8
f 118/149/11 119/150/15 115/146/82 114/145/81 
s 16
f 119/151/15 120/152/2 116/147/83 115/146/82 
s 32
f 120/153/2 121/154/7 117/148/84 116/147/83 
s 64
f 121/155/7 118/156/11 114/145/81 117/148/84 
# 93 polygons - 8 triangles

