# 3ds Max Wavefront OBJ Exporter v0.97b - (c)2007 guruware
# File Created: 26.04.2021 20:54:45

mtllib chair.mtl

#
# object Object015
#

v  -0.0707 0.1127 -0.0153
v  -0.1023 0.1127 0.0002
v  -0.1023 0.2125 0.0002
v  -0.0707 0.2125 -0.0153
v  -0.1023 0.1127 0.1622
v  -0.0745 0.1127 0.1899
v  -0.0745 0.2125 0.1899
v  -0.1023 0.2125 0.1622
v  0.0868 0.1127 0.1899
v  0.1023 0.1127 0.1745
v  0.1023 0.2125 0.1745
v  0.0868 0.2125 0.1899
v  0.0884 0.1127 0.0027
v  0.0630 0.1127 -0.0153
v  0.0630 0.2125 -0.0153
v  0.0884 0.2125 0.0027
v  -0.0000 0.1127 0.0873
v  0.0000 0.2125 0.0873
v  -0.1052 0.1118 -0.0000
v  -0.1052 0.3599 0.0000
v  -0.1052 0.3599 -0.0606
v  -0.1052 0.1118 -0.0606
v  -0.0715 0.3902 0.0000
v  0.0715 0.3902 0.0000
v  0.0715 0.3902 -0.0606
v  -0.0715 0.3902 -0.0606
v  0.1052 0.3599 0.0000
v  0.1052 0.1118 -0.0000
v  0.1052 0.1118 -0.0606
v  0.1052 0.3599 -0.0606
v  0.0000 0.2451 0.0000
v  0.0000 0.2451 -0.0606
v  -0.0938 0.0010 0.1496
v  -0.0938 0.0010 0.1754
v  -0.0938 0.1131 0.1754
v  -0.0938 0.1131 0.1496
v  -0.0655 0.0010 0.1754
v  -0.0655 0.1131 0.1754
v  -0.0655 0.0010 0.1496
v  -0.0655 0.1131 0.1496
v  0.0655 0.0015 0.1496
v  0.0655 0.0015 0.1754
v  0.0655 0.1131 0.1754
v  0.0655 0.1131 0.1496
v  0.0938 0.0015 0.1754
v  0.0938 0.1131 0.1754
v  0.0938 0.0015 0.1496
v  0.0938 0.1131 0.1496
v  0.0655 0.0010 -0.0600
v  0.0655 0.0010 -0.0342
v  0.0655 0.1131 -0.0342
v  0.0655 0.1131 -0.0600
v  0.0938 0.0010 -0.0342
v  0.0938 0.1131 -0.0342
v  0.0938 0.0010 -0.0600
v  0.0938 0.1131 -0.0600
v  -0.0938 0.0010 -0.0600
v  -0.0938 0.0010 -0.0342
v  -0.0938 0.1131 -0.0342
v  -0.0938 0.1131 -0.0600
v  -0.0655 0.0010 -0.0342
v  -0.0655 0.1131 -0.0342
v  -0.0655 0.0010 -0.0600
v  -0.0655 0.1131 -0.0600
# 64 vertices

vn -0.4401 0.0000 -0.8980
vn -0.7071 -0.0000 0.7071
vn 0.7071 -0.0000 0.7071
vn 0.5769 0.0000 -0.8168
vn -1.0000 0.0000 0.0000
vn -0.0000 0.0000 -1.0000
vn 0.0000 -0.0000 1.0000
vn 0.9968 -0.0000 -0.0805
vn -0.0000 -1.0000 -0.0000
vn 0.0000 1.0000 0.0000
vn 1.0000 -0.0000 -0.0000
vn -0.6690 0.7432 0.0000
vn 0.6690 0.7432 0.0000
vn 0.0000 0.0000 -1.0000
vn -1.0000 0.0000 -0.0000
vn 1.0000 -0.0000 0.0000
# 16 vertex normals

vt 0.3660 0.0072 0.0000
vt 0.4144 0.0130 0.0000
vt 0.4015 0.1635 0.0000
vt 0.3590 0.1473 0.0000
vt 0.4154 0.5488 0.0000
vt 0.3588 0.5641 0.0000
vt 0.3523 0.4266 0.0000
vt 0.3942 0.4019 0.0000
vt 0.1452 0.5640 0.0000
vt 0.1252 0.5663 0.0000
vt 0.1261 0.4088 0.0000
vt 0.1479 0.4234 0.0000
vt 0.1448 0.0052 0.0000
vt 0.1887 0.0020 0.0000
vt 0.1875 0.1417 0.0000
vt 0.1501 0.1571 0.0000
vt 0.5452 0.1704 0.0000
vt 0.5380 0.4038 0.0000
vt 0.0020 0.4139 0.0000
vt 0.0049 0.1474 0.0000
vt 0.9741 0.5550 0.0000
vt 0.9930 0.5922 0.0000
vt 0.8383 0.6541 0.0000
vt 0.9052 0.8230 0.0000
vt 0.8777 0.8347 0.0000
vt 0.6890 0.7468 0.0000
vt 0.6734 0.6956 0.0000
vt 0.7714 0.4851 0.0000
vt 0.8178 0.4822 0.0000
vt 0.2632 0.2849 0.0000
vt 0.6346 0.0039 0.0000
vt 0.6415 0.3634 0.0000
vt 0.5543 0.3638 0.0000
vt 0.5475 0.0068 0.0000
vt 0.6881 0.3938 0.0000
vt 0.8640 0.3931 0.0000
vt 0.8741 0.4746 0.0000
vt 0.6782 0.4750 0.0000
vt 0.9103 0.3619 0.0000
vt 0.9113 0.0020 0.0000
vt 0.9980 0.0034 0.0000
vt 0.9980 0.3605 0.0000
vt 0.0089 0.9858 0.0000
vt 0.0067 0.7144 0.0000
vt 0.0935 0.7136 0.0000
vt 0.0958 0.9850 0.0000
vt 0.6137 0.4553 0.0000
vt 0.9387 0.4540 0.0000
vt 0.7746 0.1899 0.0000
vt 0.4492 0.7107 0.0000
vt 0.2857 0.8477 0.0000
vt 0.4930 0.7537 0.0000
vt 0.4945 0.9383 0.0000
vt 0.4515 0.9821 0.0000
vt 0.5375 0.8179 0.0000
vt 0.5741 0.8179 0.0000
vt 0.5741 0.9786 0.0000
vt 0.5375 0.9786 0.0000
vt 0.6108 0.8179 0.0000
vt 0.6108 0.9786 0.0000
vt 0.6478 0.8179 0.0000
vt 0.6478 0.9786 0.0000
vt 0.5009 0.8179 0.0000
vt 0.5009 0.9786 0.0000
vt 0.6609 0.5615 0.0000
vt 0.6609 0.5982 0.0000
vt 0.5009 0.5982 0.0000
vt 0.5009 0.5615 0.0000
vt 0.6609 0.6349 0.0000
vt 0.5009 0.6349 0.0000
vt 0.6609 0.6716 0.0000
vt 0.5009 0.6716 0.0000
vt 0.6609 0.7080 0.0000
vt 0.5009 0.7080 0.0000
vt 0.7650 0.9786 0.0000
vt 0.7283 0.9786 0.0000
vt 0.7283 0.8179 0.0000
vt 0.7650 0.8179 0.0000
vt 0.6917 0.9786 0.0000
vt 0.6917 0.8179 0.0000
vt 0.6547 0.9786 0.0000
vt 0.6547 0.8179 0.0000
vt 0.8016 0.9786 0.0000
vt 0.8016 0.8179 0.0000
vt 0.5824 0.4076 0.0000
vt 0.5824 0.4443 0.0000
vt 0.4216 0.4443 0.0000
vt 0.4216 0.4076 0.0000
vt 0.5824 0.4810 0.0000
vt 0.4216 0.4810 0.0000
vt 0.5824 0.5177 0.0000
vt 0.4216 0.5177 0.0000
vt 0.5824 0.5542 0.0000
vt 0.4216 0.5542 0.0000
# 94 texture coords

o Object015
g Object015
usemtl wire_088144225
s off
f 1/1/1 2/2/1 3/3/1 4/4/1 
f 5/5/2 6/6/2 7/7/2 8/8/2 
f 9/9/3 10/10/3 11/11/3 12/12/3 
f 13/13/4 14/14/4 15/15/4 16/16/4 
f 2/17/5 5/18/5 8/8/5 3/3/5 
f 4/4/6 15/15/6 14/14/6 1/1/6 
f 6/6/7 9/9/7 12/12/7 7/7/7 
f 10/19/8 13/20/8 16/16/8 11/11/8 
f 14/21/9 13/22/9 17/23/9 
f 13/22/9 10/24/9 17/23/9 
f 10/24/9 9/25/9 17/23/9 
f 9/25/9 6/26/9 17/23/9 
f 6/26/9 5/27/9 17/23/9 
f 5/27/9 2/28/9 17/23/9 
f 2/28/9 1/29/9 17/23/9 
f 1/29/9 14/21/9 17/23/9 
f 4/4/10 3/3/10 18/30/10 
f 3/3/10 8/8/10 18/30/10 
f 8/8/10 7/7/10 18/30/10 
f 7/7/10 12/12/10 18/30/10 
f 12/12/10 11/11/10 18/30/10 
f 11/11/10 16/16/10 18/30/10 
f 16/16/10 15/15/10 18/30/10 
f 15/15/10 4/4/10 18/30/10 
f 19/31/5 20/32/5 21/33/5 22/34/5 
f 23/35/10 24/36/10 25/37/10 26/38/10 
f 27/39/11 28/40/11 29/41/11 30/42/11 
f 28/43/9 19/44/9 22/45/9 29/46/9 
f 20/32/12 23/35/12 26/38/12 21/47/12 
f 24/36/13 27/39/13 30/48/13 25/37/13 
f 19/31/7 28/40/7 31/49/7 
f 28/40/7 27/39/7 31/49/7 
f 27/39/7 24/36/7 31/49/7 
f 24/36/7 23/35/7 31/49/7 
f 23/35/7 20/32/7 31/49/7 
f 20/32/7 19/31/7 31/49/7 
f 22/45/6 21/50/6 32/51/6 
f 21/50/6 26/52/6 32/51/6 
f 26/52/6 25/53/6 32/51/6 
f 25/53/14 30/54/14 32/51/14 
f 30/54/6 29/46/6 32/51/6 
f 29/46/6 22/45/6 32/51/6 
f 33/55/5 34/56/5 35/57/5 36/58/5 
f 34/56/7 37/59/7 38/60/7 35/57/7 
f 37/59/11 39/61/11 40/62/11 38/60/11 
f 39/63/6 33/55/6 36/58/6 40/64/6 
f 41/65/5 42/66/5 43/67/5 44/68/5 
f 42/66/7 45/69/7 46/70/7 43/67/7 
f 45/69/11 47/71/11 48/72/11 46/70/11 
f 47/71/6 41/73/6 44/74/6 48/72/6 
f 49/75/15 50/76/15 51/77/15 52/78/15 
f 50/76/7 53/79/7 54/80/7 51/77/7 
f 53/79/11 55/81/11 56/82/11 54/80/11 
f 55/83/6 49/75/6 52/78/6 56/84/6 
f 57/85/5 58/86/5 59/87/5 60/88/5 
f 58/86/7 61/89/7 62/90/7 59/87/7 
f 61/89/16 63/91/16 64/92/16 62/90/16 
f 63/91/6 57/93/6 60/94/6 64/92/6 
# 30 polygons - 28 triangles

