# 3ds Max Wavefront OBJ Exporter v0.97b - (c)2007 guruware
# File Created: 26.04.2021 20:47:12

mtllib table.mtl

#
# object Box267
#

v  -0.5000 0.3012 -0.1500
v  -0.5000 0.3012 0.1500
v  0.5000 0.3012 0.1500
v  0.5000 0.3012 -0.1500
v  -0.5000 0.0012 -0.1500
v  -0.5000 0.0012 0.1500
v  0.5000 0.0012 0.1500
v  0.5000 0.0012 -0.1500
# 8 vertices

vn 0.0000 1.0000 -0.0000
vn -1.0000 0.0000 -0.0000
vn -0.0000 -0.0000 1.0000
vn 1.0000 -0.0000 0.0000
# 4 vertex normals

vt 0.2000 0.3800 0.0000
vt 0.2000 0.2000 0.0000
vt 0.8000 0.2000 0.0000
vt 0.8000 0.3800 0.0000
vt 0.0200 0.0200 0.0000
vt 0.2000 0.0200 0.0000
vt 0.0200 0.2000 0.0000
vt 0.8000 0.0200 0.0000
vt 0.9800 0.0200 0.0000
vt 0.9800 0.2000 0.0000
# 10 texture coords

o Box267
g Box267
usemtl wire_135059008
s off
f 1/1/1 2/2/1 3/3/1 4/4/1 
f 5/5/2 6/6/2 2/2/2 1/7/2 
f 6/6/3 7/8/3 3/3/3 2/2/3 
f 7/8/4 8/9/4 4/10/4 3/3/4 
# 4 polygons

