# 3ds Max Wavefront OBJ Exporter v0.97b - (c)2007 guruware
# File Created: 26.04.2021 22:39:47

mtllib Platform_airlock.mtl

#
# object Box287
#

v  -0.1676 0.0000 -0.0982
v  0.0816 0.0000 -0.0982
v  0.0816 0.0000 0.2345
v  -0.1676 0.0000 0.2345
v  -0.1667 0.0382 0.2345
v  0.0828 0.0382 0.2345
v  0.0828 0.0382 -0.0982
v  -0.1667 0.0382 -0.0982
v  0.8759 0.0000 0.2345
v  0.8759 0.0000 -0.0982
v  0.8666 0.0382 -0.0982
v  0.8666 0.0382 0.2345
v  0.0816 0.0000 -0.9277
v  -0.1676 0.0000 -0.9277
v  -0.1667 0.0382 -0.9277
v  0.0828 0.0382 -0.9277
v  -0.2531 0.0000 -0.0982
v  -0.2531 0.0000 0.2345
v  -0.2531 0.0382 0.2345
v  -0.2531 0.0382 -0.0982
# 20 vertices

vn 0.0000 -1.0000 -0.0000
vn 0.0000 1.0000 -0.0000
vn 0.0000 0.0000 1.0000
vn 0.9712 0.2383 -0.0000
vn 0.0000 0.0000 -1.0000
vn -1.0000 0.0000 -0.0000
vn -0.9997 0.0244 -0.0000
vn 0.9995 -0.0311 -0.0000
# 8 vertex normals

vt 0.0212 0.9231 0.0000
vt 0.0757 0.9231 0.0000
vt 0.0756 0.9960 0.0000
vt 0.0211 0.9959 0.0000
vt 0.0206 0.0118 0.0000
vt 0.0752 0.0127 0.0000
vt 0.0741 0.0856 0.0000
vt 0.0194 0.0847 0.0000
vt 0.2659 0.0093 0.0000
vt 0.2282 0.0093 0.0000
vt 0.2282 0.0005 0.0000
vt 0.2659 0.0005 0.0000
vt 0.1119 0.0093 0.0000
vt 0.0023 0.0093 0.0000
vt 0.0023 0.0005 0.0000
vt 0.1119 0.0005 0.0000
vt 0.6406 0.0093 0.0000
vt 0.5193 0.0093 0.0000
vt 0.5193 0.0005 0.0000
vt 0.6406 0.0005 0.0000
vt 0.3602 0.0093 0.0000
vt 0.3131 0.0093 0.0000
vt 0.3131 0.0005 0.0000
vt 0.3602 0.0005 0.0000
vt 0.2497 0.9234 0.0000
vt 0.2496 0.9962 0.0000
vt 0.0023 0.9959 0.0000
vt 0.0024 0.9231 0.0000
vt 0.2469 0.0155 0.0000
vt 0.2457 0.0883 0.0000
vt 0.0005 0.0844 0.0000
vt 0.0017 0.0115 0.0000
vt 0.4632 0.0093 0.0000
vt 0.4632 0.0005 0.0000
vt 0.8232 0.0005 0.0000
vt 0.9995 0.0005 0.0000
vt 0.9995 0.0093 0.0000
vt 0.8232 0.0093 0.0000
vt 0.0214 0.7414 0.0000
vt 0.0760 0.7415 0.0000
vt 0.0711 0.2672 0.0000
vt 0.0165 0.2663 0.0000
# 42 texture coords

o Box287
g Box287
usemtl wire_113135006
s 2
f 1/1/1 2/2/1 3/3/1 4/4/1 
s 4
f 5/5/2 6/6/2 7/7/2 8/8/2 
s 8
f 4/9/3 3/10/3 6/11/3 5/12/3 
s 16
f 9/13/4 10/14/4 11/15/4 12/16/4 
s 32
f 13/17/5 14/18/5 15/19/5 16/20/5 
s 64
f 17/21/6 18/22/6 19/23/6 20/24/6 
s 2
f 2/2/1 10/25/1 9/26/1 3/3/1 
f 4/4/1 18/27/1 17/28/1 1/1/1 
s 4
f 6/6/2 12/29/2 11/30/2 7/7/2 
f 8/8/2 20/31/2 19/32/2 5/5/2 
s 8
f 3/10/3 9/13/3 12/16/3 6/11/3 
f 5/12/3 19/23/3 18/22/3 4/9/3 
s 32
f 1/33/5 17/21/5 20/24/5 8/34/5 
f 7/35/5 11/36/5 10/37/5 2/38/5 
s off
f 2/2/1 1/1/1 14/39/1 13/40/1 
f 1/33/7 8/34/7 15/19/7 14/18/7 
f 8/8/2 7/7/2 16/41/2 15/42/2 
f 7/35/8 2/38/8 13/17/8 16/20/8 
# 18 polygons

