# 3ds Max Wavefront OBJ Exporter v0.97b - (c)2007 guruware
# File Created: 26.04.2021 22:41:06

mtllib Platform2_airlock.mtl

#
# object Box288
#

v  1.1774 0.0000 -0.0982
v  1.1774 0.0000 0.2345
v  0.9282 0.0000 0.2345
v  0.9282 0.0000 -0.0982
v  1.1786 0.0382 0.2345
v  1.1786 0.0382 -0.0982
v  0.9291 0.0382 -0.0982
v  0.9291 0.0382 0.2345
v  1.9106 0.0000 0.2345
v  1.9106 0.0000 -0.0982
v  1.9012 0.0382 -0.0982
v  1.9012 0.0382 0.2345
v  1.1774 0.0000 -0.9277
v  0.9282 0.0000 -0.9277
v  0.9291 0.0382 -0.9277
v  1.1786 0.0382 -0.9277
v  -0.9456 0.0000 -0.0982
v  -0.9456 0.0000 0.2345
v  -0.9456 0.0382 0.2345
v  -0.9456 0.0382 -0.0982
# 20 vertices

vn 0.0000 -1.0000 -0.0000
vn 0.0000 1.0000 -0.0000
vn 0.0000 0.0000 1.0000
vn 0.9712 0.2383 -0.0000
vn 0.0000 0.0000 -1.0000
vn -1.0000 0.0000 -0.0000
vn -0.9997 0.0243 -0.0000
vn 0.9995 -0.0311 -0.0000
# 8 vertex normals

vt 0.1077 0.2146 0.0000
vt 0.1087 0.1748 0.0000
vt 0.1385 0.1756 0.0000
vt 0.1375 0.2153 0.0000
vt 0.2736 0.0253 0.0000
vt 0.2760 0.0650 0.0000
vt 0.2462 0.0668 0.0000
vt 0.2438 0.0271 0.0000
vt 0.8541 0.3226 0.0000
vt 0.8542 0.3271 0.0000
vt 0.8245 0.3272 0.0000
vt 0.8244 0.3226 0.0000
vt 0.9415 0.3226 0.0000
vt 0.9800 0.3321 0.0000
vt 0.9789 0.3366 0.0000
vt 0.9404 0.3272 0.0000
vt 0.2079 0.3234 0.0000
vt 0.2378 0.3231 0.0000
vt 0.2377 0.3277 0.0000
vt 0.2078 0.3280 0.0000
vt 0.5611 0.3231 0.0000
vt 0.6009 0.3230 0.0000
vt 0.6009 0.3275 0.0000
vt 0.5611 0.3277 0.0000
vt 0.0200 0.2124 0.0000
vt 0.0210 0.1726 0.0000
vt 0.3625 0.1813 0.0000
vt 0.3615 0.2211 0.0000
vt 0.3598 0.0200 0.0000
vt 0.3623 0.0597 0.0000
vt 0.0224 0.0805 0.0000
vt 0.0200 0.0408 0.0000
vt 0.3371 0.3248 0.0000
vt 0.3370 0.3293 0.0000
vt 0.1081 0.3258 0.0000
vt 0.0212 0.3267 0.0000
vt 0.0200 0.3221 0.0000
vt 0.1082 0.3213 0.0000
vt 0.1349 0.3145 0.0000
vt 0.1051 0.3138 0.0000
vt 0.2821 0.1640 0.0000
vt 0.2523 0.1658 0.0000
# 42 texture coords

o Box288
g Box288
usemtl wire_113135006
s 2
f 1/1/1 2/2/1 3/3/1 4/4/1 
s 4
f 5/5/2 6/6/2 7/7/2 8/8/2 
s 8
f 2/9/3 5/10/3 8/11/3 3/12/3 
s 16
f 9/13/4 10/14/4 11/15/4 12/16/4 
s 32
f 13/17/5 14/18/5 15/19/5 16/20/5 
s 64
f 17/21/6 18/22/6 19/23/6 20/24/6 
s 2
f 10/25/1 9/26/1 2/2/1 1/1/1 
f 18/27/1 17/28/1 4/4/1 3/3/1 
s 4
f 12/29/2 11/30/2 6/6/2 5/5/2 
f 20/31/2 19/32/2 8/8/2 7/7/2 
s 8
f 9/13/3 12/16/3 5/10/3 2/9/3 
f 19/23/3 18/22/3 3/12/3 8/11/3 
s 32
f 4/33/5 17/21/5 20/24/5 7/34/5 
f 6/35/5 11/36/5 10/37/5 1/38/5 
s off
f 1/1/1 4/4/1 14/39/1 13/40/1 
f 4/33/7 7/34/7 15/19/7 14/18/7 
f 7/7/2 6/6/2 16/41/2 15/42/2 
f 6/35/8 1/38/8 13/17/8 16/20/8 
# 18 polygons

