# 3ds Max Wavefront OBJ Exporter v0.97b - (c)2007 guruware
# File Created: 26.04.2021 20:48:42

mtllib support_Submarine.mtl

#
# object Cylinder071
#

v  -0.0000 -0.2557 0.1066
v  -0.2567 -0.3775 0.1066
v  -0.2567 -0.3775 0.2709
v  0.0000 -0.2557 0.2709
v  -0.3077 -0.9397 0.1066
v  -0.3077 -0.9397 0.2709
v  0.2567 -0.3775 0.2709
v  0.2567 -0.3775 0.1066
v  0.3077 -0.9397 0.2709
v  0.3077 -0.9397 0.1066
v  -0.2232 -0.4090 0.2709
v  -0.2232 -0.4090 0.1066
v  -0.0000 -0.3019 0.1066
v  0.0000 -0.3019 0.2709
v  -0.2652 -0.9490 0.2709
v  -0.2652 -0.9490 0.1066
v  0.2232 -0.4090 0.2709
v  0.2232 -0.4090 0.1066
v  0.2652 -0.9490 0.2709
v  0.2652 -0.9490 0.1066
v  -0.0000 -0.2557 -0.2709
v  -0.2567 -0.3775 -0.2709
v  -0.2567 -0.3775 -0.1066
v  -0.0000 -0.2557 -0.1066
v  -0.3077 -0.9397 -0.2709
v  -0.3077 -0.9397 -0.1066
v  0.2567 -0.3775 -0.1066
v  0.2567 -0.3775 -0.2709
v  0.3077 -0.9397 -0.1066
v  0.3077 -0.9397 -0.2709
v  -0.2232 -0.4090 -0.1066
v  -0.2232 -0.4090 -0.2709
v  -0.0000 -0.3019 -0.2709
v  -0.0000 -0.3019 -0.1066
v  -0.2652 -0.9490 -0.1066
v  -0.2652 -0.9490 -0.2709
v  0.2232 -0.4090 -0.1066
v  0.2232 -0.4090 -0.2709
v  0.2652 -0.9490 -0.1066
v  0.2652 -0.9490 -0.2709
v  -0.0439 -0.2833 0.1484
v  -0.0439 -0.2833 0.2291
v  -0.0504 -0.0036 0.2291
v  -0.0504 -0.0036 0.1484
v  0.0253 -0.2823 0.2291
v  0.0188 -0.0026 0.2291
v  0.0253 -0.2823 0.1484
v  0.0188 -0.0026 0.1484
v  -0.0439 -0.2823 -0.2291
v  -0.0439 -0.2823 -0.1484
v  -0.0504 -0.0026 -0.1484
v  -0.0504 -0.0026 -0.2291
v  0.0253 -0.2814 -0.1484
v  0.0188 -0.0016 -0.1484
v  0.0253 -0.2814 -0.2291
v  0.0188 -0.0016 -0.2291
# 56 vertices

vn -0.4287 0.9035 -0.0000
vn -0.9959 0.0903 0.0000
vn 0.4287 0.9035 -0.0000
vn 0.9959 0.0903 0.0000
vn 0.4327 -0.9015 0.0000
vn 0.9970 -0.0776 -0.0000
vn -0.4327 -0.9015 0.0000
vn -0.9970 -0.0776 -0.0000
vn -0.0000 -0.0000 -1.0000
vn 0.0000 -0.0000 1.0000
vn -0.2133 -0.9770 0.0000
vn 0.0000 0.0000 1.0000
vn 0.2133 -0.9770 0.0000
vn 0.0000 -0.0000 -1.0000
vn -0.0000 0.0000 1.0000
vn -0.9997 -0.0232 -0.0000
vn 0.9997 0.0232 0.0000
vn 0.0000 0.0000 -1.0000
# 18 vertex normals

vt 0.9928 0.4778 0.0000
vt 0.9928 0.6297 0.0000
vt 0.9094 0.6297 0.0000
vt 0.9094 0.4778 0.0000
vt 0.9928 0.8485 0.0000
vt 0.9094 0.8485 0.0000
vt 0.9094 0.2646 0.0000
vt 0.9928 0.2646 0.0000
vt 0.9094 0.0866 0.0000
vt 0.9928 0.0866 0.0000
vt 0.8551 0.6297 0.0000
vt 0.7915 0.6297 0.0000
vt 0.7915 0.4778 0.0000
vt 0.8551 0.4778 0.0000
vt 0.8551 0.8485 0.0000
vt 0.7915 0.8485 0.0000
vt 0.8551 0.2646 0.0000
vt 0.7915 0.2646 0.0000
vt 0.8551 0.0866 0.0000
vt 0.7915 0.0866 0.0000
vt 0.5580 0.5783 0.0000
vt 0.5580 0.3744 0.0000
vt 0.5816 0.3744 0.0000
vt 0.5816 0.5783 0.0000
vt 0.5580 0.8453 0.0000
vt 0.5816 0.8453 0.0000
vt 0.9094 0.9995 0.0000
vt 0.8551 0.9995 0.0000
vt 0.5580 0.2324 0.0000
vt 0.5816 0.2324 0.0000
vt 0.9094 0.0035 0.0000
vt 0.8551 0.0035 0.0000
vt 0.5580 0.0139 0.0000
vt 0.5816 0.0139 0.0000
vt 0.7887 0.4778 0.0000
vt 0.7887 0.6297 0.0000
vt 0.7053 0.6297 0.0000
vt 0.7053 0.4778 0.0000
vt 0.7887 0.8485 0.0000
vt 0.7053 0.8485 0.0000
vt 0.7053 0.2646 0.0000
vt 0.7887 0.2646 0.0000
vt 0.7053 0.0866 0.0000
vt 0.7887 0.0866 0.0000
vt 0.6509 0.6297 0.0000
vt 0.5873 0.6297 0.0000
vt 0.5873 0.4778 0.0000
vt 0.6509 0.4778 0.0000
vt 0.6509 0.8485 0.0000
vt 0.5873 0.8485 0.0000
vt 0.6509 0.2646 0.0000
vt 0.5873 0.2646 0.0000
vt 0.6509 0.0866 0.0000
vt 0.5873 0.0866 0.0000
vt 0.5301 0.5783 0.0000
vt 0.5301 0.3744 0.0000
vt 0.5537 0.3744 0.0000
vt 0.5537 0.5783 0.0000
vt 0.5301 0.8453 0.0000
vt 0.5537 0.8453 0.0000
vt 0.7053 0.9995 0.0000
vt 0.6509 0.9995 0.0000
vt 0.5301 0.2324 0.0000
vt 0.5537 0.2324 0.0000
vt 0.7053 0.0035 0.0000
vt 0.6509 0.0035 0.0000
vt 0.5301 0.0139 0.0000
vt 0.5537 0.0139 0.0000
vt 0.3708 0.1498 0.0000
vt 0.4100 0.1498 0.0000
vt 0.4099 0.2858 0.0000
vt 0.3707 0.2858 0.0000
vt 0.4489 0.1493 0.0000
vt 0.4489 0.2853 0.0000
vt 0.4882 0.1493 0.0000
vt 0.4881 0.2853 0.0000
vt 0.5272 0.1499 0.0000
vt 0.5271 0.2859 0.0000
vt 0.3708 0.0124 0.0000
vt 0.4101 0.0125 0.0000
vt 0.4100 0.1485 0.0000
vt 0.3707 0.1484 0.0000
vt 0.4490 0.0119 0.0000
vt 0.4490 0.1479 0.0000
vt 0.4883 0.0120 0.0000
vt 0.4881 0.1480 0.0000
vt 0.5272 0.0126 0.0000
vt 0.5271 0.1486 0.0000
# 88 texture coords

o Cylinder071
g Cylinder071
usemtl wire_088088225
s off
f 1/1/1 2/2/1 3/3/1 4/4/1 
f 2/2/2 5/5/2 6/6/2 3/3/2 
f 1/1/3 4/4/3 7/7/3 8/8/3 
f 8/8/4 7/7/4 9/9/4 10/10/4 
f 11/11/5 12/12/5 13/13/5 14/14/5 
f 15/15/6 16/16/6 12/12/6 11/11/6 
f 17/17/7 14/14/7 13/13/7 18/18/7 
f 19/19/8 17/17/8 18/18/8 20/20/8 
f 2/21/9 1/22/9 13/23/9 12/24/9 
f 4/4/10 3/3/10 11/11/10 14/14/10 
f 5/25/9 2/21/9 12/24/9 16/26/9 
f 6/6/11 5/27/11 16/28/11 15/15/11 
f 3/3/12 6/6/12 15/15/12 11/11/12 
f 7/7/12 4/4/12 14/14/12 17/17/12 
f 1/22/9 8/29/9 18/30/9 13/23/9 
f 9/9/12 7/7/12 17/17/12 19/19/12 
f 10/31/13 9/9/13 19/19/13 20/32/13 
f 8/29/14 10/33/14 20/34/14 18/30/14 
f 21/35/1 22/36/1 23/37/1 24/38/1 
f 22/36/2 25/39/2 26/40/2 23/37/2 
f 21/35/3 24/38/3 27/41/3 28/42/3 
f 28/42/4 27/41/4 29/43/4 30/44/4 
f 31/45/5 32/46/5 33/47/5 34/48/5 
f 35/49/6 36/50/6 32/46/6 31/45/6 
f 37/51/7 34/48/7 33/47/7 38/52/7 
f 39/53/8 37/51/8 38/52/8 40/54/8 
f 22/55/9 21/56/9 33/57/9 32/58/9 
f 24/38/10 23/37/10 31/45/10 34/48/10 
f 25/59/9 22/55/9 32/58/9 36/60/9 
f 26/40/11 25/61/11 36/62/11 35/49/11 
f 23/37/12 26/40/12 35/49/12 31/45/12 
f 27/41/12 24/38/12 34/48/12 37/51/12 
f 21/56/9 28/63/9 38/64/9 33/57/9 
f 29/43/15 27/41/15 37/51/15 39/53/15 
f 30/65/13 29/43/13 39/53/13 40/66/13 
f 28/63/14 30/67/14 40/68/14 38/64/14 
f 41/69/16 42/70/16 43/71/16 44/72/16 
f 42/70/15 45/73/15 46/74/15 43/71/15 
f 45/73/17 47/75/17 48/76/17 46/74/17 
f 47/75/14 41/77/14 44/78/14 48/76/14 
f 49/79/16 50/80/16 51/81/16 52/82/16 
f 50/80/15 53/83/15 54/84/15 51/81/15 
f 53/83/17 55/85/17 56/86/17 54/84/17 
f 55/85/18 49/87/18 52/88/18 56/86/18 
# 44 polygons

