# 3ds Max Wavefront OBJ Exporter v0.97b - (c)2007 guruware
# File Created: 26.04.2021 19:52:32

mtllib Wall 3x1.mtl

#
# object Box247
#

v  -1.4000 0.0000 0.0250
v  -1.1059 0.0000 0.0250
v  -1.1059 0.0823 0.0250
v  -1.4000 0.0061 0.0250
v  1.4000 0.0000 -0.0250
v  -0.8717 0.0000 -0.0250
v  -0.8717 0.0061 -0.0250
v  1.4000 0.0061 -0.0250
v  -0.8717 0.0000 0.0250
v  1.4000 0.0000 0.0250
v  1.4000 0.0061 0.0250
v  -0.8717 0.0823 0.0250
v  -0.8884 0.0000 -0.0250
v  -0.8884 0.0061 -0.0250
v  -1.0805 0.0000 0.0250
v  -1.0805 0.0247 0.0250
v  -1.1059 0.0000 -0.0250
v  -1.4000 0.0000 -0.0250
v  -1.4000 0.0061 -0.0250
v  -1.1059 0.0061 -0.0250
v  -1.1059 0.3591 0.0250
v  -1.1059 0.8683 0.0250
v  -1.4000 0.8683 0.0250
v  -1.4000 0.4392 0.0250
v  -0.8717 0.4392 -0.0250
v  -0.8717 0.8683 -0.0250
v  1.4000 0.8683 -0.0250
v  1.4000 0.4392 -0.0250
v  1.4000 0.4392 0.0250
v  1.4000 0.8683 0.0250
v  -0.8717 0.8683 0.0250
v  -0.8717 0.3582 0.0250
v  -1.1059 0.4392 -0.0250
v  -1.1059 0.8683 -0.0250
v  -1.0805 0.8683 -0.0250
v  -1.0805 0.4392 -0.0250
v  -0.8884 0.8683 0.0250
v  -0.8884 0.4240 0.0250
v  -1.4000 0.4392 -0.0250
v  -1.4000 0.8683 -0.0250
v  -1.0805 0.0000 -0.0250
v  -1.0805 0.0061 -0.0250
v  -0.9844 0.0000 0.0250
v  -0.9844 0.0051 0.0250
v  -0.9844 0.8683 -0.0250
v  -0.9844 0.4392 -0.0250
v  -1.0805 0.8683 0.0250
v  -1.0805 0.4240 0.0250
v  -0.9844 0.0000 -0.0250
v  -0.9844 0.0061 -0.0250
v  -0.9844 0.8683 0.0250
v  -0.9844 0.4469 0.0250
v  -0.8884 0.0000 0.0250
v  -0.8884 0.0247 0.0250
v  -0.8884 0.8683 -0.0250
v  -0.8884 0.4392 -0.0250
# 56 vertices

vn 0.0000 0.0000 1.0000
vn 0.0000 0.0000 -1.0000
# 2 vertex normals

vt 0.0236 0.3494 0.0000
vt 0.1240 0.3506 0.0000
vt 0.1237 0.3788 0.0000
vt 0.0235 0.3515 0.0000
vt 0.0200 0.0274 0.0000
vt 0.7923 0.0200 0.0000
vt 0.7925 0.0307 0.0000
vt 0.0203 0.0409 0.0000
vt 0.2040 0.3516 0.0000
vt 0.9800 0.3494 0.0000
vt 0.9798 0.3630 0.0000
vt 0.2037 0.3797 0.0000
vt 0.8142 0.0223 0.0000
vt 0.8143 0.0278 0.0000
vt 0.1327 0.3507 0.0000
vt 0.1326 0.3592 0.0000
vt 0.8758 0.0278 0.0000
vt 0.9761 0.0274 0.0000
vt 0.9760 0.0295 0.0000
vt 0.8757 0.0293 0.0000
vt 0.1225 0.4733 0.0000
vt 0.1204 0.6472 0.0000
vt 0.0200 0.6460 0.0000
vt 0.0218 0.4994 0.0000
vt 0.7946 0.1780 0.0000
vt 0.7964 0.3240 0.0000
vt 0.0241 0.3340 0.0000
vt 0.0222 0.1881 0.0000
vt 0.9781 0.5109 0.0000
vt 0.9763 0.6575 0.0000
vt 0.2004 0.6482 0.0000
vt 0.2025 0.4740 0.0000
vt 0.8754 0.1772 0.0000
vt 0.8757 0.3236 0.0000
vt 0.8672 0.3236 0.0000
vt 0.8665 0.1772 0.0000
vt 0.1947 0.6481 0.0000
vt 0.1966 0.4963 0.0000
vt 0.9758 0.1772 0.0000
vt 0.9760 0.3234 0.0000
vt 0.8716 0.0277 0.0000
vt 0.8715 0.0285 0.0000
vt 0.1655 0.3511 0.0000
vt 0.1655 0.3529 0.0000
vt 0.8345 0.3238 0.0000
vt 0.8335 0.1775 0.0000
vt 0.1291 0.6473 0.0000
vt 0.1309 0.4955 0.0000
vt 0.8613 0.0250 0.0000
vt 0.8612 0.0269 0.0000
vt 0.1619 0.6477 0.0000
vt 0.1637 0.5038 0.0000
vt 0.1983 0.3515 0.0000
vt 0.1982 0.3600 0.0000
vt 0.8019 0.3240 0.0000
vt 0.8005 0.1778 0.0000
# 56 texture coords

o Box247
g Box247
usemtl wire_184155229
s 8
f 1/1/1 2/2/1 3/3/1 4/4/1 
s 32
f 5/5/2 6/6/2 7/7/2 8/8/2 
s 8
f 9/9/1 10/10/1 11/11/1 12/12/1 
s 32
f 6/6/2 13/13/2 14/14/2 7/7/2 
s 8
f 2/2/1 15/15/1 16/16/1 3/3/1 
s 32
f 17/17/2 18/18/2 19/19/2 20/20/2 
s 8
f 21/21/1 22/22/1 23/23/1 24/24/1 
s 32
f 25/25/2 26/26/2 27/27/2 28/28/2 
s 8
f 29/29/1 30/30/1 31/31/1 32/32/1 
s 32
f 33/33/2 34/34/2 35/35/2 36/36/2 
s 8
f 32/32/1 31/31/1 37/37/1 38/38/1 
s 32
f 39/39/2 40/40/2 34/34/2 33/33/2 
s 8
f 3/3/1 21/21/1 24/24/1 4/4/1 
s 32
f 7/7/2 25/25/2 28/28/2 8/8/2 
s 8
f 11/11/1 29/29/1 32/32/1 12/12/1 
s 32
f 19/19/2 39/39/2 33/33/2 20/20/2 
f 41/41/2 17/17/2 20/20/2 42/42/2 
s 8
f 15/15/1 43/43/1 44/44/1 16/16/1 
s 32
f 35/35/2 45/45/2 46/46/2 36/36/2 
s 8
f 47/47/1 22/22/1 21/21/1 48/48/1 
s 32
f 13/13/2 49/49/2 50/50/2 14/14/2 
s 8
f 37/37/1 51/51/1 52/52/1 38/38/1 
f 53/53/1 9/9/1 12/12/1 54/54/1 
s 32
f 55/55/2 26/26/2 25/25/2 56/56/2 
s 8
f 43/43/1 53/53/1 54/54/1 44/44/1 
s 32
f 45/45/2 55/55/2 56/56/2 46/46/2 
f 49/49/2 41/41/2 42/42/2 50/50/2 
s 8
f 51/51/1 47/47/1 48/48/1 52/52/1 
# 28 polygons

