# 3ds Max Wavefront OBJ Exporter v0.97b - (c)2007 guruware
# File Created: 26.04.2021 19:42:14

mtllib Wall 2x2.mtl

#
# object Box249
#

v  -0.9241 0.0086 0.0250
v  -0.9241 0.0086 -0.0250
v  -0.6300 0.0086 -0.0250
v  -0.6300 0.0086 0.0250
v  -0.9241 0.8491 0.0250
v  -0.6300 0.8491 0.0250
v  -0.6300 0.8491 -0.0250
v  -0.9241 0.8491 -0.0250
v  -0.6300 0.0909 0.0250
v  -0.9241 0.0147 0.0250
v  0.9241 0.0086 0.0250
v  0.9241 0.0086 -0.0250
v  0.9241 0.0147 -0.0250
v  0.9241 0.0466 0.0250
v  -0.3958 0.0086 -0.0250
v  -0.3958 0.0147 -0.0250
v  -0.9241 0.0147 -0.0250
v  -0.3958 0.0086 0.0250
v  -0.3958 0.8491 0.0250
v  0.9241 0.8491 0.0250
v  0.9241 0.8491 -0.0250
v  -0.3958 0.8491 -0.0250
v  -0.3958 0.0909 0.0250
v  -0.4125 0.0086 -0.0250
v  -0.4125 0.0147 -0.0250
v  -0.6046 0.0086 -0.0250
v  -0.6046 0.0086 0.0250
v  -0.6046 0.8491 0.0250
v  -0.6046 0.8491 -0.0250
v  -0.6046 0.0333 0.0250
v  -0.6300 0.0147 -0.0250
v  -0.6300 0.3677 0.0250
v  -0.9241 0.4478 0.0250
v  0.9241 0.4478 -0.0250
v  0.9241 0.4139 0.0250
v  -0.3958 0.4478 -0.0250
v  -0.9241 0.4478 -0.0250
v  -0.3958 0.3668 0.0250
v  -0.6300 0.4478 -0.0250
v  -0.6046 0.4478 -0.0250
v  -0.4125 0.8491 0.0250
v  -0.4125 0.4326 0.0250
v  -0.6046 0.0147 -0.0250
v  -0.5085 0.0086 -0.0250
v  -0.5085 0.0086 0.0250
v  -0.5085 0.8491 0.0250
v  -0.5085 0.8491 -0.0250
v  -0.5085 0.0137 0.0250
v  -0.5085 0.4478 -0.0250
v  -0.6046 0.4326 0.0250
v  -0.5085 0.0147 -0.0250
v  -0.5085 0.4555 0.0250
v  -0.4125 0.0086 0.0250
v  -0.4125 0.8491 -0.0250
v  -0.4125 0.0333 0.0250
v  -0.4125 0.4478 -0.0250
# 56 vertices

vn -0.5774 -0.5774 0.5774
vn -0.5774 -0.5774 -0.5774
vn 0.0000 -0.7071 -0.7071
vn 0.0000 -0.7071 0.7071
vn -0.5774 0.5774 0.5774
vn 0.0000 0.7071 0.7071
vn 0.0000 0.7071 -0.7071
vn -0.5774 0.5774 -0.5774
vn 0.0000 0.0000 1.0000
vn -0.7071 0.0000 0.7071
vn 0.5774 -0.5774 0.5774
vn 0.5774 -0.5774 -0.5774
vn 0.7071 0.0000 -0.7071
vn 0.7071 0.0000 0.7071
vn 0.0000 0.0000 -1.0000
vn -0.7071 0.0000 -0.7071
vn 0.5774 0.5774 0.5774
vn 0.5774 0.5774 -0.5774
# 18 vertex normals

vt 0.1704 0.3478 0.0000
vt 0.1704 0.3389 0.0000
vt 0.2230 0.3388 0.0000
vt 0.2230 0.3478 0.0000
vt 0.9800 0.3495 0.0000
vt 0.9276 0.3493 0.0000
vt 0.9276 0.3404 0.0000
vt 0.9800 0.3406 0.0000
vt 0.0200 0.1821 0.0000
vt 0.0725 0.1819 0.0000
vt 0.0726 0.1966 0.0000
vt 0.0200 0.1832 0.0000
vt 0.5007 0.3478 0.0000
vt 0.5007 0.3389 0.0000
vt 0.5018 0.3389 0.0000
vt 0.5075 0.3478 0.0000
vt 0.3502 0.1725 0.0000
vt 0.1155 0.1741 0.0000
vt 0.1154 0.1707 0.0000
vt 0.3501 0.1684 0.0000
vt 0.1693 0.3478 0.0000
vt 0.1693 0.3389 0.0000
vt 0.2649 0.3388 0.0000
vt 0.2649 0.3477 0.0000
vt 0.8858 0.3492 0.0000
vt 0.6506 0.3482 0.0000
vt 0.6506 0.3393 0.0000
vt 0.8858 0.3402 0.0000
vt 0.1143 0.1817 0.0000
vt 0.3499 0.1808 0.0000
vt 0.3500 0.1876 0.0000
vt 0.1144 0.1964 0.0000
vt 0.1082 0.1735 0.0000
vt 0.1082 0.1715 0.0000
vt 0.2276 0.3388 0.0000
vt 0.2276 0.3478 0.0000
vt 0.9230 0.3493 0.0000
vt 0.9231 0.3404 0.0000
vt 0.0770 0.1819 0.0000
vt 0.0771 0.1863 0.0000
vt 0.0728 0.1722 0.0000
vt 0.0205 0.1725 0.0000
vt 0.0205 0.1714 0.0000
vt 0.0728 0.1712 0.0000
vt 0.0728 0.2460 0.0000
vt 0.0731 0.3319 0.0000
vt 0.0206 0.3321 0.0000
vt 0.0203 0.2605 0.0000
vt 0.5791 0.3391 0.0000
vt 0.5730 0.3480 0.0000
vt 0.1146 0.0937 0.0000
vt 0.1139 0.0223 0.0000
vt 0.3486 0.0200 0.0000
vt 0.3493 0.0914 0.0000
vt 0.0918 0.3479 0.0000
vt 0.0200 0.3480 0.0000
vt 0.0200 0.3390 0.0000
vt 0.0918 0.3390 0.0000
vt 0.3502 0.2531 0.0000
vt 0.3505 0.3308 0.0000
vt 0.1149 0.3318 0.0000
vt 0.1146 0.2457 0.0000
vt 0.0727 0.0941 0.0000
vt 0.0724 0.0226 0.0000
vt 0.0769 0.0226 0.0000
vt 0.0773 0.0940 0.0000
vt 0.1119 0.3318 0.0000
vt 0.1116 0.2574 0.0000
vt 0.0203 0.0942 0.0000
vt 0.0200 0.0228 0.0000
vt 0.0762 0.1722 0.0000
vt 0.0762 0.1714 0.0000
vt 0.2447 0.3388 0.0000
vt 0.2447 0.3478 0.0000
vt 0.9059 0.3492 0.0000
vt 0.9059 0.3403 0.0000
vt 0.0942 0.1818 0.0000
vt 0.0942 0.1827 0.0000
vt 0.0939 0.0225 0.0000
vt 0.0944 0.0939 0.0000
vt 0.0776 0.3319 0.0000
vt 0.0773 0.2575 0.0000
vt 0.0873 0.1728 0.0000
vt 0.0874 0.1718 0.0000
vt 0.0948 0.3318 0.0000
vt 0.0945 0.2616 0.0000
vt 0.2619 0.3388 0.0000
vt 0.2619 0.3477 0.0000
vt 0.8888 0.3492 0.0000
vt 0.8888 0.3403 0.0000
vt 0.1113 0.1817 0.0000
vt 0.1114 0.1861 0.0000
vt 0.1110 0.0224 0.0000
vt 0.1116 0.0938 0.0000
# 94 texture coords

o Box249
g Box249
usemtl wire_184155229
s 2
f 1/1/1 2/2/2 3/3/3 4/4/4 
s 4
f 5/5/5 6/6/6 7/7/7 8/8/8 
s 8
f 1/9/1 4/10/4 9/11/9 10/12/10 
s 16
f 11/13/11 12/14/12 13/15/13 14/16/14 
s 32
f 12/17/12 15/18/3 16/19/15 13/20/13 
s 64
f 2/2/2 1/1/1 10/21/10 17/22/16 
s 2
f 15/23/3 12/14/12 11/13/11 18/24/4 
s 4
f 19/25/6 20/26/17 21/27/18 22/28/7 
s 8
f 18/29/4 11/30/11 14/31/14 23/32/9 
s 32
f 15/18/3 24/33/3 25/34/15 16/19/15 
s 2
f 3/3/3 26/35/3 27/36/4 4/4/4 
s 4
f 6/6/6 28/37/6 29/38/7 7/7/7 
s 8
f 4/10/4 27/39/4 30/40/9 9/11/9 
s 32
f 3/41/3 2/42/2 17/43/16 31/44/15 
s 8
f 32/45/9 6/46/6 5/47/5 33/48/10 
s 16
f 34/49/13 21/27/18 20/26/17 35/50/14 
s 32
f 36/51/15 22/52/7 21/53/18 34/54/13 
s 64
f 33/55/10 5/56/5 8/57/8 37/58/16 
s 8
f 35/59/14 20/60/17 19/61/6 38/62/9 
s 32
f 39/63/15 7/64/7 29/65/7 40/66/15 
s 8
f 38/62/9 19/61/6 41/67/6 42/68/9 
s 32
f 37/69/16 8/70/8 7/64/7 39/63/15 
s 8
f 9/11/9 32/45/9 33/48/10 10/12/10 
s 16
f 13/15/13 34/49/13 35/50/14 14/16/14 
s 32
f 16/19/15 36/51/15 34/54/13 13/20/13 
s 64
f 10/21/10 33/55/10 37/58/16 17/22/16 
s 8
f 14/31/14 35/59/14 38/62/9 23/32/9 
s 32
f 17/43/16 37/69/16 39/63/15 31/44/15 
f 26/71/3 3/41/3 31/44/15 43/72/15 
s 2
f 26/35/3 44/73/3 45/74/4 27/36/4 
s 4
f 28/37/6 46/75/6 47/76/7 29/38/7 
s 8
f 27/39/4 45/77/4 48/78/9 30/40/9 
s 32
f 29/65/7 47/79/7 49/80/15 40/66/15 
s 8
f 28/81/6 6/46/6 32/45/9 50/82/9 
s 32
f 24/33/3 44/83/3 51/84/15 25/34/15 
s 8
f 41/67/6 46/85/6 52/86/9 42/68/9 
s 2
f 24/87/3 15/23/3 18/24/4 53/88/4 
s 4
f 41/89/6 19/25/6 22/28/7 54/90/7 
s 8
f 53/91/4 18/29/4 23/32/9 55/92/9 
s 32
f 54/93/7 22/52/7 36/51/15 56/94/15 
s 2
f 44/73/3 24/87/3 53/88/4 45/74/4 
s 4
f 46/75/6 41/89/6 54/90/7 47/76/7 
s 8
f 45/77/4 53/91/4 55/92/9 48/78/9 
s 32
f 47/79/7 54/93/7 56/94/15 49/80/15 
f 44/83/3 26/71/3 43/72/15 51/84/15 
s 8
f 46/85/6 28/81/6 50/82/9 52/86/9 
# 46 polygons

